<mxfile host="app.diagrams.net" modified="2022-09-26T08:08:56.197Z" agent="5.0 (Macintosh; Intel Mac OS X 10_15_7) AppleWebKit/537.36 (KHTML, like Gecko) Chrome/104.0.0.0 Safari/537.36" etag="Og_dBtHZ1xXUrWy4czZx" version="20.3.6" type="github" pages="4">
  <diagram id="zb81O2PpcsG5EOQZYe96" name="第 1 页">
    <mxGraphModel dx="2386" dy="1887" grid="0" gridSize="10" guides="1" tooltips="1" connect="1" arrows="1" fold="1" page="0" pageScale="1" pageWidth="1169" pageHeight="827" math="0" shadow="1">
      <root>
        <mxCell id="0" />
        <mxCell id="1" parent="0" />
        <mxCell id="17iFcZzafccTJ0kJV-RW-21" style="edgeStyle=orthogonalEdgeStyle;rounded=0;orthogonalLoop=1;jettySize=auto;html=1;exitX=1;exitY=0.5;exitDx=0;exitDy=0;entryX=0;entryY=0.5;entryDx=0;entryDy=0;sketch=1;" parent="1" source="17iFcZzafccTJ0kJV-RW-3" target="17iFcZzafccTJ0kJV-RW-4" edge="1">
          <mxGeometry relative="1" as="geometry" />
        </mxCell>
        <mxCell id="17iFcZzafccTJ0kJV-RW-22" style="edgeStyle=orthogonalEdgeStyle;rounded=0;orthogonalLoop=1;jettySize=auto;html=1;exitX=1;exitY=0.5;exitDx=0;exitDy=0;entryX=0;entryY=0.5;entryDx=0;entryDy=0;sketch=1;" parent="1" source="17iFcZzafccTJ0kJV-RW-3" target="17iFcZzafccTJ0kJV-RW-5" edge="1">
          <mxGeometry relative="1" as="geometry" />
        </mxCell>
        <mxCell id="17iFcZzafccTJ0kJV-RW-3" value="Main Process" style="rounded=0;whiteSpace=wrap;html=1;sketch=1;" parent="1" vertex="1">
          <mxGeometry x="-1040" y="-710" width="90" height="30" as="geometry" />
        </mxCell>
        <mxCell id="17iFcZzafccTJ0kJV-RW-34" style="edgeStyle=orthogonalEdgeStyle;rounded=0;hachureGap=4;jiggle=2;orthogonalLoop=1;jettySize=auto;html=1;exitX=1;exitY=0.5;exitDx=0;exitDy=0;fontFamily=Architects Daughter;fontSource=https%3A%2F%2Ffonts.googleapis.com%2Fcss%3Ffamily%3DArchitects%2BDaughter;fontSize=16;sketch=1;" parent="1" source="17iFcZzafccTJ0kJV-RW-4" target="17iFcZzafccTJ0kJV-RW-9" edge="1">
          <mxGeometry relative="1" as="geometry" />
        </mxCell>
        <mxCell id="17iFcZzafccTJ0kJV-RW-4" value="DialogManager" style="rounded=0;whiteSpace=wrap;html=1;sketch=1;" parent="1" vertex="1">
          <mxGeometry x="-900" y="-800" width="90" height="30" as="geometry" />
        </mxCell>
        <mxCell id="17iFcZzafccTJ0kJV-RW-19" style="edgeStyle=orthogonalEdgeStyle;rounded=0;orthogonalLoop=1;jettySize=auto;html=1;exitX=1;exitY=0.5;exitDx=0;exitDy=0;sketch=1;" parent="1" source="17iFcZzafccTJ0kJV-RW-5" target="17iFcZzafccTJ0kJV-RW-11" edge="1">
          <mxGeometry relative="1" as="geometry" />
        </mxCell>
        <mxCell id="17iFcZzafccTJ0kJV-RW-20" style="edgeStyle=orthogonalEdgeStyle;rounded=0;orthogonalLoop=1;jettySize=auto;html=1;exitX=1;exitY=0.5;exitDx=0;exitDy=0;sketch=1;" parent="1" source="17iFcZzafccTJ0kJV-RW-5" target="17iFcZzafccTJ0kJV-RW-12" edge="1">
          <mxGeometry relative="1" as="geometry" />
        </mxCell>
        <mxCell id="17iFcZzafccTJ0kJV-RW-5" value="ToastManager" style="rounded=0;whiteSpace=wrap;html=1;sketch=1;" parent="1" vertex="1">
          <mxGeometry x="-900" y="-610" width="90" height="30" as="geometry" />
        </mxCell>
        <mxCell id="17iFcZzafccTJ0kJV-RW-39" style="edgeStyle=orthogonalEdgeStyle;rounded=0;orthogonalLoop=1;jettySize=auto;html=1;entryX=1;entryY=0.5;entryDx=0;entryDy=0;startArrow=classic;startFill=1;endArrow=none;endFill=0;sketch=1;" parent="1" source="17iFcZzafccTJ0kJV-RW-8" target="17iFcZzafccTJ0kJV-RW-4" edge="1">
          <mxGeometry relative="1" as="geometry" />
        </mxCell>
        <mxCell id="17iFcZzafccTJ0kJV-RW-8" value="dialog.html" style="dashed=0;outlineConnect=0;html=1;align=center;labelPosition=center;verticalLabelPosition=bottom;verticalAlign=top;shape=mxgraph.webicons.html5;gradientColor=#DFDEDE;sketch=1;" parent="1" vertex="1">
          <mxGeometry x="-760" y="-875" width="40" height="40" as="geometry" />
        </mxCell>
        <mxCell id="17iFcZzafccTJ0kJV-RW-9" value="dialog.html" style="dashed=0;outlineConnect=0;html=1;align=center;labelPosition=center;verticalLabelPosition=bottom;verticalAlign=top;shape=mxgraph.webicons.html5;gradientColor=#DFDEDE;sketch=1;" parent="1" vertex="1">
          <mxGeometry x="-760" y="-805" width="40" height="40" as="geometry" />
        </mxCell>
        <mxCell id="17iFcZzafccTJ0kJV-RW-40" style="edgeStyle=orthogonalEdgeStyle;rounded=0;orthogonalLoop=1;jettySize=auto;html=1;entryX=1;entryY=0.5;entryDx=0;entryDy=0;startArrow=classic;startFill=1;endArrow=none;endFill=0;sketch=1;" parent="1" source="17iFcZzafccTJ0kJV-RW-10" target="17iFcZzafccTJ0kJV-RW-4" edge="1">
          <mxGeometry relative="1" as="geometry" />
        </mxCell>
        <mxCell id="17iFcZzafccTJ0kJV-RW-10" value="dialog.html" style="dashed=0;outlineConnect=0;html=1;align=center;labelPosition=center;verticalLabelPosition=bottom;verticalAlign=top;shape=mxgraph.webicons.html5;gradientColor=#DFDEDE;sketch=1;" parent="1" vertex="1">
          <mxGeometry x="-760" y="-735" width="40" height="40" as="geometry" />
        </mxCell>
        <mxCell id="17iFcZzafccTJ0kJV-RW-11" value="toast.html" style="dashed=0;outlineConnect=0;html=1;align=center;labelPosition=center;verticalLabelPosition=bottom;verticalAlign=top;shape=mxgraph.webicons.html5;gradientColor=#DFDEDE;sketch=1;" parent="1" vertex="1">
          <mxGeometry x="-760" y="-650" width="40" height="40" as="geometry" />
        </mxCell>
        <mxCell id="17iFcZzafccTJ0kJV-RW-12" value="toast.html" style="dashed=0;outlineConnect=0;html=1;align=center;labelPosition=center;verticalLabelPosition=bottom;verticalAlign=top;shape=mxgraph.webicons.html5;gradientColor=#DFDEDE;sketch=1;" parent="1" vertex="1">
          <mxGeometry x="-760" y="-580" width="40" height="40" as="geometry" />
        </mxCell>
      </root>
    </mxGraphModel>
  </diagram>
  <diagram id="txcSpiEl_E_-uFwC4hHD" name="第 2 页">
    <mxGraphModel dx="1986" dy="687" grid="0" gridSize="10" guides="1" tooltips="1" connect="1" arrows="1" fold="1" page="0" pageScale="1" pageWidth="1169" pageHeight="827" math="0" shadow="1">
      <root>
        <mxCell id="0" />
        <mxCell id="1" parent="0" />
        <mxCell id="QFdLaQrW43IuTwmzVqsT-12" style="edgeStyle=orthogonalEdgeStyle;rounded=0;orthogonalLoop=1;jettySize=auto;html=1;exitX=1;exitY=0.5;exitDx=0;exitDy=0;entryX=0;entryY=0.5;entryDx=0;entryDy=0;curved=1;sketch=1;" parent="1" source="QFdLaQrW43IuTwmzVqsT-2" target="QFdLaQrW43IuTwmzVqsT-10" edge="1">
          <mxGeometry relative="1" as="geometry" />
        </mxCell>
        <mxCell id="QFdLaQrW43IuTwmzVqsT-24" value="view" style="edgeLabel;html=1;align=center;verticalAlign=bottom;resizable=0;points=[];sketch=1;" parent="QFdLaQrW43IuTwmzVqsT-12" vertex="1" connectable="0">
          <mxGeometry x="-0.129" relative="1" as="geometry">
            <mxPoint as="offset" />
          </mxGeometry>
        </mxCell>
        <mxCell id="QFdLaQrW43IuTwmzVqsT-26" style="edgeStyle=orthogonalEdgeStyle;rounded=0;orthogonalLoop=1;jettySize=auto;html=1;curved=1;sketch=1;" parent="1" source="QFdLaQrW43IuTwmzVqsT-2" target="QFdLaQrW43IuTwmzVqsT-25" edge="1">
          <mxGeometry relative="1" as="geometry">
            <Array as="points">
              <mxPoint x="-370" y="200" />
              <mxPoint x="-370" y="380" />
            </Array>
          </mxGeometry>
        </mxCell>
        <mxCell id="QFdLaQrW43IuTwmzVqsT-27" value="ipc" style="edgeLabel;html=1;align=center;verticalAlign=middle;resizable=0;points=[];sketch=1;" parent="QFdLaQrW43IuTwmzVqsT-26" vertex="1" connectable="0">
          <mxGeometry x="0.0083" relative="1" as="geometry">
            <mxPoint as="offset" />
          </mxGeometry>
        </mxCell>
        <mxCell id="QFdLaQrW43IuTwmzVqsT-2" value="renderer process" style="shape=image;html=1;verticalAlign=top;verticalLabelPosition=bottom;labelBackgroundColor=#ffffff;imageAspect=0;aspect=fixed;image=https://cdn1.iconfinder.com/data/icons/ionicons-fill-vol-2/512/logo-react-128.png;sketch=1;" parent="1" vertex="1">
          <mxGeometry x="-460" y="166" width="68" height="68" as="geometry" />
        </mxCell>
        <mxCell id="QFdLaQrW43IuTwmzVqsT-23" style="edgeStyle=orthogonalEdgeStyle;rounded=0;orthogonalLoop=1;jettySize=auto;html=1;curved=1;sketch=1;" parent="1" source="QFdLaQrW43IuTwmzVqsT-6" target="QFdLaQrW43IuTwmzVqsT-7" edge="1">
          <mxGeometry relative="1" as="geometry" />
        </mxCell>
        <mxCell id="QFdLaQrW43IuTwmzVqsT-6" value="new window" style="html=1;verticalLabelPosition=bottom;align=center;labelBackgroundColor=#ffffff;verticalAlign=top;strokeWidth=2;strokeColor=#000000;shadow=0;dashed=0;shape=mxgraph.ios7.icons.window;sketch=1;" parent="1" vertex="1">
          <mxGeometry x="120" y="145" width="90" height="110" as="geometry" />
        </mxCell>
        <mxCell id="QFdLaQrW43IuTwmzVqsT-7" value="" style="shape=image;verticalLabelPosition=bottom;labelBackgroundColor=default;verticalAlign=top;aspect=fixed;imageAspect=0;image=data:image/png,iVBORw0KGgoAAAANSUhEUgAAAfcAAACoCAYAAAD92qexAAAMP2lDQ1BJQ0MgUHJvZmlsZQAASImVVwdYU8kWnluSkEBCCURASuhNEJGOlBBaAAGpgo2QBAglxoQgYkdFBdeCigjY0FURRdcCyFoRu4ti74siCsq6qItdeZMCuu4r35vvmzv//efMf86cO3PvHQA0T3DF4hxUC4BcUZ4kNjSQOT45hUl6CsiABrSALrDk8qRiVkxMJIBlsP17eXsTIPL2mqNc65/9/7Vo8wVSHgBIDMRpfCkvF+KDAODVPLEkDwCinLeYnieWY1iBrgQGCPESOc5Q4mo5TlPifQqb+Fg2xK0AqGlwuZIMAGhXIM/M52VADVofxM4ivlAEgCYTYr/c3Kl8iFMhtoU2Yojl+p5p3+lk/E0zbUiTy80Ywsq5KIpakFAqzuHO+D/T8b9Lbo5s0Ic1rBqZkrBY+Zxh3m5nT42QYw2Ie0VpUdEQ60D8XshX2EOMUjJlYQlKe9SIJ2XDnAEGxM58blAExEYQh4hyoiJVfFq6MIQDMVwhaIEwjxMPsT7ESwTS4DiVzWbJ1FiVL7QhXcJmqfhzXInCr9zXQ1l2Akul/zpTwFHpY7TCzPgkiCkQW+YLE6MgpkHsJM2Oi1DZjCnMZEcN2khksfL4LSGOFYhCA5X6WH66JCRWZV+SKx2cL7Y5U8iJUuH9eZnxYcr8YK08riJ+OBfsikDEShjUEUjHRw7OhS8IClbOHesWiBLiVDrvxXmBscqxOEWcE6Oyx80FOaFy3hxiV2l+nGosnpgHF6RSH08X58XEK+PEC7O44THKePCVIBKwQRBgAhmsaWAqyALCtt7GXnin7AkBXCABGUAAHFXM4IgkRY8IXuNAIfgDIgGQDo0LVPQKQD7kvwyxyqsjSFf05itGZIOnEOeCCJAD72WKUaIhb4ngCWSE//DOhZUH482BVd7/7/lB9hvDgkykipENemRqDloSg4lBxDBiCNEON8T9cB88El4DYHXBPXGvwXl8syc8JbQTHhNuEDoId6YIiyQ/RDkWdED9EFUu0r7PBW4NNd3wQNwXqkNlnIEbAkfcFfph4f7Qsxtk2aq45Vlh/qD9txl89zRUdmRnMkoeRg4g2/44kmZPcxtSkef6+/woY00byjd7qOdH/+zvss+HbcSPltgS7AB2FjuJnceOYI2AiR3HmrBL2FE5HlpdTxSra9BbrCKebKgj/Ie/wScrz6TUuc65x/mzsi9PUCB/RwP2VPEMiTAjM4/Jgl8EAZMj4jmNYLo4u7gAIP++KF9fbxiK7wbCuPCNK3oAgG/ywMDAkW9cJNy/B7vh9u/9xtnUAUA9BsC5RTyZJF/J4fILAb4lNOFOMwAmwALYwvm4AHfgAwJAMAgH0SAeJIPJMPpMuM4lYDqYBeaDYlAKVoK1oBJsAlvBTrAH7AeN4Ag4Cc6Ai+AKuAHuwdXTBV6APvAWfEIQhIRQETpigJgiVogD4oJ4In5IMBKJxCLJSCqSgYgQGTILWYCUImVIJbIFqUV+QQ4jJ5HzSDtyB3mE9CCvkY8ohmqguqgxao2ORD1RFhqBxqOT0Ax0GlqILkSXoxVoDbobbUBPohfRG2gH+gLtxwCmjjEwM8wR88TYWDSWgqVjEmwOVoKVYzVYPdYMn/M1rAPrxT7gRJyOM3FHuILD8ASch0/D5+DL8Ep8J96At+LX8Ed4H/6VQCUYERwI3gQOYTwhgzCdUEwoJ2wnHCKchnupi/CWSCQyiDZED7gXk4lZxJnEZcQNxL3EE8R2Yiexn0QiGZAcSL6kaBKXlEcqJq0n7SYdJ10ldZHeq6mrmaq5qIWopaiJ1IrUytV2qR1Tu6r2TO0TWYtsRfYmR5P55BnkFeRt5GbyZXIX+RNFm2JD8aXEU7Io8ykVlHrKacp9yht1dXVzdS/1cepC9XnqFer71M+pP1L/oKGjYa/B1pioIdNYrrFD44TGHY03VCrVmhpATaHmUZdTa6mnqA+p72l0mhONQ+PT5tKqaA20q7SXmmRNK02W5mTNQs1yzQOalzV7tcha1lpsLa7WHK0qrcNat7T6tenao7SjtXO1l2nv0j6v3a1D0rHWCdbh6yzU2apzSqeTjtEt6Gw6j76Avo1+mt6lS9S10eXoZumW6u7RbdPt09PRc9VL1CvQq9I7qtfBwBjWDA4jh7GCsZ9xk/FxmPEw1jDBsKXD6oddHfZOf7h+gL5Av0R/r/4N/Y8GTINgg2yDVQaNBg8McUN7w3GG0w03Gp427B2uO9xnOG94yfD9w+8aoUb2RrFGM422Gl0y6jc2MQ41FhuvNz5l3GvCMAkwyTJZY3LMpMeUbupnKjRdY3rc9DlTj8li5jArmK3MPjMjszAzmdkWszazT+Y25gnmReZ7zR9YUCw8LdIt1li0WPRZmlqOtZxlWWd514ps5WmVabXO6qzVO2sb6yTrxdaN1t02+jYcm0KbOpv7tlRbf9tptjW21+2Idp522XYb7K7Yo/Zu9pn2VfaXHVAHdwehwwaH9hGEEV4jRCNqRtxy1HBkOeY71jk+cmI4RToVOTU6vRxpOTJl5KqRZ0d+dXZzznHe5nxvlM6o8FFFo5pHvXaxd+G5VLlcH00dHTJ67uim0a9cHVwFrhtdb7vR3ca6LXZrcfvi7uEuca937/Gw9Ej1qPa45anrGeO5zPOcF8Er0Guu1xGvD97u3nne+73/9HH0yfbZ5dM9xmaMYMy2MZ2+5r5c3y2+HX5Mv1S/zX4d/mb+XP8a/8cBFgH8gO0Bz1h2rCzWbtbLQOdASeChwHdsb/Zs9okgLCg0qCSoLVgnOCG4MvhhiHlIRkhdSF+oW+jM0BNhhLCIsFVhtzjGHB6nltMX7hE+O7w1QiMiLqIy4nGkfaQksnksOjZ87Oqx96OsokRRjdEgmhO9OvpBjE3MtJhfxxHHxYyrGvc0dlTsrNizcfS4KXG74t7GB8aviL+XYJsgS2hJ1EycmFib+C4pKKksqWP8yPGzx19MNkwWJjelkFISU7an9E8InrB2QtdEt4nFE29OsplUMOn8ZMPJOZOPTtGcwp1yIJWQmpS6K/UzN5pbw+1P46RVp/Xx2Lx1vBf8AP4afo/AV1AmeJbum16W3p3hm7E6oyfTP7M8s1fIFlYKX2WFZW3Kepcdnb0jeyAnKWdvrlpuau5hkY4oW9Q61WRqwdR2sYO4WNwxzXva2ml9kgjJdikinSRtytOFP/KXZLayRbJH+X75VfnvpydOP1CgXSAquDTDfsbSGc8KQwp/nonP5M1smWU2a/6sR7NZs7fMQeakzWmZazF34dyueaHzds6nzM+e/1uRc1FZ0V8LkhY0LzReOG9h56LQRXXFtGJJ8a3FPos3LcGXCJe0LR29dP3SryX8kgulzqXlpZ+X8ZZd+GnUTxU/DSxPX962wn3FxpXElaKVN1f5r9pZpl1WWNa5euzqhjXMNSVr/lo7Ze35ctfyTeso62TrOioiK5rWW65fuf5zZWbljarAqr3VRtVLq99t4G+4ujFgY/0m402lmz5uFm6+vSV0S0ONdU35VuLW/K1PtyVuO/uz58+12w23l27/skO0o2Nn7M7WWo/a2l1Gu1bUoXWyup7dE3df2RO0p6nesX7LXsbe0n1gn2zf819Sf7m5P2J/ywHPA/UHrQ5WH6IfKmlAGmY09DVmNnY0JTe1Hw4/3NLs03zoV6dfdxwxO1J1VO/oimOUYwuPDRwvPN5/Qnyi92TGyc6WKS33To0/db11XGvb6YjT586EnDl1lnX2+Dnfc0fOe58/fMHzQuNF94sNl9wuHfrN7bdDbe5tDZc9Ljdd8brS3D6m/dhV/6snrwVdO3Odc/3ijagb7TcTbt6+NfFWx23+7e47OXde3c2/++nevPuE+yUPtB6UPzR6WPO73e97O9w7jj4KenTpcdzje528zhdPpE8+dy18Sn1a/sz0WW23S/eRnpCeK88nPO96IX7xqbf4D+0/ql/avjz4Z8Cfl/rG93W9krwaeL3sjcGbHX+5/tXSH9P/8G3u20/vSt4bvN/5wfPD2Y9JH599mv6Z9Lnii92X5q8RX+8P5A4MiLkSruJXAIMVTU8H4PUO+J+QDAAdns8oE5TnP0VBlGdWBQL/CSvPiIriDkA9bOS/8ewTAOyD1Xoe1Ib38l/4+ACAjh49VAfPaopzpbwQ4Tlgs58c3dDnzwM/FOWZ87u4f2yBXNUV/Nj+C/oKe3TDIK2CAAAAOGVYSWZNTQAqAAAACAABh2kABAAAAAEAAAAaAAAAAAACoAIABAAAAAEAAAH3oAMABAAAAAEAAACoAAAAADGDRlEAAEAASURBVHgB7L1pzG3bVaa3zvnOuR1gIGVXgW3ADY2IgBIFGLuwCIQAoWiDQmSUKiCRgggiIBDwAwRYQZAoCiDxB/9CVBCdhIUgElAloapC9DFNiYIQXHZhG4xtro3ta9/mNN+X93nHeOcae519rm0SlUDy/M7ec87RjzHHbNbaa+9z7fmf9rKr7epq265d21xvhyL45d3L7fp14btcXl5VHx6Vu3fubhc3Lnb+5mlyV2f5mwB5z37Os7c3/uUbt+ub9KlPuZJdFxfXt7vSf00ykUEbGCV0wNM2ot/gh+9YLq8kT3/IgS/8qeF7T+Uod/Jck9wr2ZmiAG/Xrwk27IkNrmXjxEEL/LrlMDb6Jx+v7p7ahdxZkAHvLNBM2cHhP6X0w0MfeacyBVgFOSnTf8Px7fqpj1Pv1WXFAxpKcIYfxwg952Diu0Yc20ZsOOGPfZN3yhrtitPl9k/+yX+5fcRHPHd7xSteIfsvlOs2T3Ehltgx8rpQ976jL7qFLd7Et2J2fdgEnhJY+gb223XF6bJjNuG0n47vSJs4A/c4qZ5jd6QPHTToiW3hBR/+CYuc6PPY2M99HoSGOuEaYTE6cDrgqo+MypsJIxdSJp9GoOn3+krznDkUOUUT7sgJPXDaKcq5TgzPw16fwKZP7lQpvl1fg7sCnrLzkscFT+6UrfJ/0AcX/mMdHtZIyrk8mWN65KfP+F0o9+4q986Nc2D38GYANEAzL0I/9RqPXxqPlSfx02PU0gOjG/g5GPgJp58SvvTP1QfeS60v7EOzLNh12e28q71l+cq6gS7JWrQCnbbpaf9inTnonLqgoUy67E3n6DRTJ3j1rr3gRS9b9t0z4zRgJMyd27XiMRAoSVJGIoZe3GACdOJmBqpeBwNglE4COydZF4LfFYxF2pstIiTn6Ax9Zvs5ecdAhRfHklzWfXizzIZNGQlIeKccNpZsjBEXevorWYPsOvDUQXMQYGgyIYFDk83/rL5hQzY68x0SEhhl0hRkf8cXPKJU2wPgNrAj70ksOr6Jx5HW/E3D+F4nqXVocRGc8XQ+qL4nLuC6LJ3N4w1duHsOCuDvV6IPvNrw3lDsH3roQW+it556crujRZFpTfGmdnVXNt9wP3a6Ez2xvyjW+3ERPvYX4ZmG9QqexfDcAg3be4JncT7KAU4h3kcZxzwGHzkcNDhwpBxpJ9z52/STLjSp17g2YNIigzJhZCNZmlI0gSn7GNcdHTLBNa5yu/LlDMGipJEc6jx1PqR9QtgdYgI+sXk6WknvNbLWUGwqMQXHNnKTug4UlTt12IfyOGbpgyu+fS2ZuOQVdJSJK0jnvDq5oAJOTNnsj/zhSR15ZW/FODw1Luc3/eiInPPjHuzT1Nl7iN1sPw3LCSo8J8DusKFTSC7FgxG+qbXs1p1bipXWB9aDy/LZdOPtdHMvOb6A9Uqz80BHCW62c9AIjQnv8xZa0DeurtRdE0lmu90JqjZ2+0q5HYMJGGbE2esXRSfMgjlrRciCXqWvAhREFgl4KITK+S0YdlQbMeDb4d7YUZxNvo2wjGzSucIHWBt81SbiTTI5HFBIONa5ois9wEuW6Gxn1aHHpouLupKbhwHw4JAZvcAoM7FDU74VjkTkcBNceNaV/mExszzBspGysU5eK0Vvx874lhG9i0Z6i25PMnCXVxy6dhmhR1b9K/2RF13QQUPftOqzsBL3bMTwmEZXxanxybzCHcs98dOgISs8R/rYFPiiQ69eqy8C7oTcunXbNtYYkH3YwIHr7napzV+DE1F7jZ3Y3HYvRNvvhe4cbsJaRhbALI5LlhoTlnboJ909bcnOgnxcbInB/WTBQ4mObOzELBs7vPOAcI9uAaA/jsMx9sc+cgJLPWUDY2yOsgkpqArtHF/oSyZ8tYkylrwKB/60gDtffMeo0VzFZwNWtJqBmvhVDJU95wV54y4U6ZWyy5OFln/pcfDaK5lZRaHnIFDwagObGztjRB+6jH/GHNqMb3hCB46SCw144sXc8KGJjkkfXcBSIgP+O7rDyzgaVgN2z3jCN+fopD/Co8M5IfkrN7K3tA45jMErv9wPM3XGhLppJ43XGzYLijZx1vi7otMsU7CIvVcLjdLIq5YV2LlN3noZI+ckmVP81MDO8tiVoQeTmt/mDVk35u2/LJpcrcxAopMg5zYhbRbwy7u6sunNzjNMcDFKmYoWRdYKn/ihUWHxuBKN+TvwbCQE8uLGDcu6e+eOKCUdJ3IwQK5LZhedhkWegu+Ebxuwx+wZYPWRjR4+Rrhx86b7vu0qfT5sYLvkwFL+4o70iJdNHX/lgAbzQuNS/iMvV5JlIzyVxPTNx4aEPeK7zH1fPBAsNKcHE00EYptjvanqjQjIAnsPuycqNgJL36RFdY1by11OxrRhLck9xjQTjzYlNhCHgtUCii/E6a427wvZyajXRm62ppVVvWEAhd82yE700rf+7tdHBPiyr3qhoSbpnaNLluTICGxhcy6pkssYSowPSOKj4BcFOc5D1UyKS92VurqmF5MVtVeRZXK/XXFrXgUZSHGOiDgyBSm/bINJZUrNFx8GNZYz56HwvGibMgeRl03UwVX/rniTQ8YjN3rUti/yN6XyoXwm1uGFzvbCiwzxWJf6Dz3yiObC7e3JJ59a4wVtpMIbndTJW+SnHf3U0HMAQMfEkx+VNxoF8ZbfxGYfb+gnj0es3DHPKQ5XalxTkwOUaVtwUrnie69tKCnd8MoLxHRh40BX2+kKPdDRKZ1N3NXMjwIlhsS27laKs0WSs2nnFj/rWa0tGQnoYbhUXihXPLcvzFf8OgT0iaH4oKk5gwVFo7Wr16DczUCvVqaTTR0bOGQ4Z8p8x/TGjZuGN8g86MyBgFjUOnthWwKf61viEBnU/hhTG6Jzx/EvLGNRc7v6GUvzNB2wOd4eP81nFzbZ3miZ+27TpzDniZfkXAU265ZBnE6uzIGLLnOVtcPtprdoYDQoorV/PTbXM5xNn00dOs9LxTAbfD7iTT+pxtpl0QGgZrTB6bb8f6tY1CQ9FyQHCkoV45WE3XFQBKw+gU4bSAceWE3i5kOXExQStfVH0KF53vOet732ta8tPeFvWeaW7gS0lPY7ekW/FizAwCiRoz4LJVBv8JLFRwLLv5YBC3IosAK2/YYwTqXLiJYd+t3PmoDNYjlMgNBJIEqCXj7VBCjwLmuRuRGbUgebCUM8UzCVkvH1wkzEBU/bE1O2QBoZ+FiukUIZoxKW8aJHPsDDy4uIaCmeRG6JRn+z3+AFD37WXCzPReWGDlYcdijRRRuaU/2nuiIT2hRgOWBhv7oqslAzmMWb+0gVr/KFa3jK1Ju+EXqTxJUscw45txQbwyAmqOhMOfRZDjispPggjF3KFxZm+nUIcfRFSw6VPA4zdY5Dh8CSc87mGVf0IOEmB93bt+3/HRZ+8WJzaJFDOdcPzgR6w+ccBqCfV/+BhzZ18pO+Y9a1xydE76FO3OHP3DnHH13g1nyU7PDfT03wkRk7ZTHcg7/Hj7FivdEmKaT82ud78pI6/FWf017j+97ga0M/J2OH1cGhbWzwzrfD51X9zl2t3BWgx/gyrpTkAuN+zL3g97hVzM2ot/BkfI790D1dHdn7GEGtOdUXOFygVLvsreyXz+S3x2j333rYfLXhni1jIzceutCr9qYsueQY+WjcEMTKujbj8DZ+bdyT7wxN+Bd9rwVRc+0Fn/5PFZOazDi52qI4uBqeqgnIuYIsjEKW8KQ0oXStADqQ8HV74mFwLMGpJFnc0VuGxLwNdBKpbY6W6UFuGSaTLZfqw39XOwcn1ec+97nbo48+ut166inbhl2WHz71UzQ+68resNZzvzY+1Sm5FuUcZpJA2Ip0Lxi9aV3TBlaLQZ/We8JYR79VVKpTawWauq/K+Oaz/obhik2m74RROrR75a62MDmfRKQuniKq21CyS5FatkuWfVDNyNzV3Yp5rWPwmbeEjuyoxW3KEYMUWLcalUHYzuKo8XGtMbRmcqUi4hwSHrqc8p34NpZNDlpk16JTwZC85QCNyn02d0otEIqDhGf8rE969qibVG/Fm17qkiGs4mkfglBdpmEzcS3ba+Mu/QQBq3ogqqbfPheq+AosieYhj7GxbLINEmRZZkczI1YLc/nW9hNDJYLnjyhss2C2oSwWFwskEvR2rSIBSWkAUZqyjoArjcVi9CIrWgSWDNEK53YDKm5NhwgToGWHCdwlmjqeERrsYLEcwcvXIqgDHjIq35qtdA7aigu+E4tT2vBQ77gojn1HHHBodjz8VSZv2mBC+55gLeY9VNngWRvHOWTl/o4nc/Z5MeHVLj+4o3sSWxZR+Vh74m5zNvGYV/2a23VAKEzmcPGXDeHx3VXWJnKjSzbyqrnzysVd57loQqv7AsUhVn/Uqro2TWxtX1asRWoDBPeC0srOVdNg0WZtXaTlSHWR9Z76UE6aCLIdskfhZc6TF0SHos/cBSAoIuIzSIYgSMNNpjfRVbBF2yXJm0BRc+s6E7uCY73FgR5oNNDWobYfqPNmcqVb5XXLfOnfFZV+9ZENT0oWePpJtBO7QTS9p6Mf/Lvc3vAXf2GZsd27mwcTBhXx2D/Z5sQQLroMP9AWU/G5zSJJV0lOSUyIo+1RbdicBOyw2Aqv9GZTsQDe4od4MwkXDTGEZBFLZ7eb7QQXsjKHW6gFYWwYN66WKe47UensMrERHP5c1yLv2EShSKMTGeiYxTifogt3YrOIs+nD43bDOAFzd8M5I5xNbuEc3mZZ0RCcRbuOJQgUXfNc0+32yvgy0LHsOCxZQy5xWeO4CGiU7pVLghCb9O2RBiwWIgONe1iwETE1N+Azr4Brs20YvMcSmGtdpeTwY1/Ryj+9Sq8VeUnjCgw9d2Srb4dSo8eW1iaPunU72nD5hl2Sl/mdBXl6BIH96AgXjXJFOs0nfgzjToWbovOdCUGLpry0te1yPtJjbPtizETAZwHnYcQGyTcftYhCyfj4imow7n7ic1slvpTAqj5dpYILLTnH085c2db4IC+y7n8gKP5pKZBYXdhTmshNPWnSDq7qOrDSlkW6U0OOrXVEMNaWY8lt+rIFgpoo8LFp5mB/TR/pEot6kXPxn3wpwawXKeRC1tXAiFPRxm4w1fZeNkbSH+uqj77KsfKrYs0Bla1NY681DN61Dkgi8NvRDzJjbRF+K5PabnfWPfVC5X3XX2MMC7DKOt0tnus8TOUIQYmIgqlvPvGf5Oik2zlO+RE7cPZ+uFEJT0R4pchpbjOQrBOOEbPYTMFsXAeKCZRXaD2YzcvCQh+eO7fvuA3dWjjgVx8aXv4Ms/HQhA5+Tov3JKrgFHhtkt5YyICygdK+o8/ifTAQzfJJdLVY1kSEH13LN+SKF6FZSFZySHZuVZ3wSV/k207JAE+pBUB+95W8gfd7k5xjid9eTAYe+D0FWKmVPY0VLGlGHNlEedlHkSA3sUa7PwsWjz/TVf/Eoshs0asSPDqs1zoL4kkgvEZg0YTPMReUW/OZLPc7yCWe4Z21I6HxitOM3J5DGl8Ro2vFLMGh7lfGb8lA3pliOvFkgmZ84YuMbC7pQwNs9hefdMw2NKGLes8zDhFenRkEXlXKzPAojwVmFhDPG/58lQWafIarch5O4mkpFlC+svkC55kGeK/rkMTaEFjV4oJcNNCxNl2IrqQhkYO9ck5yWHDZPOjPQs/6OyYTi4+OgXDWh0RsZI4JxlwEnoIex1a2w3eMPXSJ6YxrYJFDPQ9ukXWkwz7mTJXSic/AOThPetqF2+2t4LHe7F6zKUO3v+jPMnFp7/gKB7GWdG8Wkk+s2q7zciMH2voc3vTiyxysz/6RW37duKlvoTx4Y3vgxjV/I4V8QQ/PNXGh5HXUsMqj9Es/G6Gev+rTG5s3r/R3b6oF3GMg51iuMkf4eBtc+CxHLMx5aHjlOR1LWpsn/lZxXkkQt/LRcdH1HBMndsvEDz5bRzY5Qs2+Ce/6ajR6lq5W1P0an90H5+iRXnGjSLpfLWFvN56pfPGffOQ/fPn+OZ7CC1L6T+tadDB2FQzGmljUiCyQbAqVtELAB11qaNUnGL4KVxvZ2RALzUQoR+ifFMHBgA8NltmeEDppTbRs9EIhHvR6IYSmZSDHMpDTsqgtXzjonITUoWk6VSc89BctuuBXsQ71mRTT7rN+N48ZB2/kzNqTTHKR6Ssh/FLfawH6IG5foXXSqQ8GnJNcffhps/hoPhVefc1K++Bki7zWhR5kSKMclN+ESk1geQHIZ1BMcvQbh2z81D+uvOGrdoENExBaf6wiuyj4VVeYJrfd0GADuIwzMApygTEmLtYpfZp4BWHsodJLOORULnV+tZ07HNKizTh6kWwYOhYcGP2Ov+MlecYLV1jpE8wPpza9ecDf52WhyB34gsEjS+UY0jE9Dz8CYSMGzl9RAMMzQSSLjypqLhIzoESG+QJdYAWv26HlAXpKBou+mr4zQ07ttphC/egHR9v6Fz9UkiRb9FYdvWM11B5bKfvgZzxDFwP6poMWU3LBc6xz2OMsGufakuCQ4FzlmpxpM4tCqsixG3phyoyr58uwBQbbV5x+Tz98kwfY7KdNLUlLV8RlvIhP0RQmskO313ucgJUtjFv+dkr0lU5TToTaHgTjCyG7ubK37/CRt+QKBburXfiC3dDmfVPz6n//X/+X7a/f+uj253/xBvmgWEvOXfwRmbONtje18n+pxr4eO0YC1fzeBzA26DkMnlPQYpqLNmCR0vdmrs2YK2jHUG3sL/dFAA/rnJK16MF3Lmq9K3ugU9sxQH/pmmNSyhEmcaxt8ikXoAbmLUZSpw0u/cCoiYtqjzeTTno9+TCRl4qwtabQFw3uVZN1Tm3BLj7kOZ/0cp8uRGyjHXAxIJBCbQPUDg54jEnbNKjsQn/xNvTAY2jDFt9BnqVNvhZPoLEwieW+YAw4bU5OFHziFTrD9OYrqpaLHBaH9hgS9+Hh9O0FRVkTGdTHV3inLgbZcpEtGygkAJvkpA9P5JtQb1NHeI84+pMuiYVM9AR3js+btWxz3QcO7LutK2QfONrP8C5dQzZjHD1pU5u29bsfWGR2P7Ln+KeNlLwsr3nwjc03dIw09trXIRc64gGdswFfmw+5uQIzTPAcDsF5AVIN74SrS8DrAODOmX7TQGdaZGMXfchlK33sDV5BNI5YmRa6xoPAJjax2ALMixs4ZNMHj1z3Ch9Yxih647N1iL4kWIjlSFJJGTa02MIL7q8DgVeJHNrOp4bFNuCxhTbwiUubyLJnRB61X741uvt5Wxt7ClCWJq5moI2v4MPf3lRsWqYMgMAve6E2z710OM2LDHIr/CcyRRhfj/6gd5bZj6/BR0Zk36+eMsI768JXDNzGHxHQ3nH10RaHNWHGCz5ysGo/Ka9Nrja/0CGrNjA+nzbUftIqHGKZc3xj6N+/5jXbOx97t8dGD/eLvuy5rrjZngRavNm4s2GzfKMB8bSp/WKeiI/57DW/55LHR2u0YysY3+K5poOGlWOcCvR8FOeCHBX7x9pO3tkX9JFJ6BO/eDzv0odJBdx8FVRwBSC8E29ZB77wzNp0UntS2i4p7CBglyi673VM/kSH1whIX/CSfyb/5DRG9eadtq/ekaG/ElA0gWNAeGlTLINBi0FP0/aVU+ss7v8P71PPOTHBq2aQWdxWUTs+L9hswKsCH+WEF0BkHWR7Q4EH/IF32nBsI/JYSFoGD92xA5r0qXMbELosIGvAmz9yuP2/NoeWgzzjlSiX+qhi4ZldXQJjwUNfbs0d8fSnHdAhpaaUcJlcQzY8R5qKuOiFi65JAw8FecEXZJcV64+6oYtd5lGMvDANmxxr4h6hqjNeseNcHXkrNwB0DgCLvMg/Rw/NGmvxhGaObcZz6UEH4y8fiD/zls1j8pSg/f2ISx+K5M9OLZtadmCx4WS8ZQd6oU05ygofddrQXtPtA/op5tPmvmD9mW3GoeiYY3veA5v6Sj6bguYR+hgD4tN6fEtfPCzzKUtfAKojMzGgXxtgjWjpKTtCO+UU/e5b6IeKFQtwc+ygCX/4qOX2sss88oFaARFcY+A6sNJ0tM13/Ni4fduFGOw2Fsd8r023dExaxVQbJVfv18kR/d1WfUe23JG4RNa4MV+5nY++4/xF49l5bYdFLxmm8TvE8lHrmoLW8D33LB8S3QPCs2k1xOmnBlZFX5uGp/OYQwglt/tpB0abQlwS33P9wKgpR9qC7u8Z86LTaHqMzvCxl2ofJ2YcbhwFO9QbPCLXBt1thdGaphEMXAr0eTWhFDReAZ+0Ew7P6rewYz86UhvvxA0kjNIHvF/WeaTrPpOaRFgvRBCYWYasLMDmgwbe+5QTGsnwqb8TI7gsKIhYbclMO3RTRWIfmuDSZ6OFJnRpn5MFLwkQmvBEJons5xeGn6bvSQNd9PpWcjMeJ2JN/kKCI9mOcpp1VTUtV1eKNEH1yuSCP4X2nL6Bu259tOFgHGIzshhtamSAg8bPGqBP5b5yQRJn8ZwrJ3wdvxPKhmFLaK1bwla8OveCR98sGTdgtgM8PCp+pw1Mr1wVLp4pq9vBRf8xHyLL8iU7vmcRiw4bgA3QSHbqCY+OwKihRUbs4F4qm1LsOMphgYZm5vbJGtPykA3v0tn+Hjd20wVH7JqP2jYN29AZe2y3+nXFW7rgocT26tU7sNgSfOrQ0T8HC546+idstsnuK99p3GN6jie2rHlh3yvX6gp9n3clX/Z3UnaYWm3yUznNQ9l3tKHrdVsfmXhZZTz1YsyIbvJn2kwb+I5jvqJvzQKTg58ba9YGz2mMEt6y9FYj6a7esLE29kCod8vVmbp0K57b8RQeGJzlRH8jgAV+HD9IEuvIyTgfafO1PeiMmzZZTiyOpL3mYpmiKOrjtQs9Le9f3OlblxLE5z32WP5k8fMI0Vew65RVgZMIBZAFkkGojZpJxmGAPtGNwphkOtEA59fi6vfSq++HERRPfy0smy0DpoSX8qoxbvStW3L8oYMcIyCirBUdWbKNH60BkMUA3Twslj6yzQMfslX4QRV+L98PlRmEXm45iVa8yPBDEqKfVycsUh6PNgLTLvonTDOJ+Izx7uUdL+6xwYeWkcckw8XFTdkhQXpBRztJsidFMdEHX9aLRUbc0A/s2BedZtm44HV8uo7u2AUteOtSOxPLk05wSvS70/3gj7jYGPg5OmApsS391NCsXBQQjsDCDZ5IsFGv0u34EX/B4w1DFLlHeetQRjxgUAkN4+GPawSLTh4w9EHHg29yv4HnhYzURjBeNDquNGM7n/2ig5KxCL+Bgwc6+9WwyPRoIaNleeyJh2CzjTw0EfsaYUiYyxXzfMxjuo5xxpNcNy28ek049JTgq7e/W1/roM0cqrlTh9TaRFquIpUr5UiARxFbOitagijP53yMXaYnHBwK2u6Ma2ysOaiHa+X/GgtiqFdyJ3PlBB+jVEffZV/c+I5AB5bnUeZ4xuboR0x+yIkDCJ+j1jEUwRVLbMFO2yE/oEG8b8WSe4JRbB9BJE7wOF5GLRurF1jxYUtKrqibor6FITJcs/6WbZ/E5poElB22yT/mdbqf+L8gAa99hhe3/2VgVK5aS6RGV2u30MilT6n5qo87vfnWRUgeQkYnxWuBr7CV69ya7xnM7XXsRh7PFqWPvc5z5Q7zmBJ9jq5k6D6n4dCagjir7cIgdMkGT5fDCf2KBrnJPsmBp+GjTg7UcywlDN67PZ5z/BwZ4bwfy5fwwqWu5FftX6gTmaU56WkbKSqNIn8kWK7QQlvqcb3+iB+t4D1R1D8p2bBJTjZXGT4noi07YZDMPo0gnYMBr9iZPmrQRy6XJwxwtbCJwYQf+UXXk5VENg5029owdFAqsQqXw4c3bNPXSfM6iUQfXvR1IlrA0DHBWRxMozf7FRvUB+8Y9qlxLSpj8bJfHBSUkNCXn2JGDka0TWzy8CdBUkcmfGljT27vTxv5RgELfnihoz1v75teNMg6WSREt/eJQkapZCCLAo3XI92WXXrwQwXdszBJKIEjkZt72D7tDk0tCrVhwcmtQWJUIwtVlcijR3veQozOFefm8UZPLNqmaWnaynYJtFRzMbbXO0e9gNtxmSSseSTvWIB74w9i5JZ9Ag5f4GkbvMsjPhkjt+GDp0tiQN7g8zOf+cztgQcf2N74F2+0/F1SOGrs6DFup4uNqIFJTnJgja10oguc5zR90S58y6v7zuRe5dU9cnYzlo7YMGmRyxhNWGwOnAfqiGXmA7THfIIncyS2eg6BULEP4mPDrU26Y4tuwbzu4WuR+92bM7wNy8cEdIOTYBlW9luvZMxivQIoTN4Yb2jMbvPzytiBPdB3vPEveUydmEx51Wbs6iM84gAdvImJH8YV4ZS1y1DGcsWOV/oVSE9QtSu/yvYcIDK34A2MNhtcrdkcCMhb5k3ZAw/rTzbLKcObrA4PjCWaiGs27kvJcZ94gFMfHDWvghrVvleb2LuI5qTGDvaALt7QR5+Y3eivYIcmdfiSR6krzsyF07nFdsj+U6vEbqkPAoJnu0SuL+20hMmhdtRui3fnk8Ma4AkQWmr9d8VCrD8KNXTByWXD2bi8UUmOolB4tb0xtDWhWZsytCqBY2PJU3IlyKaowalm6zGfdPv4pQHzialwy0bLj47iriSa7QpCbCDwQDjlhdb2Cp5+cY/3Gh25vU8mRsyLvcjqwRbmrCQjX3ToAc5hwpMGevnsRYFafQq/JsZdAK7wXcTLolNo8RNrkfpuDJvHKnghHS0H2/Sv9TIhawIHDlu+vwoPVxehJ2mRBS0uUMABq5o2RTFqffav22Vv+WMq/MbUnj++s5QcaYGegGJZMW24F07RsuCYvV1mbMxjA/na1q7P44d1hrVuDOnicbKcNkjwWhrgUVs4ah4uA67IdNZHwl6HDxqtJop/5RFXKPh5eaW7OR0XtLX5FkAbmBdYjbFxop10i/4oY9KpHV7GgRiSJB5XNNHXixz3oVH1448/bv+IIXYnR1PDz1UQxfLc0ptgLLhz3EGlP/mhzaiQ66EJPWZdKkao8f+WKJrg3NAb8nhlntCm5ODgzugv/YKhzzrNU3zQo0/vvLmQJh6/0d/x0p9JwNcORkG2757Jbg7KHscSHiXalE95yOfAUmOQ/YSXOGGb+Mhp2COSH+n69Bd9+vazr/xZ/daQ1gH9Id1rCptYrweGizHxTsyoE0c2W9q3vd7sscgBBzcz7uQy8WAfCJx4cZF2HZ26mq9dnliJkgRWcW6Z11Y6b2rTFkuPNXTetGmItngESy5k0218fu8hFoceNFoMVz7z1btlFTFtOaaR775Sh2nKR6f6lqE68xAe1gKfsKD3+qy1WvHUlbR9Rnv5VrVF6xCTjd4+WnDBevkTWfUZ4xOajluNIRYU/tpHv+S/k9oCAGSwWTrmhn/EQ5dCMnvySEZ4gyuXMWmXDw4e/uorDjseON+XzaEAWmSk79vgAJPBtFWShNUjnvLeOgpSC3fppY2ewKCgnzLxSx/Ig87Qe0YFr0iepQN+LL5dxPw8xWXB8aafz3qk25s7NnQbcfi99Ku/NjuQ0B71Dl5IaqM+1Q98lmNs54EAutmnnc16ys6CMeVmMfEdnLF5A4c+Y0TtPBFz5EAzF9gsLNMWNhv+Igv62hhr7LEzmy12ZdynjW4zP/V3LMmZJZccr/3mSOr+lO+26G1fj3/h+X8VdjFZMGZtggPN/WDLnOSBYkKJPNrefMmjUdLj4zF+J9xX8B6TnomRN3hWs3WsfmiBI0OvjD00K08aT97mQDBp6yNBFkdFXKG+3g/dJV+QNdvJFeuQfzkwTJngjoUnud9TmfmW9pGHi57Mx9CwQfsAKh+BrQ27mcFRAq883/tNdlJVlu8gx1NdxpDfIOACIPoTk8RpxiI4JIGnAPPajt223eCTOAOJPGN1pc7sTGHc6F1xBa6c11ffJavkqxUy1YEBAk6fdaBkseGe5irSFGPIVZKz1av34Cbs2OZuH6XuTiia1/h/VYoz+piVWJNcjXXw3a/YbuaV7I/t0bUOD+3bUUboU098DgDA2ODTzy1/4Dk43CBAccKLjfrZ2LPAAl+x93h04EWbhcoDgWQV06v2gK6BNKommTZYrjjZPH3bXTLhWbIUWyeVB0+dLPA6YdUkFa/+XOQgf1iUYrsNAT4xoWAwy3Yg6KXUZl520F9JTudQKgICMhGU+C5p9+QwnHb6kQF9L+r7BsNAtU7VPtTkqWAlgTeulu82sqKXduNoelGhQWl4nhEIbyZ8EraIK4HDx5VbDhU2t8JkNB4TH6ZBFonINMF4m8mc23mgoV8fuwz7oeF/1UI+d11io8cDOhWuRoRwDOrHT2yRMCwgyg9i49DrTXOsrigEEg9yiHvG3QL1dl0fCDIXyCfnJ/a1Pg4hoTesV5MlF2VjhZn5hXz64KW1ZGKeZM87X0p6BcX3CmwSV3r52CMLgxcNbDVFvSW+k3egK34nPOLWAoaP3KJcbY9mSfY2ro2d2BPLeZXm8ZgKHGv53wUJXh4H3FIlaz1PkLhCQ1HtPFLT8RUeifvYQ0dOgFdTJWPjOLauWLFgokt+pp44C+o38La7FSCrxBID4gWe8akYsbTZVxHFTsfL/DpMygPrNF6ULZcx5MI+n8ujPhs67XnFzrizisV28EDE4RbtwqllcNmGj7fu3pZ99sI0MJRP8BR7eDGNdlMUUu/4Hbh9g0Yv29t+Yk71hdr4imLZgBA+SsldHehq4wSPJbxSdt21t3KbPLjVEED2aJCCA8MFkjLDaouyLgh1T1PwKhXH0sEMpxBXru7No4MQ0PWUOQSaG8Ay9/BxX68hkF7GUgLIihRLB9iFPnMUW4DOOwH0JaJL5Vb5L92Gi096H3n4ke3xJ55QnqGrGPyu+GLAPj/Fp32jJEmsb9tGftdehHrTMwgL9WLhq1CaolE2X6Fi0fSyWVKavjr1ngUSWT6ZkCwqNZWrDg2aWOD+8We82FrZbPiJ2no6tRb9soKBVYuAts0kkeU4elKgBFg6TFuJ5UXXFkj3fv9DgUW7XTYWWRw4Ylv00M/TsqaRvaso+Rd9A02PnvY/eGzHVKLH5CdpUtC7ChMqrwBbj+1Tm0lomuBV489KgEFD4sAHj/UMXjZZy4oc2YxVsaxyQXEl5hVOXx2HJzWLAR6w4KAvL8Q2m/H04QEPLe0lA6SKIyE8hcWz/tTxYOmNf42HN23k4Q8vYNwNCIyaEhvZ9CjAoeXlcVM/tCbQG3EFxgvZaYfeeQQNedLeWp7oXRJMdYCQB3mxsSOTkk3dHb0NtoUrylCUP/ZJMqjhKdnEVdEzvNpoZzEk/8qSHgv1Vt6oTYlu5436GSN0HG2APiV86Suwbpq/Y0hsFEQG0Th4DKNnGPDCmQ64Cr4cS+KYMQkeeRmDtIOTIDcNlx5rkj3cRGPTpc93tlk8MYeFmk2+YJpj4Cy/zCWqfsk+eJ370kEbjNdmdciNpiy4+iW/D0TYZduwj09TkYE9wiu37mIbdgoDH0+qM+vSRwMFvRSROldpWI6c8J0DycKferHS0zax5YJABi8+/nJc1HNsACqvkDftU6doBdaHUUUrmOVknZVv2Kot3f5w6OR/Y6SuzUx+ewOuDRs5zifxsUd47RKglk0pugTf4ycd1iYk1jvOjmXZgJySVb6VHdhSL2PFixSKdSgOrNHcaWbkvNYIl3lKBFxkf9rwW0+jqDw+DKlf2Cy5cGAfMYFJtT3ROJif2PAKv2raBUMbOEl54Uu+RnAADAnOQQakTdJgY7ifbIdGQik4QTvODA7j8xZ59Kf89EPHAIK3fA84nGXTTX2ue9tPvJcd9RS5ppdMDE3kHPX5DKMBcPEgK6B+IMPaTvjDC2aWwIGBO9cP3Is9E6R1sajPduSGLn34SRboz5UjfdHIEkZf42M9sqyyQVgmJFXL4xsDjGOuBllksqiaUG85UBhu5pIB3Lx+1LWosYcD1PpcC9mVOhHnRCRb0EVZchuWfmxxTX41Pf0swvDTprDhseFQWza+Coe8KQvawGg7Jk3H/y1946byQiItwwT1dsLT8NgRGwa5m2wg4PiTIv2hrmDUlPCuscRsz96M0z714eFrRTcU87KvYoGcyKVNSSzQa4cMVavnaDZnxqLGnwPWrgtyNvvTwr0TwfVKjGm7MEaSzQYnB/z5PLq5tZn4h/RUS7M3cskPMXWPMWNlfYwx+SeUZQUPLfHFR2iJV6UHQsCelIwfwIyvx2vIQ46/AmYYmV1y+Opd8Wu9Y9fbI1M6BMLvuqAgJj23LKfzQjRc+eEDc5KbcvavJPg9dg2QnpamB71sEU/916T0tdnorhafnVumbE+5przhT9gCreCFYtb4KDqvU5KkQ28+KnM9SJc8wZBvvWO9Qo2/XaQaXzi5OB/kKbSOIUTESv7wP1Ly7QWuNCmOoeTKSfcZD2iR49gUmUC9TgqPTK7c/TGm8OYxt95aLt3K7o6H7FkPAvaidU/eoldljkm1BXQOUGkN6rjDn5JWtN0P7r1T+c1n8czR2kvHPGyZ7Il5/gV/71loo4CvY7gQW35tUQPLQKWc9HvgGGQGfw1uZpHqBZOAyFkwPlfeRRN5DyqnLIwlLpxcofe1RScYcoDlj9+fR4xNb/vr+4DViV58CC/tHBiY9aGxzPYlsNQ+rCh4MdmBRNAondKClEWhDjy3v73ZEjdZjb+LrmNnupOEkDz8X9pRWhs+djARYheYKvKfGC8u+oVJwue5AZ9sheJqkMBbnu0ret5Ds9teOJL65gP1xD38dfta1iCnbfTEHhZmknk+MtAU+bcOH+p6Qik2NZVNUQu56DNZkIP/kZf6Qhuzn1do2ZZFjNgsFRMedPPtuo4xvuXwwkRi08wEt7+tAxriHBi5k0Ic8DmbaWy8o8UGH+Dhj+LcUdPc1Nhhdt4aDg9P0QoHnW8jZkwki7sLfF/Ycjm9yzZK3WESD/MPOuuU0FXKZh+UBfPPCaND/Pw+P3fq9C1Y88OCDMp+CFD8e1R865gYiMbxhtBm1F0QFnNMrjHUFVSbUVEULQ9QETf7j62npTwqKH74i0ZctbBpUbcub2HISGmZ8bHkLKQagzbgrr2QShY5kfwC5TyTwnKhbMBg4szE6nOYQJqPvv3cAsXB9ap91gGHYl/QQb7IFz4q8lfh8EHynA/c5VPfm1XGUAsiJHRZG69LaXI+wUsu+Vs6IvUT/tJhOMrFy4aR/yb5GptROQXW8sjz6TuzsD5GxX+9yC35RIyQu2RbAuKIgYoDvwv3cmQaIbAfPYqhb3p7zFoAExQ/EcBe4JysPr9uxwO8EGCTEk995ZvVlC81JsVXcUEZ/OJp+v0JFu03RlX+YUZtytx5qDECnflMOyUwTK12rUe+o+axrfGpjd8OWXb4Ioca86EoKtmg8Uc/+xvF+4+aa7wxVAV/bvKRtMY4v81vuLEl1weiIvdYoZ/7CVIqKAi18/DSmqUtAAXEroJahtSZsQmQw2TRi6IQezGdiVEJUq7FgbUYwsGgHP6sQ7PCySfWixsPWL752vYsTkborWQWjxd0m0Q69h+TVf4iM/pdKyAp2JdXFgH6a4GDs4NfPBVZJir0lNzmxy/KHjtoo2tMXlPVm2/16wTLibS+r17yiw/eeuFf2VR9Fu58TGBJnI71chwEWDZpRXYCYOvwGx7biW/AealdP/d5tX3Of/Gfbw8//JDkEAt071fQiZf19ttcFBI7okGMvFkO4vSPEyNxzi1qJgSyklvEKDEHxlW5ZcjuwKdMj6PooI3syDr64G9GSA4xiYzwYDp8sZt2YKFNPzyhAQ4NfWrwbA5s9ryYf94sFGfWZg4QrG7kuu+isfiqjV3J/8ovYPUiw3mx3wBjweQAcSzFJ/Eak8QY/SdrgfQACxwcfDxpPL99YJuttfOVOwLcOev6Um2vJOIjWharucRMxFzuIPgqjB2hi+WTp2yGihMvx504qdCecTXwnjsR0tXzkFhzB2PyAfMYIVIqFFUtvNpgeClmdTHBzWAuSjQGks8LiM5frnXqLd9UA8dPam4v39Ugstz6VvOASdqC3zFNyb3S3Pe3A/RNmPAgz20SAl0a09IhW7GZuPjFxi6zRUPsrxRLXsy7vBRk3/L22IiGA5p1isY4VciCvu5WEBhyh1fJQ6aSSt3oxa7Gi47t/9p17Jd9+Cm074fYVmJXOrSom6ZsF7/64HixI9C/I195EUdk+aMI6WID15d0xe+REV5+6aE4fPdDtYo944Vv5CBj5rGV5PoOvASoMIfzmn3aHI6RFfw+R+qqW8I9h8EHF9rUkWmb1JFX5qHPi8MYxTnoFnGv9YQ1SAiwHsApEyhzOwUc6wF2EAX/8ywTgmAqlusU78CIhM8WKOhAKTUT5FwhjhgSlRXcMjQbTxZdKEteOZc2ExE+pj3KDHdiiR4mk6tVbN60oAFJElG8wMpRL56qkWU5WpiQyUJU+iS/WE7eLU+QGfB77W7bCIhLZKUvoMLkcZINRVJ1sQy6ZQUy8Z+rKyYSA4YMppraYoltZU+sl0+5cogucRiL/yzIkoEU/ocmGsSAh5y8oNJmtSVSg18ARY5AX9te/7rX+7uzhpGQcgxbrnshqYMG8Qo/6ynt1FiDJIr/q8gTXOnhCW07KRoSuzZyCWqb0Unh7gO43ApEh29j24eOkeRDzokX+8s/s8uOGjt6yVHimdgC929USwaHpvJDwuSfVLn25sqAjGL/jWasSkdkTvmJAxMSfGgjij7F8Y0O2bI2czsmXtGYVuSOjH2tNnDG2DoQ1jhfsXQbsPkkz37JMC8S4sXGzCPogKcoNdUHD8L/1OjYmGinNWEYVXNA8dVay/PdQfG2JcpPjS3+AYGmmuphkbTI9vrlMCGWTfBou2NdwijBE3dfeMDYMi2j+UJjtK4o/W0tLY3kvEZdqm+J77ZCp61JyEtv+uUb725hn162TkEsrACGVS8+0NOs8d1VH2qsmK1MRfR+OI22bvuWLUj1yAjPoZiutrgKhdp68FEgse45dBIzMLFJjerOu9aVU8Sm4+bQ0IbWnbI6vHscyze/O7ZqmTRKSh/2cRHORpYF2rsHKpxAIqCIUBmuuAsBqWS6f/jMj5wed90dHa854vF6oQ0PM7S1S44OB8jxfsV8QSmEOnp5YYVyL2yM645nkUlK7XX1sFo9C3OlExXWkSX90za2d5e0tyzT8dlhtJLjFU/JcqwLztxNXwY7Hs6CloPV4Fm/HSfa4PSPu0zaxqt4wRDSRXVOIPQtEFwLPcGdMRg8Sqx44AMvJfUeozLBcIh2NlFqb/Qd3MlLO/y0w+u2+MRIc8mKDgP1Bj0lNRsf5tLnFd0m6jfg99MZul2ehKnUgaY2wUmDHF7xFd0pdeUuXvxQYV8npmxolLKtFwSnscF66zEk7ZS4R58LT1yQUwpRQSg4oZe6yNhlgmdR+feveW1tuGSP+Lxpr7GBXwnWcUf/dW6/qSC3PjdCb5XEyZPSIOJePmcjRVa1y6ZqF3826shpsaan3WZIJjYR55IRujmOwHJYOCcPfi8aGoOJT45QJ9YTP3UEjy5oJt0esx0OPTZxJ2LKhz8FGZEbeemHZl8gSi+3pY8weMi1+VWwyJm0yMzcDpwamLNK7ZR8nBe84SzkPQ6Ga5PPHQL3lZO14FK3XC4rM3Zd+6tLJGBfdCAbel/uqY01yka1tAkCJwGTEBCr2GfhwCf+0HD3QO54w7u6fFKXhk9sz/7wD9k+7uOevz37w56pW6TClYiSo/fZBwj/2SLC0N6XZjKKGFHw2N7F3UDD9dZzeeYD0JSjOY5VkKrJbcKUMukHOOiT+pzO8NvuE2p1cvUV+DEQJwrj/SJWo9aJqQOsx6x5ab/jsSe3/+fVr9te89o3bE9qvWL4dZ/RgsgPLngvdFjyZl9Sq02Othyvv/S78BFHYicrFm9yNTjmAyX9zCWv4WOtgCa0jCFteCLPOGDMTQZIJ6SY4z72sznM0gO5NveFkyBu90iPBLWHgt29zeTHmTox5+pBQEe1yOEr5fT5vh16fStYkWW63WMHk07EnoAxglFAl7wwj05IVgPheT900oJG+sHrVK/fA7GtXHHxOWwNIP4IJxuXb+qTbIX3OU/xa5js8IlN8SCALDqOAfz+Jy7V9QAIsqsY5ibD3/pU+0qxGIvPWBG2fGyjEAtsKJskvgVyFTsX+ToAsIDtNC0YKWhSHHmjFTtY54pn3+zAQZdS9OnBf9v3yRQDErPHx7NDjJyiKdeVaN6MtTgyDlwdoreSUpFkEHsAj5stffRg026XQF3QW5urxkRy+MuksHzR0e8bF+pJnsJZctVrWyKPPiMSOfTZQ2CauSioZCAHvfsYR445Gg4eOaWLOOtWIvdszxRwueMAn/1bZ7XSw5VpZZDi6blUNth28UBV7/KV8KmQM21OAfQeu4x3HAoVeOylzuJyrJewboSXbsYhNOFlDgvp+RicYcVUcNHUVXtR4AZx8VzuTX1dxUtW2nwccKJXOP2noopH5faqvVErsHyuy/jEEOIw+7LDsRSYnLmmS+ab13WouvHk9tVf9WXbN/yP/3T7gIcf9rMcPFfKVajLuZQILrruU7PMvMfSsjymR7nwCwb4OOa7oyBXetxX3dP6A9c53eekvSe6I/6cDGAxyPTt6KTFpw7g8l20kNco66uA5J7G9V//2u9v3/Xy/217w5v+WnvRg+JjndddUebqwbHK3aEIGV1M23Y5fcgZTW/POcnk2JC5hAbg5BLrk3NLeNMIxg/drItkhHWZa1n4tAIFfTI/Tx48FMXkheHaR7/0f9gltxLfapThsywYkRRdLbZS2v3cWvFGbs+LjkWRz4x5WnsdCFowPA4Mrre+6EntCVir7jLHG6wmcpU2/5KwdaAP8tCRkiCHdsItVzalcIt7XTnLJ3/2IeQ65TdhbXg739RnEqF8uuosZJFJIRlmH3g+o5+6gdfi1IsUpyRtpqSy4cS8adzot9K72zZpiRYbJVfUtaHGrp0e+S69cWMvn0Hl6m89La/bZtf5+onwxIMcWUX+1gOUWnL12/ynBfn3wjwpJCabMzxr05fr+fGGJDT4tanQtkwOI1yVYVPV0KXN4pB8QM7JZgGhSuw9yjCuc9ab0RhT5E/YuTEmrozNydh7PK3WExV7slgADe2EFXXhgPOXn2kNfWhST/7QTFjieD9cFqXwTDrayQ3L6XVpzm/sSN82KV7Igpeaj1a4W6GO0T7kKE04HGeOenx94NYyyjigV3nMYq6BVBQUWzb67icjyDbKtD1t4PyXoL5VfvcpzcN3b9/5bV+3/ff/7Et1hadfldOfnwvy7V2o/+OV2JhY308zdJMm/eMMgz+xiKyjjvSDn3IDu18d3veF536y3le4LzB8AVP/T8Cd7eZ2W86+9DP/m+1Nf/24ckNfpxaMclsfacxnRrIekEEUcpirez5DKZzgY4MninwkeZvfFOg1IDLgj5zICk361BPm3BNs58OO05HyRwO6IJx8mbPIS/viWR/1qS+H1S8Zx8LMi35qiwenF3D6Hjw6hugdnF56A7hq4mA5gsOXwgJBPw8L+HDQBMhGkzc32tjTirlNiR72NvMq8GxQ6IEEWstmgouXlx9IW8oll88araMelsCQWjS0capTHqhWQ8NqnGUbIWIWFTtStNYtAJ+VmU4y7AMIbPBXJmQjsgRj8UeGdUlJ6RQcvGmgcwTU15+Ajq1k+e6B6bSoEQsbXzJ9YYxKn/TKfvi5OoWMq78aw/RJLGT0C53QKbYkLDEGB6+TXLFlLCnI8bgKV9wFx04nFwug7MV4YKHXTtu2SIjRcg490PWfBKilojfbhw70ig4chadouSOLrvpjuQ+sdMBbn1FSI70tNbxssl7ptky9sZkbbePU5upg6I+NrsXnz44tWbbINy8UUo8mcsBiLB3tdqng3fZ4iAwLfBBTXb88hZ9aWIiB8oWUKVuRKU914CUkmE4OgKc4H3TVWXDuloCQtdbROWdLysZiE78t2GHYhR7bryb8tlXw8BB7bPJ4W49NaDsrvpYoQz2iZQSCbB+1Y8QdCvGjDoWsBdaPIsWSOQ8daERQyAf3sYYG8wl58NpC6UcPqUAiuwjTsoiL56jg9qd9gYxMurh6avusF/+n2//8Hf8TZtoe5q7/P3AzWOB/tLeZp0+nFLpZ0gd6fE062kcd6ac+0j9d/2/C83Ty3hcculPIKdYB5tFHf/QLtl/6xX+prxc+oLHX5NF8dY6wcQtvNudo5WOt1aQXOR+ZyhsJV8paLlEtHaJgQtJRgZ6M5aIg9qQOvuaTyf0WnoKUHlaNkhiZMtu6ZQ+INgvZtRYWt3PWk6v6fnfCKxgQcgKnZrPMxIYoJ/daPFv1is4QRpMJ1w5PDLKx0lfBwnujYrPSiwdiPFG1gHnTFyM1OB5w8u1MxiZeU+ONK5yUbPUJdm7j0ecwANWVv17EEtCRASZ70mdQwEDvjVhtryqt0IMIaHCcGoP61q+6FhvRS6h14Iv+LLbl0K7li5bobD80cdLgfquYYjN/xJc4OpZegHY+cBnT2piL17e2/XmlLMFWjLMqtUlSlQVXO1+nMkJv1i2dyORlWvjwF1ld4ifd5AG+mUf1LIxxxtv+K0Ye99CRR8jWTPXBTsws/KhFHm0KY0aO+tAnetgo9lF17gak38gTu5Gxxp4YMvYRRA2MDVY2Wqv0eJ4QU2zUK7EhHmWZNRVcTeaPbYHefWqNpWTjctxGV80T71SF6yfFwSXeOw9RL5kyZOUf+kI70wpaj43dqmCtsZJtfJySOY8+F1X2S3GmDj24rB3AKsZli6cPsWDAmodtl7F26XkBT+wBR+zJP16hBeYxFh4Ya8a6uyLnPOcQrsItfBF5WJinRAQbk+fQpN3X7Xoy+9b2X/9XX6hNHlnyyfGUnQkrTO8vf7sjoA2cixSlk5fvz37pp2wf9zHP81y6rRHlavzKD0l2Trc35B4HwqrJF5XkKPmmvzWPzNP8nb8txnSVo8ogkRRnJRD7mLSE1Lh0dmggVYce3f5LrZ4LfdZD1c5yJpInoGoKSe8nTnvSrkktHM6Cd2n6itzB2cah5CQIwMOHECZlT3QJ92JJHflMWoylpHaIgGuymvYgz8R5U7B9AFFNmbbbL8nx/EcedvSrJrpwHM/QQyh9a6balklARe+hH7zQ+gXMZcgOrnl5WrhSRzQsIVwlqkW7FuLSF5nAwJpitWt7gScybCs93WKE9iTm2KSY8ecFVN3UKxeggU8FHM8tUJwn1VBYCsam0yO2aLJQooeEtPzW6R9LkZ8MM2ew+txMutp3620cMD/cxCAlNh73upIrWnkCbNAAj02pbQtKsUMvCnatnABguMbdSQEA0BgDYs7zBMQGuF9qKxamU9+btZWio/R4Y+DSoboolrkisugGqoIu4742E8HSdo2N+leHGmygXzCbrbbj37bBU3yyzW2pL8cWH13kwcfLhySJRA+0PDtRi1FggoJXOeYOsWVueQHCri40A4OHl+c+MvrFHGfOMyaBuSU3uUPCuuTNHbc7ntBhCzxeSOW3D2XwCJXsjC4ZAYd4PFtcF6DeObRSxL59yqf8I7ff//Z3NAK60KlNuoaZ9eaFL3iehr4O5ZV5+3ogKjla6wnznHW05v/Bf/YLaJNL1KstCWvtF1/DmReV1YX3XLCUliXS4KMNzBEW3LEm/z03GgGvjjW6Gu6nkFDIKyUL3w1NOgLjvvD+Gs2gmzzwHvuRx6JmvJxHFnTRwWTL7fJFPxqm1cTLwjxQexPbtAiwODFFCYzlE2DsRb/ayOAzPYJhuaKlrv/3neDvg1Xngr2PMi+WGUBoR8HDBJmFniBTqPl1KfdiizGdYrJZA2H7uCrx54wsYuKhzx9J4yu4loe66wrDAABAAElEQVQvOGrZwlOij9vRjBnJaW4bJgLV+H88Nxa6bIW+CRHZ/NIvPhbl8gGMtOGLCnFeeMFih2+JNk15IWLEq/iAoLZ/qMI0JQOcNwBqOpKG1mu6AgPuos0++jiEsXjHltA0JQ4XT+xoGSv3CtvvyNoB9rY3SqCOJ3hkSB7j4a5ZTvVYr+g8THnSTyTefEhQFb6SWFec2pQ0Zhnf2Bwb6xAsBi1Mzo2cQFApBT5UqI1YDgjFNxxxDDUCjhuml63IZc7Uw49iVqkz7c7rsSh32+3ipZMxSMzpB4Ys1FRuOJJiqbGivnNbn3fydFqXklG5mYsKkZWtMsd4BOrF2LLhh5+NHx7fERSO+cyVmYj1dA61iuIEzZ1Lfa1NXXxOHNoxwfhIo2x61jM/yGxmXa33N/7uRKDGnVRI+eAPfkhDrWeMnADKVZE4x5QnJ4VJS/GEqubJe/Cque5ADvnlwqbh6aM+7S7ZF9J3nWnW68EJbnRkaclvebVG19xyrreTtVeUen3zRYuTECaQsH0x0UTQYgr8jiYRcNr5vjsLVGDYcGzT96sXIdqzcEszsKkfGk9iR1wOtV7TSr+/fwgOeK/CODQLtMj01b5qFoPEkDa8DjRtivosqrk74AC1zLXYQpbAynbLEcwLmeDBIS483nDYtDtx0BY66uj0Bo7MUVisQrvA+CGf43c29uCTAAw8C3wSwHDCoD9gJXs/KGWBA86LvnkkuFrkh+QRt46f498w9EcGbej4sxzRnMiDH/k9dlKwF/j0ohSv6ELbcMes8f4oRXhy0vZpDGMjfC7Nh73FW7rRv2LZtBk3vK7CpjnGBRmKTwo48gx/TnxqAvArx5e+kq2oSHb5Gpux0XMBWsmwjZK9dNgu5iW2kwsly3a4rb7vcMDdGd++IeNCm1a+5uUxcmxKxjHutr19z1jEzvQTh2MfuxbMHxPt8xM4sikPPHjTm/GyRfbQzkdA0DJG07bytTbffIUOPN6ysT+g/3uCUnGvq/kGANSh/vbKvZt60NeFGPFSiW4sdHhUy2JQ7y9/5yJQY4rZjKFSybnHXLjkgU0X5arnVXePlXK5flxHvOJnenFhRK6l7fw9rN+s3b4LxFzQfOXFE/K8PEXVRx6Z5ReyPYextewWpdvuNw5YCnD7IgBzwXMudJLX2R1yDgdi0YLsn6nshAdG8aZJkAiOjHT2Ny4STmjBQcss4dW0XCFz4g58TZ2mKW0tMfzpyonSvy+cAizZ2bRZBLI5AjvR0bJ8wGh5frpZATG/8Nl8/YMYPcsjW1hLgIa7DcCnLoKevrYDL1AwBEYs4DGdksJtfGgaD2rHCp4Msg82orEdpt7fLEuUbBplnejcrh6LpBdGNmT97Vf0jEvJITmykGaTh/aeIjr+KOE51uB8S4yGE7r961gCtpSO3dIjPBrvkde2+WBDmw1i2Bu7kZs2MuIntPwUpqWTu6M4r8Ez+/0tDFugdh2SKu/VFQ1jl5JcB8ZG7Ke1hTQceRA2DxfuRd/zATouHySOz7R1MeGSOeFNDR8pyKBIDyAOM7YCW/TyfOi7FxYoUsPAqW0pkpFNlbhAxyEBm3l+wfMFeaNUPApQPNWe8aU9+1B4LrW+KaP07YdKf39fdNCgPwe+yIvs5EJpx+WS4av09t/jq/atp/S/kjGXNMYseNA4Fh4MhTIrqoR5jWuhHWlFRWOJT4I7HWZIWJV7KGLL++u/3RFw7rSJpEUvs55zDCWftq7NofNmETVf8nHm4VyDgXMHjrWaTdw55OQpAeHnZ7uZr/ThoWRP8B4g2H3Tq9csKCo7S3atoXIh+whyO9f1s8ScjCu1004f9ix8qQPDSK7suaVfi1Ypg85XUoqYFyqBjW9nTKUAUDzp3NrfpuOBejFrG1kEbAsLgnRhx422w/ToAU6gFHDroJ8y2gwEv5WuUHvD9OD06M/BCyt1NtjU6PLiRIZIZ+AeZAV8Lm7IzGCmjuy18MoW80xZZ4Y8spxIbT8m2Af1kwChi55jTZLxlyvSXPEn+UIPTf0r2d78BYge6OBJIkNfUe+xaFzkQ2fe3tRsR08I48Y4xYZZsxFE14JLxywlp/LFD+DhK3Y0UXzkoSlgzqtTEab3k9XwYBM6pm3dR9eaB8BULI+G+s74hq/2kMMM7DkJhzc750FoVJd9/bGYqcRDzNDd9bTvJPdFg41rIzc/dwHqQbQZS/vSYwFZcHN8gdP3pqx64qCnP2HQs+kvWcoPaQcsWNafyh/4ZgnPhEGz4i1EYuNfXlSfn/D15j+ZRjvxLs2NkN2SJGbFM1nC4/bvL383I3DmMMYQk0+MtLNMw0uPbFQSnfWTCyYXPq9qTu8P6jo9mILNmfW/u3vFxr82aIHF4wuxHChsgfKfRQA6wc/ZtGxtyZxVKdhznDe6cj+fvEwcNnsuKbzxjAnnRUMCMykRnoWEOp/hz00ZGibgKt0On+HonDQCTnmLV3TLpqEPvOXRYAAVJH6D2BseQRTtSRENV+axgcNABodgYT/FERp2eWBBIE9wbMEz244eBgf9+mOAjhs5ff5YkO2HFPgWI2zwqsQOd/TGYQGZlNCQINf4wSEV5KCLTZcNlDYFWvRwhZaN1fC2bbXli/9sP1Dx8iedJE2u5IFbdomXCZVdORxAW1fVJtztOMiJLZF/bgFHFyVJGxpUk0sTbr0dH3jA+2tg8p1RxOb4A54SeYkreQBllYp1ni/x5gEW/9Bj2ialPXQb2n3zgZ/0IgAOj3UKd+XvaHO7vcY5+NZQ/C3TET/Igy42Lh7/7znlhxSJQP+UJ7ZFssiJxBCe5Zva/i167BIdaouu/Nx59qvwe/jbVuC5YqeNf5ZH5ki+/fQIEQ/pi309DtJ4T3H+479WwtjM1wcNEr+fYdB8iXzrYF4Rgy7EkHld2dttCwjFfWrCuYu5D9H7wX8rInAyTtUJiOM2ba3eqgNtq5MrnS/OSaHqY7LKmLV2NI3zMMl0znnRZd6El1RyQYZ08rf6apDn3muwp8u01R8TNI3nhPSjw/u2fJq/NulNuRAlaW3S/dl7FFBn4nhxGhN58teUQSGTsCbbcdOqyV2SLUvGLZmRO2vhCY6/3gI8uDYu8lhEHBicZWNU7ZK66eHPg3R8R5mPC7J5I8uLYWgnL+3W7UEQTWr4s9nCin6/GMQuGaTUjKsHCLxkx4bQz4NUYIsXlpGgSZLIsF1tO3T5ixzq8E9/TSc+4k3SeGF2Cu7JVimJ8SXNclpXJoUxHSsnn7SZz3L3GWEdfTCpJN3jNWWgCjx2ZaKU9oJbjgBszLEhh4/QUUN3UtrGe2CC+6CATjYfCrT94qDCmK1XUTiPyeWpxTqhFa83ctES8zxA1qxnK88LMM0/x8q2HLjmZ/rFVmOYdvzPZ/dhZzMOjjpt+4JulcQ9uIxF6CODvn+QJsJH3ZFcEGREXmqQ0bUIGxaa1LlSX58/SveeXcUNLlf3kWc7pDtrR+D//9Rka0+OE4H3g52DnzC+v/M3isCchfcKWFHXGs3aNAubuj8yYgNWntwvH80zNuIpg/biDU3qIyF9407tmGRs7OQ9a3zq4NFTF3neeCGsaeAv7qtNomeTBUY/NBGSxYbJkc07t+kLxyJRt/2zObF5hm/KAYYOrpY9ydQXszfeLIL0oWOYfPBoGkWtRMXmtifyXQ8ab6LiXXUPZh4cXHzwQNe8RGgeFOC3Pb1p+/8Hb5v44RySxAuw+HOo8WAwIM2T/slCvQyQvtAqyOizzcIv2d0OSxa6iUeGE0tctl/E0Q9f4hs/IwsZRDt3Ao421kgU9ZIhHgq8+QqdAR1H6MDxD1vJC/RaT3AaYNvbcXd7XdHtuPg66+WDZN/gzotq24kOtSmuGZMBg64+A9coczdEPyfJy37Bxwt7VHuilyDLu3O3/nNJd8Zb8tg26f7dNb5XiwxelK4TO+sozD5HpI+4J/bIdL958Sh6lhzB2Ogu+N+xuLrlyjj378ynDQ6YcP4fpYSDBph5mnb5Lnncvs9zOCvG4udZAkQmlsFd6uegkWf5saH1gUkcmD86XiuuHR+1iZPvdzashnGfh4wftkUnfV4ckNbYyGbwrE3o0FstmLq1quXMxQcq8Yiwxld0/Ccc4Pl/0p2mwkFOnF1WI4D71GLi4Sm9S2/9Uhq28CkUHwTqP9+139VGRtESi3pBU7rBzBfUT1fw2/EVUfLmSH+kmXThhWe2jzImHv770UZX8NRPR39Oz9QVefejW3CC5sgR+VlYyRXnaz1vWWOD9pjRMbNzhrv7dW82RHud3Mv/vMf/NOdPA8i5UdZFwZKvnOKis8tsa0IbmgMFudvWOI+h5abcNZ6zESU1z+0AYyZf01hcl4wbLK5swBhJye/1usOb4MA8CUn4LiwouW2tnas2W+E8kVSD19T3IDIRs8l7IWoZoQXnzdpJWTqCu5Qjk2e2W4xthD442viFXiet+m5LPsWBpM2Ex04tXIb7/fAmfIaJzww5nPindGUXGyQ62XBp39EPsDMd0eWFsOWiY26moUdT2ie35UWfMjfzkYIMoXWhb8LRfeSh7w0ae7k9LxoKvK6FZ8JETuBGDrr0Zw1Pbtn7Chakw4oUyVTs+aMN3uMhtcCNhzj0bYdFCE/JgkCi28aWh870Tdhv6EAuJfXxqj0yGTtHApl6sUk7Nt0PnRRZHjbUxxtlWwFrbrjNm2gtV7TOYXglz8sDuP7ZSD8DYPKSDSvF81D0LAaWo3bmAnKwN/Kh9yauPFuLB7qkx/FVvWLUvPDYRjdKX/RQhx6dd/S/8xEPNkH7TS27ZgEPraxFcKHYxPUHBDvsU7eRnxdw5DE3gFGQFxvoO19Uk0Pg6FOnhM9179r2RwSmi73MARJNJfMD3ZFEbVuy85uy7F8jZNwY+6Y5W5mMKPDfwOqhRTyQDXev39netT3lP/16vfRfbA+L5gNU85903pEybOE/xrmhjQLP39eSmBCr5Nk5GXNc0j7SBX6M+6QjN+6nJ2OZGr7IpP10csGnxCfq95YnvCe1wqm00wasQPuf5spIaUaMXHPcNV4uZmBgDmPBeqXBsj/QUJol9mqymo89xjBkAIMX4vQZ67RTW1zZw/5QMsWlzZy/slNEsoG5yhhwEck6hU3jgTpRKHBcpWczx1YmLhtlFgBgKRPOBk0BlmIeJqTk6t3y10IlIuAU46jHpF046Wcwa0SK3ky8wS+8F5duhw8c8pjImLasEn34/FQseALbtizZ0FEGPJs5txwjD91s6baPK47+DNy+NG/ZUH4wIAwMAk42fK4oNKhe6Bh82tJj3/B/0GdxwjzkYT9PS5attbBatkACFpXkwZeYgKHA77r9ddoQux7PE5qWAcx0erd+vZN4/JFUlimxkQ2cxPNnvKVMY6+FVTrYFOQlxIbhA1fQ8FDmZk3fCY5s6alkB1q6vImXO9btDQ+/GIf2r6jrfebigjdtZJN7njSMgYp58PGgfy04U49k+UAg3tJFXMVLXqInZdi3NungjrX4a6YVAnkVk/LTc0Wo0seT9U0tHZ6H074huza28stg9DQvfPhLnzGkuN+yPOcSd8O6Y8r9DZvm9+mDqc/3nQW2kbwhV8kuxh8+7qrFBvzNVfeKo/UmZ8oPYhGffateaOQyko4KMTEfuSd99hOrxtjEyPepFr9+a5z/y5yprMBt79we315z+03b77zp321/ffWO7cnLJ7Ynpe8h/YLaze2B7bkPffj2j//+J23Pu/6huurSxQa3K+A9H8qntcZzXLIzfueIk7/UvCjlf/VXXJs5NN11Ffps7GsODKLwUU+ZtLEv+MFythl++NCHrveWdwoUu+wgtH4jw5gsJIDrudGbD9yhMEe9gfaGi03se7anY2kl4mMNL7xokIVyrdfAYr8PCLZIMYmutsljyVxYCMlQGzvtg2oODvVfWou57WWT9/fckYdxmURzg46uWWfCTBg8+YyejX7ZMoh8dao+/JGxrv4HfLCYTlGwbdR+icCLVwcSWQ5aGOmrAF8b6Dka8RN8bJgbZsTcU6NPcrzMq/ZCER3U/HVwvcgOe7Hbf9I36aaOZUOChy4lUuDUacMXOZzkPFEkG+M8qVWD550ksD3qwR8bwYPLn5NGMBbU0FiPfIoM1xprkpNCv9XIRVtUcOGNc09myQ8XYtJl6Wh/za8JP6+0Z9t2iT+TZU2O1nWuH5nR6v60odvIdAwPCw55Zl+hw+euvQnT56XifFSN/LSNAOdG0cGfDTy2JH+XrbKBcpQDLHGkTts2HOywndJl2disgjz33dvfMpZTXzbxUJk3Y9hAZPFy7JwEzPv2tuHhhya08RscmzT9KsQ6YZYk5qX63N72IkdHBXoOI/gf25EQuZGXGh7rpqHS6eaxdFvy8M/zxrbEnqL/G70zh/RH1v/V9o7t59/yq9tPv/Ffbv/39Tdsr7/5tu0tD71re9dDj22PPvDX218++Oj2e7f/ZPvn/+Hntn/x1t/c3n79nZo7HHu74PZ8BX6fmphwJfd1X/d12ytf+cr7UFW8Ej8fvOX7O9/5zu31r3+9eX7kR35k+4Vf+IX78r/97W/fXv7yl1sXchy/AzVwXm9729u2b/7mb97e+ta3bj/zMz+z/dZv/ZbhK4cPfMfurVu3tu///u/fXve613ncz+k68pztY4/yKYX/90PJUWvVgBvfGyxJ6FwCr1eujB07+orbyjXRQk9Z8CnX+VU4EzWdiEtGdDbSkgJrOV4/BPOf5o8/8gU39Qi/f88dg1C8DNsnWT5HB0fCZRHw1Xq+oCs4Dx35ZN4wLwjioWYy8mFE+OHlQMDtp8DaH1fBe/DFTx15obMdbTd6mZKerHKYydyC4sjyzfY0PT7dzWem+H+/Ag6ZqUW3NqcBS+B9qz82MDhpq158UwZ6e9Vh0KJnbsbEwLgDnz9mgL+v/h0rYkDMVcwj2Rxi+FWwuWpEHnROesJGGBgu/YHHJ9fdN94MTTPiFh5ErHg1LcnuCUEMNP4n9pmc+OJ608GnUjyCd0KX1sLNd9MJYJ8kh77tCBFjMGw9sa/5zNM0nrDYQhyBTd7ZRj59yXf4Gkd7yROs1KsWnPzkadbogB9ajx38ermN7FHIXRYXvrNPWXcBSrj9tb3dh8a6urY94seYOZ/WFT4MKumbF1sKbHhg/uhJssoHyZRNnofYqBe6KNbTNT8IQonfyEqhbbgAtrPpIgc6w1t+dBhPyBoPHQU8uuMr82OWnm47yLad0pTssnknfE8t6OuZmzfrmv2V/+EXt9ddvHm79aDWMN1+v9A6yN0+onqNq1BdZT118+526+ad7Vfe/W+3R++8Y/vif/DZ24foZn15dV5fLD1ah99/9Ed/tP3SL/3S9sxnPtMbduI6JSWWX/iFX7g961nPMuqXf/mXt1e84hXbr/zKr/j1CZ/wCduXfumXrrHkEPCHf/iH2yd+4ida7k/8xE9s3/Ed31H/OdcQ7ripH71PPvnk9vM///Pbt37rt3qD/77v+77tB37gB7bP+7zPMxf080AZfq7S2cg5rPzUT/3U9rmf+7nb85///KHpfWwqWMSL2JVtaumOq6/YSYgkelGQvBDaf3+XXeTm71zlitq2OnfaFtqd1/EDXRkvU036Qeu1C4KxkeO/r/oFQ7cCwrvLvj9IOsuUoF7H2dy9QQNor3wVq01XEvBJr/ps3Vf2XHUqMe93ZY/xWTCoLVsPk/Azo35Qz1eW5SIb6jKsHZ0Tnc/xkbFOaGobDyxt6aOwSPJd9zu39QMW+kx8yemg4cjk8SJSrPUuvPaaNSDQZ3DchkqyvNgS2IkXaspmAyKGywbhE/C1CSNPJQ/ZVQ86xTaDysSnT0p0wiUW0CR2VZeEHBpCB39g2H6pDM5ka46odg09/2qLkl8kFbqExQcKvcgFR6EfHvqm4fCmP4rp9b1jfx5E7PSPK3LD1V9yaPPX43ZiaxtgmR1/6KCZdL6NL3hwkWVDWq5twrehx22b1orMIF+ysXffFfop8HfbNqgNfXkNSn1sCa1Z1BOMnOHP80pt7CYmwF2axvKHHvpla9HZPhjCpzobM3pmcZ4KsHTAIxroZ76GJzDq8KYNDb/mtmiIk8oci/gPJjZPPLqdq6ojBxnoOnf7fvIiL33nqWLHx2V5Mt/yREPBPy4usiT2dDIubwvWPIHbh3Tehxoxj197cvu5N/6r7XUPvk2budY7jbFWqO1Bnh+UTZv+d7I7t2/puU3ir/+EVA8h3rl5tf3bW3++PfLmV21f8g9erKOAfi5Vw+SP+++j3zkmhRWHq+2JJ57Yvuu7vmv7sA/7sO1P/uRPtj/90z+9h9PjISj+feZnfqY3d2C/+Zu/uf3VX/3V9vVf//XbH//xH29vfvObtze96U0ev8/6rM/aPuMzPsObPYeHyJjCuZp/y1veskDQoOPRRx/1+vna177WGzRX8D/6oz+6fdRHfdT2whe+cPvJn/zJ7Xu+53tME2Y29h/+4R/eOHxQkMOLErlpUwdH+36FOacEW2gyRDNKMMlscJ7BOvGPAa1NAkWeN17P2NNUcmhFGnkdWyYN8FXUdq9hqHZO9JoaG337HRg26zUkWFTWd+sVNmupEqqu3Flg2IjZgGVZ3QbrHcW3xDqg9dUaDC+HlqFnGtxS4/9Dz8Tj9+nhz+LA/9lM4bM0LxzDcfc1Gb0oCJ9NsW6f12d+k8cTU4cFHnajLJzsruASOpX2w3X0BVYUDo7dC69cxQd0ZNAtv+kZMDbOyOapRfeFJ9AOvmQh07ZogMCTZMFl0DMwwMPrZIwubJW+DCg0/EET+gmDzXDF3uOgK5fQIwM78ImH7E70wKc/80sfSc4DKEw25FHMq7hELwEKjwn6DZgnIrolh02M4okqrb7tbrfIqxqn1NCZV3CPAXFWwVY/YNK2RC98tUEql0U3NwxwmRhujzGzUL2ha5Zs7LHHeGiwc9BmYwbmCaoaSR4XtXbdzQd/itqRH9CqQ9e15Qy90K0rd7UzJuZvnsxUzzuNF/0lJ7KgVZu8pkCbeTpjCG7S7Jc7Oxwaiu/U9eXQjCv84LCBjfiBmyMWxWp8NuQGrSqylg/CBIY84BT/8JD9qFv3tlvOg2WV0JJ3UtxNPMjZzq0Toveyw9jfuri9/f4Tr9lev71xe/f2hL65oR/84qE56fD/x81I3OLqqi6YHnpKdl3c3N5x9cT2xEOX2+8/9sfbJ28v3F6wPdc22y9sav+mKVzx+r+1FpAc+IZv+AZfubPBP/DAA5P0pE3cvvIrv9LzGsQf/MEf+Or6i77oi7aP/MiP3F71qldtH/qhH6r/KvWjTfOsZ/1918xFSmLtTr/94i/+4vad3/mdticPeWET5ebNm9vXfM3XWAY2I+fLv/zLt1//9V/fvuzLvmx78YtfvP3Zn/2ZDxY//dM/bd2PPfbY9uM//uM+sCCHq38OHSlf8RVfsT3yyCP2+5w9oUuNzzwYrdsnimvNV2DJd6+96p8U9T3Pst4EzzqtNn6QX54rwZ0IOHQYQ2RSdxsK1htPmQN5utCj71gMxyfZM4uu3CGuwQLBw3Rsoilsa2zmuTVPe16541Q2e67GcdRXrnxHRiX0fgpfM8qTTHA2dUqCEjgwB0lyDesrcdr5TJ/A+AVxivAnpYOQjXAuUtYpYnstPpImm6Dcq0LwtSmyIfOXye5NEYoEeeg1bQIs+IWuVqde2yJ4DgnLD2Sgj2TpBMoEysSgn8OBEwIbdDvJvxUuG9lO2EwM1iZMgT5lyqWdvmU2X2iprQ+ZtreCwoRkg/fEVB3boK9Y1ZjTd9Ewwe+XfHOcJRPZ2ErfOPT7H9NNf8QCPv6IjUrsdVs0/rnFxhWB3kXqK3fh+ZdNNzJMl7fJGxgiWi92qGNMJpRx5H/jvPnLVg4+1iF62267yeOKv/mnvs6dXCmA9wGbMW5cdA/TFg5dpoO25QJLzgS2eMFBF72KO3lpGEQNDwzZ9keoRdPCZj5D5+//CzfhHl90+kCv3IkuwUIHzQMPFC6wVlEV9qrEDtpr3racHACwg+/qqzI9fV7FU3PQtGwoJIkKIxN+A07eiuYE9D519DO4ulL/N2/6ve2pB57YHtJv+t/S1ypvyKSbiv3tC318wUJzXf+BjR6ueuiJG9tnP/sfbbcE+ldv/r3tST1L/64Hn9r+xetftX3tRz5XRwLFTTnn3yMot06sYU5S8Pmbvumbtt/5nd/Zvv3bv3373u/93u2rv/qrz27wfLbOBsrm+vDDD5v/d3/3d7cv+IIv2H7oh37IucTn4h//8R+/fdu3fZvxzNc3vOENa0wSYyPH2/Of/3xvwoxx5jj6uOrnCp1b+rOwOTPOz3jGM+wDBxUOFPT5zJ/NnYMCG/2v/uqv+vN6bvPzbMDnf/7ne3OfeTJlH9vMSd/hkS+EMnkw54eS1GzMc9Ygncycw+hYPouGn5PFP16ey+QsL/JPay9rotdF9W1f45zH5Kde1kucup/vry+7Wzd97MEcb9kAeq+xTd0GbPvVv+GnrFHqwuJSm3nqRnjDBsarfvSiFiL6bLps6DWpBc/n6GLmf1mi8EC6HXdPbzgjvTi1nBU4QXZiCOeDBjKgE57BMM2yWQAVJ5Fs8CEEQAI5AheYl1z0d/L5Z3T1//pax6RHDkoly5u+ausWyDIavT5nVEBjN7LyHIDIlu9JDke8fQC292VX6PFZ9mRjy0HFsRMNsckP8FivkozaBZmyx7zdBu44oU0462xHViIXd71XsN0mT7xZosPBqMSHr+zb+1OE8ejXtwj42+kJf/kGjFI45Z/gbZ3h+IHdJpPRiWEzaXgiVzTNy4GMAi56PcEEc7xH7I90LACmld0ee+Srbb0OWtvQMsyPb+Krgj+9uXE1iZ+NQZ4IVz4ssGNRVrPpLB8nbbfnrfjcXYCezZRnKpIDFRdpaD7mWt19YQxlh16dLdVvY9BPyRU2tJ6ngnscms4x0pdr+XofJXS0lf1ACgaAIv3rq5i09YLHthSFddKMHnCxA3rjugaOrQVXjomWYr9bvpD19VXPjc4FYOJznAXPqHlsNG7YWZIsDolpvFc18t745Du2d1896Z9L4DvHZABX7LwuFK8rHcxv3rjcbj71wPY5f+9F26c/9A+3t+sK/w+vXr39pW7VMzDvevwxPVV/a3tYT93nUDINiFVEhfHH75e97GV+kI7b48C48uaK+VhWfg1eNvLf/u3f3r7lW77F5K9+9at9O/0bv/EbLesDPuADtq/92q91G4LE28T9hlxyDNrggeXOAps8OA4gP/ZjP7bx0J7XJNkOHTxcPFBo83k/Lzb2l7zkJdsP/uAPbp/6qZ/qB/SokRv+NuFpKz6+feThR7Z36/8g4MtNZOqKhXKi5pPmrA5jcw1inb0uXatoTaIsH2UrxXMAuDe8fVyso2lMyJv6zj35LSOWrIXvRuIy4UsvvCr0rUO5JiM0gbgt3wq5wn7kkYcd2Fu3nkKXXpX22bxzhQ6O/xMXVtqZnOBDe90LpHDCU5CVyZxJGj7wbFShQTA0dSu/bOAdev8nGy3Lytv++IGsyAfGAoCj3uj6NMWpyl9nK0dsM3wULyrI1KsGvZ0s9Fp0rE/8/tGLxpkfmV3WwgNML2/A4OhLvhNBbQ9U02QDz4CahhTAJrMq7r3YeNHrJMsBgNo/o+taK4T+sWl6gwPWvEjr4bVc95sum+6yRXz5pgPyLY8FSn+hdawkxD4q5qZpm1vlftiwRvQrDp2Its/ylAf912QalGo5gaHhcIFfbQtY69PkjJwkf/qmIcYqmQjg+ONfykm/c2DJyhiQU2pHDrzzQOBYWBcfh5Q/fJcFel6XfeAl17zBQAtO9vu2reC0KWWxm6ZxS7TOoebLHYp5UMelbPzmEW2NFcHUy+KRUzaRS5mPnqe6bekEQZfGCHIWOOxNuZRPd/XFbH7ZkRgSA7mrOcJ3bpsOvWhUTVywYRasue4DQuHJOWh8l4irFtlKpikylgGv46saWzy/dSmTC4rYR5y1uHkTFaN/4MO8HVG+fuefqRXQ48DaJfvZfOWKStlZ1hvwXr+R/Y/e0rfZL7RJaK25q81ZK8X2oJ5lfcb1Z2zv1OZ98cCt7ZEnH97+s7/3adtnPOOTtsf01bif/fNf2t5y7THdMX5AJutKVVf9b9Nt+o/A+6t9g+Y4Yut4movQM0ZdXvrSl7r1a7/2a4azKbK5hyYb4eOPP246YgmO10MPPbR9zMd8TET5iv4DP/ADt+c85znGP/jgg1K361qEo4EcPqf/7u/+bo8T/U/7tE/bvviLv9h3EDgwcLXNw3587n4uJ5Ij8MZe8oEn5rEHHl7OER0koON1TzkDEqcOVUrSp/Q5iO6o5Pfe7RZylVP8P+5SUOKUj9DwfImL2lyNUxI72ux39Pm5c4q/YokI5GEfMOa18sx5p49pPM/wEV2+HJdsyZ8Fvlq1sx+pL6DvFMCHPvRKv2OgQ4VFCe6jCIsDyffud72LTLEBELLZYgyHkLp9j4FRzsTSaabpQ5sFAgO9eGO8nOIzdv7fbeTJPevhDsC6PQ9MxZsZRuu1cMjAARYgxdXBgEZw6wOHPtnrIjj8FCb7Jd6qn0FxPWigs96uoUUHpzwWDfSgOzLpr9J6wm8a8PCAazz0lrEY7+1Hrg8ffcvHnw8pTtz+hN9pEv3I7rbCKoHqMtgqXiQBgceMTkpkz7LoErrmh8bj18Rpo58JQnFbct3vkEy6ZvViTXv6j15o11Wo8EyO+Vm6fQUefeIp/dhWk2lO6sKVbegL/2ozLPpD3jk+JohpE9OmDQxeniNxzGWrNVHr5atz1UWrwSDspild0Ve6C+/NthhMq7eSYyn1Fr6AkOkiG8HRn3aTBpRFB71zQHXasi3zmONQS6x8Fa/nlGrk1106JFa/Wvu7N9PIb3DproTwHBDcMqFr2sDhZ/aWnuKRoUtB7AwA2bzWBpCrB8nhYDRLYuAYJjCS7TktQn6fjAXQFwyCY2NdM+5SsOhU6o67f0vb7523y9c7WuxrEWfde8G1D9++7Dmfs/1fb/532+899kfbSz/sRduLPvCTtnfefXz7P/78/9z+4vqjBEojwoGQbx7wTSLmfBUWdJ09anEXqNbkYHdr8Dt584IXvMCbe2Cp2YApoaP9yZ/8ydvHfuzHehOl/xu/8Ru+Pc7VOoUrcu4IMI+Rw+tYguPwgOwcMr7kS77ED8ZxW/2rvuqrtp/7uZ/zA3RTf2RNWMb5KW3GyP6gD/ogy6UNjtekj4y9Ptio7jve/s7tUgdH/gtk5qOi0C+18KnXSmTER3S4zfh0O7jU0IvINkkEwTWIXCe36Ild8D6oCl4rjoizd5mtdJ3zy7qxWbzRa5GtC530wXlzr11fgdJp3Z+NC0khIbNpM8noT4W+Lcxip5M6Qtm0Jw+m2zENQB6cK8n1Pn8sBwi0uQ2fQUUen+Xnf6DLomB97RAByoKEHNqmkzzoUkIDLskBLjIXn2Do5+l7NiGXyEEmJTXt6Ou2P28JX8OozCPaqcfwfgsfhw9Pkk4y4D6gxIbIIoOyaAmnUClH2CCq9o/rRDYJwR2LPjQAzgZL/CrJ4SuG5Tc4y1TCoU+l0sfNis/gwW7wyEOG281Hwq3kFI9pRJFTpw+ZTYv02DT1xRZbYZ/70DNiM+mRjVzKhNPP5EAPNNiWjRJ82vCxqfuJWHT6VTL5vJ2DBjS2Vz7WqVr6RIeO+B2d9lPUwVMH50a/xb4JCw+5xGjQj27oyWXnecv8f9k7u9hds7Osv/u/P2ZaaKcfdqZFKy0aKYUWKShagy01KsGvEBNIICR8JcoZZ4DhAAwJATwsR2iQxEQNBkloIxZIQPQMrRjBCu2UVlpQpFMppe3sPXt7/a7rvtaz3nfvYWYKBxzM2vt5n7XudX+ve617PR/v+3dssxDSHhh3Ea6UFM1L07dXQEuOeFD2hMv895ycPveLn/lvMOC5as+41PfAKdYvVX9mczeL3cDRlX8KegbJUKWTwwbkyialv41TfIFsNsT44obmMFf2hx/lM40j4ZrRSwzE//BkHQufM8bPuRHZt/QA9Unpep01UvrfePjW6SG9/f43Hnvz6fNf+prTY7cePX3q7idP/+ID/+702y/8f9LLIyq7PyX9lHz0YzY3lqajhPRLmfhTY4HapTO343nL/Pu+7/v8MtpXfMVX2A+MIb6j8OLc5S377/qu7zr95E/+pGPjtta/d7/73acf//EfN+3nf/7nn37oh37ISR6fxm9mtT74PvurX/3q0w/+4A8a71u/9VtPvuKXH7hi57v33FpH7ld91VeZ74P4wLDjRv/P/9zPn9CH5A68NvR2/1LgGSq5AJyYGj9Agg+BRqZqXATNGo58XxSxnqnuNU7n6u1+6YRvufvj2J2F1HNGfD1PoLVofQg/JWMxjft4wrv8IeamgpUFDpHOXn90dsE31HVoHgl7BCWBVyj9KAxzBrLTITy4asdRTEQM4GwD1N0zNCTrnoFD0344Ue8Rzvk0zBNTxou3ddH5QQXZlJ2vnbrpBI8GhO2dtmG7DvXFnKGrfyxE7WXz2G148dXoHQLTXtKPrMWT/il7Qi2Mc+EOMOSMrMLPcLllJJ4kcSdXtTnzEh96cWuVBLkStfuEM//Kq/3wepCcHc9yxGfRtFNDh38lzZC++NPuBv6eAMCtLj0D87/MjJL73DEFtwXcy7J4qA+54COXo5PU3+6gPf/Kw/zww4wVk4nEb56MheDGmXrp9vOuXzcN9Hviil/j1TTiwyJT3cCp7NIgk+KFDl0G33MBPThUuDI+4w2QO1lozNRSvxfIjSa8WUDDA5KnK5176ZdOvBGkg6tPUug+J40zenkOjQ3A0dF3AVSHZue710nWjHkuRLI+YXv94ztdw69fi6v/Gp/IYUllRfNGTL5gBMsDfn+YQmJ+6UMvlSH5OVm+Csz9iff9/gdO//ZDP6sX5u6c/uytz9JLd586/cvfeMfpf7/gd/zNgas7bEbYRHJRpcR+Tb9dp78P4HhkuEetfSU+ov5c49e97nWnl7zkJSeuoN/0pjedXv7yl/vrbiT9Rx991HVgJEzsxqe1n2fcvEz3hV/4haev+Zqv8fPxb/qmb7IA3r53rMmHDyq87f7YY4+5Czz49439L//yL3edF+S+7du+zfIe5OvC+LodX82j/U//2T/12/S8ZEdB3x4GPNuPmd9+DOxN1/1zy4/EnPfS54su1tVtPlTHxlZ9Rxx7LSC2x6+O18a6bFnxfDl4woHvzhuzaJv/6ARfAYPbcQNWGSHiThYThQUukZMrd0IfB8KAgeccWM5J6iRtjhaekYvKyoPH0U2Ak/Mg1rjKpM3hq3am3TigeMDRoQtFcS/lV4/iub3zkgz6mOTWtc4Y+ZYHDBoR96t1u9NsIYElHB/Cg84LaBVQn8uc2+fz8C8qZ/ThKN4aXPwJD2immLPaojA+sr1o7TJV74t2HgdksBOd0mRtOtHbXyTnvV/tvVjHhZEe84EO/QFJXRYiB6POFC9MUwfvrA0CDm3Z64INV/fWJ8CYLG3jM3i2LNtGVyfI2oIrwcWfuBZejtOxfPxaOL4vZ/hQmGQ8R/ekhhttx707jV994geTWRa1xWdxDl2+jiid5CPrFzIk2FbbyxgvVatZdAIdW7wIbDret6uX75LRxBkfNG5GXk/+wy+6bcl05HEaXvY9YW6Dz0FE+Zk3RMjUQfEcE19oCjPcvfoYPM59t4AxLS9oHJNCdX3O4HuzQj+xpHPLpR32vca9OP52hdpscnO3IJRs0e7Ib5WHv03jOxvl/tzOJPdXPPSo3la+ebopH/Jugh5Mnj6pH6p5z933n378t951+vV7v3P6V//rp04fuPZ/9Ca9vv3O3RTM4YKKr8zpqv0zr16g46GMF2ExaljHC5V2+/lq2Vd/9Vf7hTXuypDcSbj8UA2JnYOr83e96122Fdp97eGFN378hmfwHGwCgFF47s1Y4aNdJn203/ve93pTQD/HE088Ydn0sblnw8Gb8OgHH16sKx82Bvx4DhsC7jrwnB4Yv0oHX34ApwUc+HFAXx7tf9qzcHGk16LZoJi+E0uExIePuQOUgRHZzPPahoxL2Y4jySBuHfs6u6Cj+E5D/kaJmcwD5dRxMAgaHff5euiYO54/yAA2+IkUy+c2DUwYjK6uPUcqCrcv5+zIm7iDpUktPnwvvrjAbaDOfn5eQ4cAmb2yBxR+06lTXUFtd1pxuV0PDYVAodSpxZcyhu8fuTUdx9aZ4JcHNIfswwZ4mO/ODJhkL1r6NpkkVfdd8DeLwWvQFGaN6RONC2cdxpN/qfv79Drv+jgxhOIIRBargZnfDO262j5L+lKdBVCyHVDEBf3Vczg1gZot+qhYxjgNWhevVqn2s3LdJlb4N5Om+kuq9aCPOsUTCt0U0BkzetQnWdyKhYf16sCFzLTlW71IpH77H16KedtaOdHI8Ou8HTu2VA8Y7nV01CBYjvmDP+YDZC5UrpEMO+wKDjTA6ORDxWNL6mE+SYr5XvAOpjXupiFMiEnu0GgRlo33LXyzka8c91uGs71lhzXy4qNDMXrQlCR03Bmg7jkkvTvnBbJdTeDYRJ9jlrP0I/lgu8eVsw5Kz67ro1fslnE2O8GARXx0eabPC6Rih776YqaBbFBNNhI2HGtsif0thuDz7Ms1veH+8OlLHn3d6aEn9VKdrtR5rMbt0idv3T398pOPn370g//29GvXfvt0R3F7pcTOH5S5rbfn/Xci9Ljh4dtXp7/82BfoV+e1kbSnN+ncbsgQGIgfaxsvrPH1NxLoO9/5ztPb3va200/8xE/4a2Xf/M3ffPqyL/syP0vn9vaP/MiPOHmXljPj4DER5/pqk3x65JFHTt/5nd959pJe8Unk/GAOz+2/53u+x79c90u/9Ev+6ht3EL7hG77h9Ju/+Zunxx9//PThD3/49Ht6x4s7A3yl7Qd+4Aes6zve8Q7fuv/e7/3eE7S8/f/P9VY9V+x8ha46scnoXYTav+v5TPUuE2eOxGbiaP4pCBebyl0AcBUgPYBTd1yJhxqJc2DyKTHeRMxysd+9g7bxfyYHGnhNoc6KAC8fwMXfZYcBUEznhToZwRVeBjnMaFM4d6IFh8VC+1AFZa7yjbY+5hsAbjMRfftjeCC/uoBQGdQtVZ11uhcA2jowHD5N5OBfFjtw8FcfAlXMawHvb68u4a/F51IXIdkPw9M0xSlMbZxuHsPUX4kYOAPnF+NoTyEYsLkJrvDlKHgPvn0Agtr208Cd1ITnt+QnWVvuMHOCYIxZsLwqMPbxTVAISgJHMMAc8OYKzWU2FoKZxyQzusxbBMB3nr5S6mCGSThttNWbDtcXfuQAZ1yrtzdJ4PLP9rI0I1deJEm4qK1//KfAFx3B9CIwHZ4oWhQpnpSaDKUB32XpExzLHD9aBrTFVR3Y2aTFX3siDVfjUYW2kxnaJmjD1b+3d5ugsS7SuXMImvAcpYkb89+MEAx/ceWOubmCl2/U2P8iHnwc68TAKtT3NnEb2qJYX4n1OJk28kq15hZjJyLLgBhc65u5aThtwT3/wdex8B2XcEBWubvpD66KuD0fjMChr6+62YASXR37yJM9/KlX7GLYDAr5c/qE0y0l7L/0Ga87/ervvOf0W9ee0Jvz3P7WH5LRewRP6VfoPqqvyd3VLXe/x6E/MiN0iWeNu316oa74/9xDf/L0xof/rJL7xOX48z5FBPcc0RkbSeq/8Au/cHrVq17lNs/Iv//7v9+Jlt9m59fr+EU4EiY/VAONfcA8E48jtvBXeP7wD//w6cd+7Mf8PXWuvHnBDjqunr026+qZ0h+e4dk635kneSOb77GzseA2+8/8zM+cvv3bv9368Dye79jzBvzXfd3Xnb7+67/ev6pXuZx5Ae9Hf/RHT/xcLXcRgFG44udZ/n71jk7PvjAvcDoFugfQEltn66SR/VEdkUkdP7DJYTzhumYdOqHz4FnKiCJO99zkWEcTaOZ8l6/ScuEiGAehbxrqOixn+COntNA7uSdJoySgXEHnilqTSwaiRPs6QTKpYBYHcYu9yZ4ranXMVTlMswjBo8bAv7I402aNhh8yei6+b+tjjJgYF7PU3gt9OLmltFZeuHYGSsCDN+GZyNOGjnrb1R8cbnGTJNaAQTOyPZDTdoLT7qaTpXTosxYsGuDPefHENpINfId3kPQ5bfxaPelzfRLU4lmiynA7PBkqllXLQZRsSlKVH7xgMoYE5hE4WVCJA6mtWDD+yHB7mxTmqz5kOBjFnwIeBdrWnYysg+SJuWnwseostp5U0I1MP/eSH1iY7XMSi45XvfJVXhx+7b2/5rGTBCTqH7Ijz7Lcij71GzJd5kQ9lAegOOYh1mf6h/q+T2i4VY8tXYw66cp/vXUvak9a2dUrIBju+OYhleBr+omH1q3bGQ3zR7qexQA8gcEdvXRyRsHFfDU0tzeJf259+xbiQeDfbGDGdj2Ai9A8PtAkvtWe+gw5aBlTI7sZXFUZS2yyL6bd38yHj+diSI7P2XDueuCr3VZilQKMvqM/8SCNgqDPPudHrnUGvwyGhx23KJ5d5YY2UC8/febp77zmr+u35X/q9JFr+moc33Hnn/pw/XUlgzuC3dWawe9A8Pe4H7r7gtNn3Xnx6Ste+1dOL7r3sIVxoc5uA18FQJuaB3PZCYQEyhvq3M7mVjYvxHGFy0tufC+cq2F+Cvatb32rb89/7ud+rpM9CZdkyU/W9hk5/Cjgk7B5Tk7hF+i4EueKuz9Ag6+51c/zemKJF/PwO79T/5Vf+ZX+ih2bDq783/72H9KP53yV35pHLzYM0HT9QAb84P8t3/Itp7e85S2nr/3ar7Ut/B79448/7jsAX/zFX7yu3jvW0D6bklUEzMQHNbzpt+UnVtHfcOnSc2E9I7cHMDa4vFQXZrOOTjw11hJ/4d2cZNtFv9tRf3S9os9l9NpzlQhNaxnun6/CNZmGMok2MAwn2Sbh52qdCcNA5EoJvBZunaEsysCfPnbQtFuSLNKin0TNuXy4Ogenb7WWrl+La3s3vBsBCxXCWmwG2fJlRB1Iu4nSKHbGJGAAasPDb8uza9LhgiPA1WE74KkO+IHfN9HbLh3UHgiYgKeNhTdAtKfAz1cb3PpAzl6QOWXxUXv3Ad309YrdyRC9gQ2tk7ES6PqFvIHLGNWQ2XM77vdlefQMpuuWJW84rrPJKseDmyRYVmiAY4PHZ/i4rlXW39mWTr169XloubJqeeKjT5w+/omPH/5th3CKtU8YQ6VjF0ranjQy/RKPBMfzdUonM3S9Oq9upce2K71MRhu7DN9o4bNkNIbEDx3AR0b1Ahc5hg3cutOhUt6qHEnS+Ol/0Ce8Ij862iZgku25qzj2z7aq3eJ4Ew7f8+WHadjoM98o1kHJ9oq32gPIWVZ4qEQn5pkf4kmMd9549RCs/jBH8FVI+vb9tNHBdGQ//L/vHATxFdCh8uIp1OgIlXjFZ6L39lBAFZK6NxmSKcaCZH0T0P2mc+25fGg89TW4q2u3Tq+999jp77/mb53+zQd/Wt9Z/5h+W15X8Lc01/VmPi8F8qt1T+l77ST3m09dnT773itOf+81f+30itNLVyx0HomrlJi1dVPH46g2McSV8M/93M+dXvOa1/hq+O1vf7uT5/5dd664+f77r/zyr5x+5X/8yul973vf+rrcd3zHdyzOr3/96/28nN+Z3+cpP3bzoQ996MTX7HjjvW/cc0X/1re+1fTV6W1ve5t/P54/ENN5/lmf9SrfXeDnbUnQwBsHELdN4v/Gb/zGEzrR/8Y3vtE/ZMP35jm+9Eu/1OMKTeVRPy/EVFeC9tSjtJn/F/TElwI48VKanAtDHgft2jXcCDrBeNciNP0GR0J0AjVC/XiVuUKM+1Gr5lj5mlqdbPorb/3NhZFrbsMLS9tm/lz73L/6D3UnAQNRlkVmNBKidFdJkDf5WgkpThJuYl7J1TQMVAzY4V4k1A8NtL2tX9xOqvJFTXSmVCa48ASH4gnvGrpGLrjAK69M9gEIiZjr/7h68SKIx/BzPiPn7DQOBmZ5VTiOO0NtA28u3S7xNnr7iTsgKuh+n15eiNT5dDwgbB98qe9n+lvapzaJmk2KX25ykAuIS8BNFOY8uE7WfPmWtv7whXHcp7EKlfv6Yd68sT8TLldv6d0XEDkpwNmg0EA3Su8AePMkm/aNBv3FKy5nCvDKjU97K1+a4uOZRMYV32skLm6dbnSrTz7jn/mN/fTtZY0bwLlK3vtd99DYuzI5fuzkZvNQfcGFXyd6F5nyg6alfZf0hRePc2Vd1ml7PMq3MdI2CMQTZYOVpvMwCMenLRw67HGh/QAeTfIHdeZO57fnPz8IBK1YsXbtNjb+9jmXTaNIWLyVYCsjnpek+YGha5/66On9v/zTurWZraS2JXTqOPy863VZN6bdo7/4pl+//M27v3f6b7/7q6f/8tv//fSJh27r52f1dTfN4TtaD+/duX569PTi01959A2nN7zwtadHrr1Q0m76i37ZWl5yf779rDywhosKM+nq9I/+8T85/fN//bO6Z/2wH72UT+axYkKx5B+xmY59fhR3n2vtX2fFdOYscZI81DzVOdH1nx9/2v92C/zbV1mX5z32wTWP7b2otcaLML8t7/s+zFUUYueqmxYy8ja3gbVwsTNOYWdPgk0CbWLuGZy9TrtJlzoJiwJvZIGLgiR6chVy0LM86AM3+Jl+7TOj+bBDNCnB64bjcvNQXiw+vXJmcfEPX4iOAk6/T++2cNcCZIzD+chCo/KdbgxeVVfE0wU4dZ292AgIDwo6mW6jrZ3GKQ9jHzqYRn1nyW2TY/TS9izgwi/u1seiZ39qoXTiFv6VfvCBZz/qcOA6lwmv/SyoBDc7VI+S+V34YXTvowrrMAsldUoX48gpgTjiMIrPihtVSex5w/zQAz/Co3pBUt5o7rEUO1sxMsGxzUrs/QEd8MxLJpSn8cQbWmxtUjAcP6rsiYV2eMif1iv2Qe9iIwQTrfWRz/ZkDJyCPaWxzwbuvq1u5PkwT/FbdDM+O84ZvccLv5yX3kbs+LofXMmN3hv+8DBE/R2yDcPVxjwNePRu38ITn/p/n5ueO0WCvw7D2PyxaBAmXqe40mGNYvBikbrW2OyxATuucOjfC7pf+mLvf8Y6LmKjpjhSVGmDcO306muPnP7Ui7/o9JZHXnf60Cd+R79g9/HTbeG9UGvtKx5+8emVD7/k9AJdwXO7WNfw1ikR8IzSnkf4gzzAQBILM6LU/G7S0Kw5qw4/LxduQ9kxJLzGIySFDbnjClj55JY8AUCuQzhhmPOqT5uwRdhl/FkB6wzFUYh5eCHLNDqbB7iqu/9An2fuApBMnNQ1QYQntQ6RScQsaqHsVT54lwUevbLOHebwbb34bBC8Wisps+NmAWRyoiA8KNBQ0I2+bgh69Y+h1M1bV/PwYDsGj8vb+MDMiwkvv3uhF6BOSieOi93diGBLdbIe4oNcDuDIpL4Xw4FxCAdr4GqZgpEY6Ft06Fbc8rct4j+MV4Cp37fcWciGxu6CBwXYfk7r7NMLXPH3nsLKQ30klLX8SSb/KE2abmS4lj3uQ79ZXMG5XFThQ/LpRW/7ncAsx5xHDjLHLvNUXbeJ7U/8wZjp/5lu8FAfvomcjBU0yDBMOH3xr7fYyyPnkYn+Y3e0or00kuxxwOgILvwpxHJpLbN9YlC4zzAEv/2qF98d06buZAuexulsQ7DRlsbnxol9ddi0cBj3bcypZxE77BhzFokXGOYstD3o3fkAv4Sp33NH44Ctpg+WaTuvDIfXrpvqxTee6JDAouxJpjprSRfbvrwKDfMInffSDVpHL3MtOmfW7tjPoS4WXCeFH8vNAJS8H7l34/SZL3jR6c+8UHsSsbwpRK71KHcVwJRt4wAAQABJREFUK9TQZ16BWXbR/3z5o/EAccDtbV3Zeg2hjd953p74yVddkXZfzIgGGDGWnKUxU5uSdZ2FiBgyR8frWueNBSL9GlrO8BG9Y7Rn9+ajcFrhg2zwia+c3Yc8s40urAs3SJiU7HplpNq9Pd+rYCPog0U0iuQFHBxBaUJ0Yz5QqvDy2/tDm+QMnHxHMf/eagtI+uDAaehUvnbOtD2RJBMY+FxD1mndLPAcnyu+0gvVY1AH7lftfiZuhNFpTVUL9KCEbwazujjZC8XtjV6gLEQ6+5b39AGvfOrVWUa4DowCvOW+5Lzxgs7OmnOTpWl3vDLreaNzch44sryx8GYM1gqu9nHVpDaancGJPJA4X5Tyhq/9N3ZZT8aGkGWB5t/Qh4s+G28DDy/hqu1EKPp1NS+5bIKiXZSAZ3kHQnJCpiaJApCxK47pbGsCc+eDrZGNmSNb570A5zb7ubwDg34KfO07/M8z5bVROHBX/4Cqc3lUB/Mbf5bafTPu8KEkcQfDPCT6iC4jeGzQ7ZrWAy8RqAuSeDV5enMVNvkUf8d9deCM7JEPErT9mVj84wWy/fTpANYX/MxYMMucDW+EzVyZmOhaxDrWK3dg2Oy1oUSjA3Cu2il8zvIjBfnPmP7hiizhr4qmaO7gQ353HJfwbPWmbL+lc8IgMcTbzXazcEza7j+cKs9Tbx7Ar8xJbiJ3PtDtOaHxwf8M1t5H3f3q8hox8VpYzx5c4XgOmBNxy3hn3GG91ncaFyV0wp846ZrvOUHgqBRnkQru+B2dCrccGrmKLjjnJsQkfXCUMCWUhN8+MPmJRxgxGYHDCxxwi8ckS/vgHb5RuMmWjYWvmKVoeeJMCji9I2C+dnjk0V+j6QPXxo3BoQsM3JbxV2TZruhDP4meAt86F57mK5uBIYcFbvV7URLd4JkBH2p78bB/ws8+Gv3gKWeFTreH3d5kl08X0103+qKLeCw50o37NeLZ5Fw847Lo+X6OoMjVQVIk6J0clST9PBsiFfR5Sn9yEf4EMno48art5AUPis60Kff4++3ImbaB6oeuvC1Ty5h5zEbBvDUxzH/w6UdvntdT1Bs9xYtiGVOnD1rzHBg4hVNv6W+K02cZfmlM+muw6mtpJ7OzgQBGneRKgY5y2e+kLjrmBAV7bY/I+lwdeF9KpV7e18gIup1hOZIHPvKQxYuQSy98r6P8qkt1gyel/WkRK4fuJDfbxxwTL+NPHd3aX1rGnvmIXIoXNXTY6ImBFq5kimOYcPvOAG3HEjwFp25K1euL6gSuZW68saK+oF+GqH3Iro77JgEZjhXQFVO+0lI9HoFJeJQ2kE/zMy7yWPoaXc/d+b67H2tqOUbVa7qI8UFbBsgT+mTeSib9n6bo58me3gO7Tx2buJrYc2woR2gdpBTGufOYuCDmgBUHmGl1prBOUYAR14B5rk6dg37OFOZN67Qh3dvGGVzqe4H2hS94+PSSl7108Sx/ZHCsr8IxMbr77e3vJMrDHenHmKvTbS32MPiUnsWSqEh0GIouWZCgC65vbTtUcQwTlYTNwuXPXWf3oSQ8kcEfnIEnMkVh43mSRYKLzDPyRT9Eiw4eDEydV0eUGl4eSMmlRMc4u85Ch24wyoe+6guN+zFSpXCeRVPihwx87wxAD987+q4rbyQ7eMCVwvRRerZMwa1bnOJ+y0EPtfLGvfw8Mo3AB/3Q6PBb/dS34j+dKJgltg/5qrMR8A+6CJ96//IRPAXxfwd86QR1Mtv4U/XGQXE2y7iTFfycjHtm0d11lwy5R/7R4xGNn5xhrn7jf5NHInIyUT8LN/+QYxrxQI7HnwXUky1nYSxd2cCQ/EofZ2S8qrPtvLCrNIDpL+7iI9nuw3b7LP7RtV1sHTsyf5gzwlMYMoGp2xrhXGXdCa/h44Y+wGmpjC486LP3g6pRtL/AkZCSxl+rFXu2ZhY6hpw5DJ2OxqfxNn4k8vo/diSWLVN4lb02WeK1dJft1Qs/WMam55I1ykUH1rD4zIleG0zavDvg2Bfug+JyWCgS8Ln8XMCneWYkfLdDZ3jB0TAHlGwkHPChxtiep7OFjR0xqjbjpuhsz/PnPwIP2K+sEcPLcUnMCuJn7ooV5u2KQ/V1Q+pYFiZ9jbPi9VwVie1egQM7myODBL+GNCr05TqrI5zSN3bhgea98/v7n/ikvpL4Cc8x+sDjaD2Xp2LUxN6reJStkCY6dCIR0eaFNbf1FnD6UZTJKcdcvBlMosYZJP286BbXWllWbhV4VA5w6pwv/+AMsD+ooF+f7zPBsaHOwVlqYIQ3D5XRfj9/hb94IIXbKS0MFl9fgbZl18WJmz6cSxKa4mSPEhvdjmPZ2sHjow4ug9fNS/pDj7ykCTGnDl8VEpcYuH7f4jVym0RBYixWUf893nsgbMTPC+EKfeSK9U1tam6TDDS++HB4wqPewGNw9UYG3fxGvPrBV0F30q2L5HgCaaDox18kmyZDf9dUiLRFaJL61HSC2eZwi17E0fjDeqrtmGKx5gpa3XeUvJkeFHbjvnLuUEm/TtDixLtiyz/x4eDlQhsqHsDB7dmbkknkyACeBEZLRQ5avOGnfxp0n4HXRlCji6BjvxcT7Bad+4W/l+qxw6gjv3a5jUxIfYruwMHZca03aPXp9AsAsv7jX9WnH5hLz2rYHvXztSDbCkLpZ47Ao/Ne3Fx2fQdkmau+VfCPY1vxXxm9UGForSOyRk/7T834Vb5RX2/Pm22V2GQ81+r9IyN53OoVo9Vn5YZzgUIAz00/BjujeK5qPI//AA8Qno4vKmdjnUFgTfVmXWfwiOHOAc6dJ7B+uvql2Fz8sjM/1mzEs96jQ6Y4OYkXTDel3CcdhGx1jY6e5DiddYAPCTyaj8qCEHPpBKPBxN3LZZs+NgN9Po8cVi4vprNlPed3KAwNRnoTMAsw1JRLOUzSGBZ9Yk/qJE3wL2mAV3bvQNjomdwMFjROuhG7nOJBB+aNBvblGLSF5/bwo344VXbGGSXxmYRZHQiewxuh9aZj5yd8fjHMBbh4Qt9k3rMUNNxX4kK2DOSXV8/q82IGH3SZw7oKJ/oFJ7dx0RDe8ORuAF8ZUgXeHJTyBj6FhRPdgPjvFZyHkRM/OBxZXIUoft6JUhUvdCNacyUe3l18F111GBqdfFeA/urHgk/b/NBViZV65WLhFZsLa6uGcNpfHOIh/TkDb7wxioaOzh5VbAdHR8uKqQK2M/TlU3BjLhsw/JCDfttXxItz+eyyewu+qF2MrPf4cNdvr5em5y5svZXtt4LbOWfodx5uM557P235qXbiqeItWsZrG2OPYZn0TH9xdI5viJ/4vmdiu7HK/Fh/B0B8iKvGFmxtm9nqY34sp+Ke65ncHE34bI2ok+38/XpdoTvdryROH2XwvU4evkvf859/WA8QWinnsQrM8aEYcTwSUxOnbQ+hTytWd+BWZ46dh3HWb8LT67Rwe2bZooBPLqge2zISBH2yvmY+NObTBY/w2ekdXBK0cdqTdLl2UaMNLm2U8G0sv/a/B6JWUjRdCR+F+CGM3CiAtom3/Humrwd/1al6AZNk0XF9GMdEz7Sb8OwYXSlkOsUZdYhVEi2JvY41M32Ag8Y9uNrwoPqMTuFYK50IrFNoLVf07d/1IUjcFg8PDIoMzHIROvxVs83szLAd/OoaD8R28KCpHGRQei5N2+AahlzfRQk+NGmjexYWWIUe/gRcHlWAi97lzTkHmvFsKtb3j9aQUF3EpN8v5iraCUi01k38usCuREZ8yW4WZjTCB+hojUWHDshqImPkeKQhZdyHTPr4V79WpvVxn7Hc5GPJXhBIFW8rItLROwbmveG2Cp8k5kLwDFacl/A9+vBFFhFijUM0cud9eECES8Em+otj4Pjc1tcH7gg+fE2B3/WP4k3A8BxUw6wP2ovG+qizsolPwxkjDvSd0hq4HHd1Z+iYq9kAJYbSL2KPWzd50SrM4FX5PS85omM5SByEivWIR1MUfwqHjQjyiCDrJBxEorfv6gzDyEeiKNHZcNmWgRAM3z1zAYff9eG88JvtldStBz2ImlIa6EyLbe18/vzpeYAxsI/xZLyZZuZaAmTGaeKfeeOv/YqiMb3mieKFQSunzoXG+aEkOMS95Ch2uDNKIQYTw2rM4Gb9tFbGz5X4dOpEnFJGPfPgMYFjVZ1olLlkNPNALkdWYxMjOEx7RQ56YUk0kZSrbwUhymsh4kwBh6s8mtkhpw+DmHTcBoVfE3QWsahAnXJcUc+zMk9E5ERGaThXJ9cxdDyBs3lmjZzCzHw+gJUPTtoXY+AUpHH4TgAA4NBNosNm+uxE4ELphgD0vWSpySCAzx+QwCdNmoZJj+plX4En21uMo0Z5QWvbhMfi3EDk7GQoOPqyCEPb6IAeOtPCHJyrG8LjNjV9bGqoQ2eroDAePJy8hrc3BerlGsRHb0krDpDp8RF/Mc0B/eDEVvjrpUwlZnTui2fIoDA2rqMvCzF8kK1im6ioj3+04VZ8d234tKs/mwbrrmeyYhAewiVJGC65Tpyak8SSJagPHWSB++g3DlGCjbAfvcGnmG6rGwjctImz8gGNHwGSFB/3ZpUHgswlV23G2LI3eeBRjNe6+vlnOL7f8Bds/Nm4N7I+ysccPA6JvMZZPCfd4Lsd1lft4vFDQJ5SPGjWHE5dsa2Xy2jzyKe6NCZtHzb6OPorh3HkYJEjNH0rUz6lOEZ0doIXyFtC8cGd0LCOoNPd3hkT2JsT4kt1x61weHz4ex83NUxSxCNSpv00J3DgxfnAb8s/QMuP0G4YeI2RD939tOr4Y1AY82c6/hiouVSYcJfSijb9Kh9Lz+9/SnNb8aAE4TDid7cyUIplBQm57Yo/l73iL2sLS6HDgDhTEJOu+dO8QtR/2uJHVwI840ncsfu0gKWW5V6A3Nl1ec0DySLUWd/Xegc3xSpyXXSmv7TAuPr3HQAaTZxJ6oSWDBnP2FgxYyIBa2IGp7vxPWHzU4RMMOiKW76deF1IDrmaRHYChnCblp2+BEhpcCM3xoDnl9HUzfP4ygGvfMFZDhKcREjfLt8yJIeF3m+fI1AHcHDhYZpxYnXFbkqdyRnHs/CwecnuP1e7TjjI9QAEr3ploYqe6Nc34JFP6V0ON/YP5FheVhzLh8byAwO9cmSE6/CHzvjqp74X9O4tTNNiNzjlS10wv7E+cOiXnJ2Z6k6gOldOefZlOW+ohic4e5vE1eIkNhsCcNCaJOuCjhfFtMMXfV10JrE1udkP4rH4CL/9WWZDh67+2U7iWYy4++AEv/HyjBe96ebORW2sHeJ+oSXMAkOubR+M6gi/vbS986J+CW8b2rzYGl95sRqeppNPuikEr3x3+sr3Fe5saoF14buPP37G1vF78cIn9vDeA6UbYSdoAKLZ8T3uHm9xZDwfUPwWMysqftA8ix91h1B/zY++Y75Hdm2Ele8gjZ60kZ2zXhYmHvTLhP/5v757FnR05mCe6YQ+6+yKgMy9HoVxpuzt4qTnmT+Lv/N4Op7gfrp4z8wTD+Ug7np4W6825z8K2bX3QbY8g44eF+lgNVjrVNXayJXzjZsPOyH/+gc+LCbKFZoWNx5SzF3EVjeQ+3mtE6IsOsmTkCGmuBfDS6FncwdHqXT9A3cLN/fRbn/mosGrj4rXxslnrmtOsJZ23Q0PfDW8pKDXMp31C4hqaIKQvJqkOTMx2sY5TJ4eJL6V/PCgCn0U+HFQ4JHEmnYcFvzwUDiIFwV66hiA4m27cz6iY5KxdcSyKeEXXoDqtGwUoi92UsC1DBasGS0P4Oa04sEnvA9Z9KGfnT30Aug/9gbeJA1tSwekMlmMaif41Zkzz9zLn/O6Ur/QsYsS+i/+ox9taOFdfZC38NDd/dLRcUCgHr7Dph57gAMzD/jLBorbJDdoVPobyE5W4AlmTGRS4LEl6frfCzk8eoCqOIIPONhrmfRTxM/BvGLu0KF99beUDMlsFkyO3TqQ4Y2LziRnZHCXgUcM7hey70ZJ7kraI5N+Sv3qeGHaD1wU7ucD3guOLB3Ytd8eLrI4uL/00NVn1IHnykB8KyPT0ItO+Vhu+9FB/zwXhUXpV33c2D6Q70VHOvrlQ/V5fAaHPtqMifnhMx3AKYHJdr1gK+/6uK6kSdt3Kgc+7M5PBAtjPPGCjMa64fCXLDzbJJ5zruizaYjf2++38kdfxqpfe0Kw7SC+5JIbV/xC3PXTv//p/5ArNBD0VbZxV/SCNfpxRAudsZujMM6UvV2c9DzzZ/F3Hk/H89nKfhDes+FZbXddqt+DeD5bvF32H8Rvx4P3BW7Hw2L5IBYVIxpXLpl+7fHfOP3P975fw5EfFe7jQ96S51jxJdzGW2Gso3u5aK75ptlsNOIJGuIMtXb8vZ1n7KHZX6YDn4N+CjTwyhpoUOBeE49+ELM+CZfFnpIrYE1nJcAm5yR9JnAchbOaYKGjTumvwXmCwNx9UYr+gx9yDh70UcqLScgVa3XiHPyco0doWm9/oPmED8mQEueia2XHXrWCTMdWKhPQMTiSvyXfDf1IugKS0PoVNuSiAzwaGPB2XX09N+l64AT3WbzO2oJjZ0v5cd59VQwS0843NiVaFrzMKpOEJn6VT3d1MKr6pMTC4TnmfovdCXdwypqzk5dkUHZ+2AONY1d0nmg6dzKZAH7Q6mhCNXx0dl0fJExfLY8c9Kpu0DkRIoiEuOMO3/K2b0jI6MGCLBrj62z7JGvnu+TDWwUbzEsD0SQMvPypm/fguyl55Q0ex0r+0qF1Em3xi0d7JVIvL8JC/ynua7gPjFvSrD/0Va++D1E664DvVZKgE2f4ZB8fxrB6wY+rcY/XMAIGffmEXnLx7YzVoEYf92QBg3c2HYfM8jINYyf+WUt5HMjynXEAj3cygFHv+sNWwJtkLYj+5oTO9LNJ6HsfmEDSv3794dNPves/nX7x3f9D1+z62i3fGt50xu7jH344DnGQLth9eQC/PC5xaF/itP0gXGDPVJ6O587vmXj88evffZ76MSLU8P89PWJ8Srfb9WWf0/f9wNv1qIWLJuJEczrhYsNYm/bSWGNudr3dY7/owPyvADiLFY83byiYCubMVOCglGfqyMgFpzsvPnbcvQu4Y3fjix2Vcf0Vr/ni7+6kQIFDGYzlQCEJZuExoRiK2lfOJC8WaGaECzhxamhDj5M5kog4F19O0PxEZibgxUokKjvPPNPHAtxbIumrnrMAiRn8oiMLTuvRMLog1x0644x4PEmQzUfoOK9bj8Lp19PglEFlkFiEWCSqa2w+eLFYJZl7QRUt0rjCP/THfuQOLf4UQ6Z0cEYPwdGVAWRgE5A6G55xYLAzwPjDjrA8OGMzsiNl9Jjb9cDAR2a8kfMuT10ghYfOZg8MXcYe09LRAr76nXSgEbx2IgGIddKHeai/4wEL6yx6l43vQBac6LAc4cZnhw6Wh2yNA7raBm0AFrupWDuh+IyAoBq/OvdswfTDE96IGxr6/BzXXXSo0EfRGT393ExN84OP0JzkS1N8cCSjeLCgbn/a6PRbV2seefjNMSXayENIfKOQjY3mk3iBr/2OfBY//adNzK4S1pEyfNvHXY09hoFbLtjIiYIAfQfEjzjMG29P/0Yj0NIHmroDXj0Mxaz6x1jZHPDMvS94du3yMoJM0RB5fDIP4R2fKib0Jjv26/7g6UllhJ/52V84velNrz+97OUv98bAvhMLqHuYwfDAFnrgef8B/PKIbYGX5hKnbXCpF++5nMtjPz8X+k8Xt/Z9uvQPppML5InLf3hH/peDGAV+zvcpjeWH/89HTt/5Xf/k9PP/8Re1UXtIPUq6Xq9ABTMyTKf4Yu4oIAx3rOkHCTwPmLdCUriJQEKIS/2iJOsteCGYLjPjrqliTPnOenn+Ba1rNJsA5qX5O0CXaCPyiGm0C+H2iUzo4uF0NC8A91+FA9yr8NL2ypiJwQ64SRCbUscgJSApT5sCzc6HBEfpzhk86mwWKEcCJNGFV+G04Qdu8Uw0dK3nrF2z9GKnD/9sAPa/PgevyAO/PMuDNk7p1X7h6JsrAhMpIEi60R0csYSZR4OFzQuq2hlsEn740oY/hTrFnwzA2N1BcR9+E20ojO6P8kDP8s5by7oS0aYHXRyYwl78qt/oBaPVR116e4EbPPoplVX7ytvwDffStr2/fug7EuGcz/rBsrQQu8jfZ/xIUKP3rg+JzVfq6EHBp6obTiyOj617+424fZS2/XtbsPJyEh2yJnKu3ls/kzE8asMlD9MMb4tlUwgvnav/iAr/Dbdw08nG6nXJk355wosJfeDd5c+MOtYSe4pCvz/AgkNSLi/oKMQQsPLhXBj9bGh32m6AzzYTHYONH3gUL0qS+9l/+rNP73//+2X6ZaQHBxnWQjHKmHYB9aZBbV9t88JeJpM4C9u8Yif6ULrucNOC0ljKOHHFj/vTeU2/FHTnDtfpD+nHZlh7njzd+dTv6k+Tft7p7/7tv3l681980+lh/Zn1etJUrFNmYlb50LxGrweYtiFdVGFSxhddn1bzufB7Nrg28lnq+Gz41ahng/t0sne4xoHpz1iSOz74G//39M5/99Ond7zzp05PfOyTmmefwYN2Rb/+4p4es+j+5rH24XjR7DGGerSbxxIjFag+NgG5daQzOUh9xOWgdPyTgJkzmle+fGKYJzfOnCgOMinlAdztoUMGOo2o9EVsNhLM+cp/3Vv+wVSNp47z6CKJdHIEA/2l5MAtWDS0gZNYedOUepN6+0rPuZuA4j0Ip/iVf4lDO7yiT/HhGfiZae1eNsIXHnzlTgqdJWWQKxd+3WxoRVl8XBlZvqU7PV3cu1moniVsQu1zaeDQ7IVWb/Ej/5IHuCuRaiFmkWbzQSLty3mm2aKgiVLMTAve0lswkryYmEc3KuC6roXuPhi8KZzHf11QaRcOin0iHpYBQKWB2pcQA9WnaFcCBXjhG+ONXq7rw7fE5YPKKXydR7/VVmX5b9e1NoE48Ca/JlK6gDUpYzO+WfBJqsVHJ/9yICuPimk3nLbbJyMkOv6rbBPqwz9PCw+7Pv7PZN8mfRcOkhP/1o+cy2bB8gxcPk5KMmv0t6yRXf8D4x98KNjkzf7EfXnQT7x17oFLn6KSqus+M24ap0wj8TW/zmNru/Ar0xrMuNgvwoDOjxN4C/+BZWJz75MtUmSNK3HHvO7cIx7u3uOHjriziJ2aE6pdv66X6e7e1jrxSd1qxU7WtjDORgeW2ClNl9jwqX8G2yf72XowZ+MfOi7H+qBJbI3TMD5dXYsWi0v4tIONAMwa2gIzD+qDAzqGjL88V9RZvKM980iMkYZbwKF/H+Pwra+rRKDlRQsfYF7kHHjFcTwJ3KHE5xjluJNc0+ucpCht+HsN127q4IVi1ge01CEeT53FDtFGnzhK98YZ7ca0k7fk7X0w4uqbjQJlvOY6H/BsQl/AqTRWsPIaF6a6iHYYbf3OFZovFNb3vCAYn3MHOzzOdSrf9Ydjhp+YE6BxauoYKxXFf4dzK3hd1Up9EiGmkdBQCFoOCs5A4J6ggJH8ixeHHbJNOB+hA1dDa7p+/z1GR8ZRD5mumok0lSTx2ES7ety69YLTJz7xCb1de5OxTkB2wtCWftjJy0Toz0TmSnmVmWTwIxjRz3V8Idkkzk6G9jlQ7BtC7OB11i9+tPtLe9W3OAQ6fiakhOhYZUaAd5awpWgnmg3Adx151cvXnlPbmw296dREVTtNc0FL3+KtvtrZDYDbQ2O8GYwmcmCJi2M6lAfyvOgN3+psPtVf8p2ohINtJNrVD+wBxfgb3LpubapeHGYytau6IOdsAR5dWBaOkvq+aFd/xoqk2VK+DqOtzxwuZIGL7NqA7+q/LDrhal2wH5/onxeWcXFpHDOHGsFjtVSpbOrI41/4HGf3wR8dQgEosahTadzHukGYevOgeYJvLVv0LCrMsYFF2hEPtCmXi62Boz+LJ/4jluOH+N840g1/ZW2SNuPD9PUzFyT15bXTrSHVTxFfF0/JeVLfl7q6JviNW6dPMceUMO5pDjtRgKAy6oSWT/SRKh17qbhK/zYQdx54yQ8XeqNxEXcQYBfz3sur2jNM5lWel7K9/BxuNG4/OufxEihrTXEQBphk5N7Vb3yN1+WPFyWlhTt1xsB/pS8gfy5V1GecPWYGA/9nuEOvmyf2S2HuFygXRGgDOh6I9dRhwW4MUnlNBzEqAGOl9VLBoE7whSF7O+YCnJUdfrkWVo8zAjU6B5klFOviWj6amInXlpgsLVGHeSCdLjcCN/TtMwYdOO+JZN2UmSMgNBe5BgFSw3/PPUn2EHoIxwG4KmWvN+jaF5cW75zu2BTQXzk4vg7GOZmE5zLiqEMGtdzq5iduwYV3zvAjYdW5vMxAgg/Orq+TveAkdnTom8DRJ/oVf+8Tpp3mAbLsTTOCurol3vZO28dEh4c3QJ602E0g1CfxA+3l9SB4kYCWPv74BPq5qN81JWX49hZ4kzwxwO1IcBwYOnuxZKETHMn2m855mzj+VdP4nNcCpcltG8S05ybUJlq/3Yk8MadvL8WVwOijToL+Clt2O1n0VSwXOI+FtPAx0bAFfenjati27HKGj2VTbxmaNumHbN2qVQdS+d38job9ChJ8hq8qZSFF9jr+1PjgV8WWE7cwiQra1h0dpj9JR5KG7570d/rysVChs1g5aaIH4sVbUHffE29KPlUB/2hJlHpwtQnVLX8iSwPlqwYvFNMGBz6l7xl6JzUEwQdnzfCZBn+tgu2Mlea2zknw6Cu+jLFkuTU6ISNyt7P8gzzz8LwQhn0mHpaFjLgCbfeyq4K/iU1Ft1TO2bEqAhIBhbtKfmOZN+OtGXNL1/G6quqmlC21olDPc5mL0li67DqbkWD8lsVRqM88dS2a7t9S6MuDtaS013TFyQvLMlFFfBRz9oV1YCwSr51vDB9JzcENifU7mgyY3ce4uaCbA8WtaJlB3dclDdj0+yT2W5sBoIixk1iG2F6dqlUH4DkC6hl+6LN0y6fD2wPLmK8BRs+Rhc42c/RwHVuYh26oxjjpUwf+8XTVGPMHV1g7buu773fUZ3Rri37CEyyxhZLA4j+BXUeGY1l6oSv+Bh9apqDQLbsjfqwohDw06nf8w/3YuEGHLAo4FK7UKfDo3s8+bL97FdMiwBO2XWsqOPrri8FqUkVZ6kmYSSKpDzczy0fxaCXJhjY7ZQYFg3e6DERZoECcmSvRS/zyDxwZGVgMCW14R0bkRReSOlfbR6Cc2yU62zmBIyKcCd8WgoG/eLeB3IXzMwjBRUfsRTNklIcXbxFzTrAcfR4wMYIXcihc5UNPiW0TxOIBnMRNyW304LHgQE+ffSIeLFDVIefgAj+sI1+K/8hGA/RE7i7LAvXhW+l1xNDQh+zqL0IH1/51jtUHMr7QqUkOEP1sRsyHtnRAZ87WbWTduMlGTQjS70UvfpH/mBBvotomd8Bt9IGWMrqtSTq80jmfm/8tFxytjtaH+iWN2twh6MFE5iABQ88/FF0JeWDYTLFdI5qTE+u0ocFE//KeZNDHv70EQ7HPj+94XiFLvlHy8WIhDqao3nIFo+Jpw6vBuFUM0QdelV8/7vLOoyU27rq47p0RHLFbfGf1Cf9gZ8ETt/GBg0Tu6KbCjzY2xuiFL6Drv63b1S6kgeM10aw4sAcMww31PbhJ0AD9XxDGehZG0TPu165PYhda/q5WHkNAz6tNjHeL8VlHADLE0DOO8gOu8SEudPFVRzbP+JWZnLkpOuHZeT6ryrkw4VJnHWJuvv7zXufYZ7MTu4ZeOB4v0+pDsWGZYhU5AtEHPxVf3BgXuLw8dWigBIuzaQke9dPXzdC+ToWj8KUTsQ+6YZYnIp3Dj7rWF50ohfkc5QKjvvAOXUIFneTows58RTykiHahjS6GG3asUfX5l/yFLzn9iVe8XIgaLy4SbV1iKGv1Hk/wQ2HsYx2iL/4ekSO3BgtPRVJ9vvyA1vLoNipbgzmwm/7B4dwSfhAFB3j0jpzieh4wCCrXH33tX/hu0Mo0zsFphSEhwRVtDiMOhrBiQh7nJOa0W09AgiS1HLAkxsgqV1OMUUna6DEBSKd0OQZAg2Nc+FU+OOVGP3AcEnvCUxqYJ/3hh068lAY7cHO1EP6xKzyDHxuQBB1HVA6OaaUDCzU7ab8RCZaVjU5qQGyYdaNO/Gz2oXdKaFiImuSxkcmWzRE5STjDD97ZIQoyPCI73CrPt6pMgw/Sl8WOgD/nCQ0yGDef1Y61oWPidHEHlz5glVvcLNpH347rRyC2MROkMvmDPbw1Cu2b3/zm00c+8hH/NSQkVw5n+0aKI7eey4QGE98e/jZAH9AhhwPc6kn/agvu0rP0SPLt5jSTHv2WI0NhPJg6uUGvwwlAfmS8j3lAEhbfEQWN58vIdB/KqX/ZBD4wPjiTWPwvwu1b4QCjOAkZf/onfuCNLOObV2jMC57S4XJjAgfmHH0cVtxqjC5SCH/4+/uVaTX4CE1smsVpdISveVpr4ZoGqOSx6bHBaVuuqoZJhu1TOzodOGmPTNQTD7WyKQqaPxkj/4GXNe+EMzbgc1+lI2d0Mg/bjtBD/mJJ3xzYKsH+9TMjQ6K+/YgSQzNM6I/N105PfPQJvOpbuNYV3i1TX/Bp493KAJV646dwzumTiqpoWIXH/GeMWZTQQX2G83VC8HOAB73XWK9daZshWKCtAncoE2sBCyakYx0ONL61ywyIrunjs3w5H/rnAii4dKSv/fa/Jt0HP/CB08c+9nu6I6KNHJPQthy4jg/rZAYWmpiJ/v6MYPfBgXGhsNFGjm0cviRm7CvcDhZ655RZyScKMPPIx17fwFP1eFSm1KTMKQ3avFDXhMcO8Sn/ukT6UYhBS6KXiiwUgpEYKYUDE9T7D+B5Vp0db3nsdOAU3nqf3wPfS5J2dCicq9f8dbnDnCTrtJPMo/sulwHi4JZ1deQMP1/9KmhptxzJNYkOHGC+hSY0klyupLW7nqsWaP01Hy9EGmLx5E/XUm4qQcGfK3euuC5L9AYa3and5yfRMjnh27+YBw564DkSJBbsuqthOHczGujQ9JEDC4AXL8FKt/PETnzWUpu7SNDvwhnddEAvT0iv9BVW2vLiXL8S7F5Myk996MuPKOE7P5dUm7sOV/rJXIr/wI5gZwV9FcuMNaWbkeKEZ/rqD3jzGwvm1xhgESvv6kSbus78QEZsz4Q2f8HtQznVV6XCxaZO5OrAmQW/Ccn8BIOf4cTTyPEZgsou7QNwzngWDzsope9ZoCWLuvyKPmsciFXIhh5cSqCKGZstmB4iLxh+xy4QRVcaeFDnX+tGGd+wmLuvZ2TKh8DwH3+Olz87jG7g7sVc8XP1UWfmUuI5sRiYrKHXPKwbPlZpDBNrxI7HYfrod5zQlvzOkeoblmrxuAzbx1/QURYM++HBwRhwtAhGvFgnYOBMcRzZd8xUq+A55rrwmFvo67nj/tyNWOMNokptLH6gmfumL5/tfElXmt0/nUP0dc49CEb/db1IJBe6gAsea6JOqwBrX/mtzotK5YDHz2if2SieeBEc/5Pg2pm/dKmfSr+6FZ3BQQnxcWmds1dWPqUrHPUfH7KW+YJCGLxQZ521hnh9H5owe/BnrsbTp9VEbOMY6pflvG8cKKTdP8uF0g0rvEISFAQ1iR1He7HFjC2x8129PqDEURhHUGMseHd8yZEr5AjUrWISjQfw2BBUaeREbuSQrCj4dk/oTobmgfOzwfBC7zcLA0uiCudOajSDTwMlG5gMDJjhFZomF2/klJTow8Hc/dxLeXNOGT9MC10p2O1doeroVv70ExDcUuYKmUJ/+bbOH9pgswB+gjc44DEO3oCJ3GMgHtXHHJdumczgoE8LMih7otezGbVF3Z2j2goJ8/ctQOH7q3amPOSWlzT1pGEDUF3wf26DZlw9qRgT4uai4JPomUWVIKCN7fAgNPr33NGTzRUbJnB2mcjAt7f33w1HnuCU3pVITGYBiY7ulI239TOVNzXhMzbgebGAx0WxFwXnPMPOYBpLmstJB4F5tDn6dMFHsy4qSMUmv3A1Olf34MsUYkKxcV1/eha+hSPbtPIxBTj/rIv68kxfbZxZf8DLyJmLebpnctHHz36vYRmYPn+SyDTn7UvJ8VxWB3IpyNb9jNNTksdbwFcyKney0I/FJ3jgoqP1iupuY0b195g3hhkT9RCXZzzieukT/o1NxxDyCWhkCc9vwdcPAFTwHQU9/MhK9SZ5v8WsmPNYA2dTpdL5Th1rrrScXt1g0717kk5pzGMRIXEXb+k9L3wsn+G7jjtMVbDmikdo6De3dRj7vqNhu0TDrysCMz64OrCFRzjECfbVRseKuevDfNN/Bkf20IHKOPfbPfjUsTa09FPAYW56LVEb/3gdmz5wsKFrhNAt/lj7FY/D+45oYU/bMTZn89AHcEr7/PcwxLBtd84Hc5yxxFc3FDesfU/pjT1+zMZ8RAe3jq8Fo5yKbZIs1mS+N0+C7zrJXRLH4uCZYPsgUim+mGQMW4g97LPEAo9z6eofeo468y5+KkXnifUGd/Cd3EnsFCbEFW+CovIEUhItA3vgMDhP8dxDeJ1Eoef2pJwEDwLazhM3gha3KHkUBn4HmXpLBvNwRHdHocWoDA7n8oMWXgmSTDycESdAc8jKrb3wLw06JQGic4IS3rFdxCq8uQ5MnIQTWOTHb3F+4MbXYgT/I0GPjnAQvJg9ewGYQfMfe5mJqpXRkwyenpwiIMCw33w4C8e3yrAZPAUPV/XdVIBHOSbEsQnDbsYW3r2bgM87saF1gIOnpMkEQWfkNCmDSwGXOnLTlwQEb/8CnRYgIVkO/RTbpHN5tJ04mEXHPieOoku+ipUx6/f7GWRo0QT/RSMkHDLQi+LJLhxK5THAyOyf2gUeW+Jn+FO8yWABkx1siuC1z4HFz9jMEBXhoY/9rzrFCy/zwuF66FI/BGmDE3tDy/kMz8jEraShZ2UQJywkajM2V7rybaFNnyWIxuOjzpVokKEYqp6xAL2ZF1Ja85+4oNAHH/MST8aHRd4bJ2SM75o0xRnNzBud4ce5sujrY6XwVlvx8pmf8aLTxz/+8SVHgWv58L+m8Ut8Hsml+lnfiQh0YKGn7FfKyLYPmNt2tT5Gb3Dtb/xLHQRVyx/56El7wtp4fjwnAEnARXjwQZYqTvjxzcCEBJ8W+vzyrBMBNsrn0x+ZxRSd7EJfP6qjruKxFMwxOWN1UJzXoCCeWzom6Gv60b3zAlnGn7ErjpxgfNPJTvtNTGNn5l7rtkFxSPFGSmf7VLy9Kdj0yTp68DGR8HzR6cZ8CNa+8brfcSCmsjnZ7l4qRtG3xfGqhjmID7qgo8db6yzFdZOwZirWPB6MjXg5PpgLjBMxzpmhjozCzIf5ODxpU8B3kd989V9TBK9Z8NgL+mXeCDpy7Fc1NSYQhikTntIETPJiorafPpZ2HNpX8YGFB46AVuZqgpSHaaQsvFA+CTJ49BWXespBDy+CNUkUnsU5PyO3dlgOsmRTknNsqg3Io3D27n/avUVNH3SXegInwErfNnwPv9XxPUcvcFuOnkJyjv7IPcaDCUObM4kJOykNFjcYM+PhhCTT2BYbhsR8wM/4xJGdXJ2Y6Xuwhn4Lf/TpogY/9EM3eFSv+qPt/XzJvX3wotDeYZ5cgmWBDs5x5ZRNCfbbBnUjuzKg3Uv1ZiFpHZwe4JZPdciEP/j42X8ThGibKHY5yC/9gpPIJ4BZdDmYlPivxTTgUTbdDR9abK+OO0659Bwm8yleefZN/Gp+SX9J1j+ptOm10+SXsdKPnvifvRG+4qq+/uMv+qFaEwk87HfsQ4KcEUkHd8sWzyYq7LjEZW6WDhexMD/66KOWiw/46hD/LEus7yrRtx5J48fRJ36OHdZV8J4xYK9bNgu3h4xxis/tAxysq/Ar3aXKo6rEBn6ovrvu2LaX6thn4/ixMPComw9w/YteJAnWP/HiBTD9Yhpv0a/YQQaHaFxGpuOLGCNp2B50wYC0gbXNy37mV170YLcO8xa8cWeY+oF7Q6mqY9RyswbRDf7lwXzpnJFqrrcNzeELfB79uCr3z5LrtjuwwoUByf0FPfCFDsYCPe1TzMeP+nfYPuTgzIEXL8dFAzGIZiH6Q7ZmQ/rwlfhL6MJN4tWFDOPABJo+9CJR91gE08+Y+YDmohw+SgeqZe0ePaCVCjdIWCSzlgRMDKHOVTjF9VGchd4JRMaEKY4pB+m/+BGQStAaEMw4cCMTnjgR/NkUi8+hzz0FMatDE2p0Y/fH7R4mBfR9Kz4DAj/6kwwx0kOF5sa3lpokaauPunAykWNE5aEvuhEnLVfgjs+kqcHoAY+25YGij3ya+FKyRIsUeKdooRU9pefUCcIUfMuA8uMZFCaM7SqCYNnZRn9wzMv9Qaq8yMCn+C/4u1xouUsBPhMWieCxk+bHfoA7YMW2k90w2aBpDXkmumvBgY//KAswbufqRyA9D3AsOsw5NkqvsbPykYO+1Tno2okraLp4eHGBf3m6Gtu5O9HHEOUBKqVtzpZnW/N4ARgFvZzkGXcSC/HtMctGordIuXqkEHu9++G2aPheNCW8MtkddHKw/SgZ3Pq7godxg49c9OiCepe/UYl8Fejuijc2L/uZZ3r+V12CKgjjJnxw15UksTi8fFabQn+usg9cErrXWmPkA724k2G+BIraahwY4p0rSoEd9eoS3qorXFy3TqEjWcCXK38SW3CvnR5SMn3/+x63vrZVvK8pyXpcpS/DgXiK9ZnZQx1+Bww/y5+dfiEwsf05TDwm6pPV9nM2eSgsfpLNZsMwtUlOd6S3J47wYc1X/yhexEd+H8V1PLGNCIqNzBvVxS+6sqakrnRoGxhZSh8vUU+SiI1iJDugwRzZvO6uxP7GEHSRETwI4Gx5sBgfVC/w4d01ZBoQuMt8TaO2/qMvnnu6khsLBMI2aEbuAAreIr77uCyZyI6hxmRMHTPVnQVG7GJT9AxLYkr6DR489l5w6pvg61Pjgq4akQWiwkpGAU4cJs6SjEnM6VO+oj5zy0B3SG5/8GCAmsV2W2kXriruM0C8mFfcERoZaMUafsRs9NI7dAQGQZVEXYbr2a4ATWa+Na91ieSXpBljUweeAeV84LDrzi3Y8j6SJ0GXRVvqTR2e4YNcCs6ujuD3eTRuS79PIzO7QfBYoGJXBhAYk4HkT53CnQGCzQMqWHVzn69K4BFchhE3U8xHAULfTkMfMOTezcNT+y8TN5uZ4DB5w4s42/nU1uBhO3LxSfzgxY1mAxn/0NSAM8DQZ1Gp/fGnUM5Kx/zyFnmR4AUfin9AgQkjSfirCawJPfpLy9GpExIZWuHtD3AuY9xjK677hMrixw4dP2IPGhw42MdYOJjjvNSDZFnY1LtLD0rsXgxkD7K6mEF+WWxPbSKRqrCY22fSz8+m9SNItdtXMjOuUsRjVP2htW3i05cugVGgtz1prvZ+VcP4X9PzVid8ORId/LLV0OBcQm73Jbi0fZu8idgKSTfFPvzRyb/2ZvME9yBlsYxu8rdux3c+Vlzl5IdCauvEmnibHRsb8esmgjr/KIVR9xWqCNAFXfHdhJ77fNteMPuZaU9s6B+PGuiLPwURTsaT+gSO5R193qAhVIXNB3c14EGSykwKHDcwt1nEbSvs0M+bN17AFJ18SvGGSRtXCuuOOQnX+tReNMaGWd/AFSS8VSd9LN/Yjmx0/J164TXmeXmLYjuF1+I5X1nQ61/kB8M2qIpM98FzyIGtomp4D9309S+neaM3cdPEjv3xe7kw+vJH9ZMvWhznA9/jfsU/uNNfWDZ7w0/9poOh8LCLRwTo5aI2unQzg23eWI2J9K0NbigW3d6MD+CfxN5kDo7npcY+dxEEcOzQs/lRLV90kWO3ZAxW5phr68MzRrirb6PrI9PVB9W4OLllyGbSgG+Vush7IRYNAU1C5gysk6T92RDIYV4Egh8eOyyJpTi1AF7QU8qnffvzk8oG54YWtNwCm6AbWq7IIpcg1gDgjLXxYNwP3VkMeIHCv7DEpFcf4ea/bqZzQm+8pXZtVtUFviQV8FgM+ktNtE27yXJQeIPD5JStCiY2JNRt+8i2PvhwdGOQyourOHSAF3LxI2dsYnGBDwPYW9RMbE9e4dB/l6+PSc8kwvgi/gmPWJUxAJ9jL/EdPpoJoxrLEpuhm7KFEXTy9CQieLNxKox+vKkOv+TG2X89EHbMUW1YvIP2i0ai13olFNHoubAmZyYjPmds8bfqcNTtyJy7rSCoM/6Io3SzAm39ZIVn0pPwmtSQhR9tpeqUjgN8uR3IAsOBf0ki5is8jYL4kFx0J0IcFKbkS9eva+yAsUHBuLzTYfbmEzkebbeziOExHbLVc4FN3RwSoTr/4SV7GQMJgwIbXBCuOEAzazc6m7ds8Q/KyM+xR/oJHVuc2GFgJ6jfvKW9+nwFLz6Mzw3ZyrhdcVvY4zdjCC38UZCxtbNVhU6+XkmcWJd6tB23ancDBox/N2+CICbWV7qJ3py1UsnZMpV+YdKmR/0s4l4fiCV+TW70Y6djfYkp9Ymlixdc8fDGRzxbSNQk+96JIXbabT9xB5JDjLrp8oYAm4kp+UQz6XRLfrrHnCJ20Hn+HXOVecmYqUf2tG7neERjZ+b6TY1TdcQAxo3x1TjoZ1Vzmxp8+KV4LRiZQJBPwVfY0eLxmkbr9rVw4Ge6QXd7ZDQxrjVn4EtPaBkf6YkNEut6Bj8wD4bkML+ElGN0KX/bdNFnFMH45kTxbBN2CX5PcgkD5vTNhx46/fkv+iLbgjy+5shaEjrpJxzIcksqc5n5zDqUsWD85WsBiMLpEI3fjUeI0dwHjek4j9Ngo9LE3pgxq4UsBCbiVrxmA2N+eC6rE54c+s9dJ5YVIovCIzSvBMSS+Yb2yi9TMYwrgETkiSMGcFBhoWmSSCCCA036e+ardIE30SaRJICDCz94JXHFI/RDx6RJf5QGh747d+RMPQroom0k86EfGiYIgRu+7eeMvtGdCRD+TO5sOqBTOItOnlM/Nkc2/f16HnygRUdKZImvW/kAv76BR/inj0DbC7zCI/4pXX1KH0FYOD7oEV0PbsghcRTO2PGogq+K4a/qzNUruPChoOPxImV8VP8f3LFVhwBsTijndmZR8VWX+qI3kyT6gu9FUbIpvMkuyUsHX4FKgCDWh6RjPQVbugjGLdBuPhoDyAIf33Ku/djnzYpglOjL+CZZFd+d0Au/tPChIJsDX/aqnx4vIo77xkH4W29ovIolKoxrbvH1XcVv+WI3E7rydtyQYE/ohoXxu5gVxoh4EwSyShdmN7aPymVTapuEDozCOTU1Jr59FUwcES8ad9645qymxwo8/tHai6H0DR+MsM4QTvEPucjP3VDkJSfpLhwO+2bGARJ4dj1qnJm/cOFtPUzLGMcHtaNzGTiJh39wJMnyOMF3CEoDEnIr22fsY21KTDNePfCb6+rjUUp5eeDgpWKNhNekTiy2AIOvuldBJDyL3/kPArbs3gaXo/RNtMXabWeEbT/jT7zrn/2qes9Vgs0I8we4ZSJE5f4YLUV0O1rnNfRjPbB+5qs1QCzZ+DB+jt+S1Ki2da4d2SRmvSF5N35tF3bAK6pGd40J7D76xEc8h6/rWzDXdYftCHYxJ25QkPXfp8SgYxbZ6MEgOnbUmrNfnqNPce4xbrxfnme8vfGcvjd+wRco9vSHnKQv9GeFtmhYk4gDQmNtKpyjBABFPd7gIVxwvw+lajaSxJXqQhQP3eZjWw7eMGAKULrwwcwCRdUECS4wEn/xdj7AwgMHokXb5e5uKZLEBI6WR/NHxi6HTQOTJ8nhnB45DYDogUuw5XBcEpz4D6xJlAUXvWgzxiTz4sAr8PAB3sRWHAu6+KgPAXsiYZftD6KvXocmutc/ASIj+u5XoOc8wLQO4utbg5M86wvHq2WyeET/4y6Hw9HCLjcQntT2Z2Sjd3yK/PiV6PJYbTZFc3QKDjSULg6c6eNN9NZZxLuTLT62MyHRg+BexXyjd+Gd3OjSevlAhyaRT3woxhlr8Tk2B9G1NkLjBVuLWwsaADNf6RPdjv7i4ZPLI/NaMSMxPAZCe+zdj4P+/hpy8VF9iN1cRddWlmiNysjlhH7HXICjPYbSKh0bN6QP/KbL2hfus+YDGxWSKP6h+I5zjMIpBLfhlx9NwIXbW8I9xi38FPXhMTx95S487GWcMoLlkrNp6Nn1MCZzCJqtqLnDejfG/IVGYvVdCdUXv5IvHcaH4o3fe4AG746Fz9DMYd+pjkZrDJa/zv0GSRN9xUPvDcV2TZA1izVpA5Zg9KGJfei22y6vpj0uon0U+ninRuuw/imClASzAThLvPAeup4PHukDv/EKjus+k2OCg70t6Ljw1UGdYt3VR4EP66g63dIKbZg7VfO7D8Y1pnGg4uuOt5+8ffr1D37APuOuDI8WVyEwHZesNVlv/HW3yYVO+LOOQZO5lvPZCjCxSGIlxhvnPjPmOogPrt6Js/e85z260r618OgXwlLLbeThG50ZDzYV3VjQNmx0yiYpMdENM+so+lpPBreTGCkk6X2hBOb+GiIB3o3o3ISOGhTf9pAyKLDzSMI+3LL3he5IRGY0H+jGyyo45uYt/YGXufrecXA5Zbchk2Fzmvp3HeDrnQ4bCWnL5oGJ08QKvySbCTJvOJLw6aMgDz6tc4YemO0bXanDi0LiCt/DF+7QR3nRhneSLRNA3tRR++oDYP5qFgGiwlUmJTpEXml6hoYSniwC3PJnUxMf0kcyapBW1jERwUgpTXRDz+hBL31dYCLrCHzw4E8/Po986oonyS5f+Hg8hAucUv2F5DYf1ZV65MqW6Yd37mDI7tHP8meR9MSTruYhGsaGevU7eKIXLVin4ngxT/DxK/afH3bruBY6XkpEH65E/qCy6+Cr2UFmXqEzCymPSGbol71GU7/9MDLg1Y2UfTBEmOFoWEwixLaPPOadk/y0K/CCpL3GpQEdx31WCpCFa3xMShlc44/O+K0JHzh1Ep7vJIjGMqDVP5b1xh51CfAwZEyMOuOTeuIu8yCQyGq9A22Za3xJerrAmK8TVh624FN4Frb4qKJosr3AmpixgwTeJF783lmhnf70eA4USWfoWyqzZ8NHZzsBf4x/2ESAlzl0wPEh6wgJng3P7dt5pGdfjiBwKJcwfMxBPO7+HrL4RlTEbfTJ/Km/4Ee9pfx69Vw4evfKHH/Di2Hm4tIXmEQyc7DzUH2OJyV563ZdV+74zbQil/9JuKpUhGn5I2KdK55rHkHkMVdy3kk6HzInJYvHOuLbRFvmeIDir+7y/gq7ncuCQXu5mGTiLNE5isbawHxtoVcKuKn3ENhtEZgMfBIIZwyhD8d5UgkGY/og5Uf3CcAmJPibDoWkI7jhHb6WNro30UHbcQXGFfplQTfgtx66dXrlq16p7mwCsomIjvCBnqti4JQkjM1oyzrwwYl8waQt9ARZb8Ujl0kVOHShTTs+o7/Jj80BdfAKSz0+zeZBdQ08STtlBsGD2HGIXviSUnn4klK425uO2ZiQKDMmXUiK3wUCv6AfR22OHYfv0Q99ZYxxkEsM4J9MygN3n5jg7aULCbqGDh/OrVchesLiD24F6kCfTiz4MGH6fX0HsOXXZ4cOjr1NMKMObXVb/hYMPvjEfoBGMA5gN/gevkp9xnsVuz7ou5fEN0knz2G90Js+eLZfY4t/OwGx84YWGgkxq/Ls4lD+9o31Cq3xRKOpXBTbx8I1jJYtna/ojtzy7rPktUaJP9TWDR2lW/F5Fsri2ETSpFpc5nhtiALziV06wCc5tnixGxkLhn0z55vIK0+jZ/nwwmcUxzZzXHzolxT/o48aBRtmmTnDwU/VBhnw4mKBsuvpDTXyJBf73a+54HiS7F79wQNf9DC+7CGWagNjxhgIIjbHuK/D2rQAAEAASURBVNVm66Ee35GRPn05z0me+eeC1ge9v52AbB0uPjN2er7vdQV/6Wt62oR4DsvqnEeO/AAtunUzgQ25A5h5ALzF46j+zonC43FiS3rrQN6DyhoXjZnY+Erbdouma8K+KfC4zwhC63EW4UR59MDHgvGIh2Ia3AQcAIJ0wB+/MGfsN9k1XvO42LNdZ5E5OnUzTVwwfis+hthtYoP5gSzKxIovGBkH0VJMQp/avusgftjrmTc0QcTWmd07rTvho/ES3GfVya+t+9trFobHJHFy4PXHXvul340wwPzDKbQgrvO40iAYkmCkKIxlgINXDmMSZJnQWQ4CnhIHh1YQJRTznDOOgVvwcZRu3yjIgy9trE4mK1c8v/u7HxN2gvOQEzpu2UdsAvRIsugSfZJ0xU86MieCn/4kP7TJCHaAk/gEFo+bspVJDi38gRH08BXYC4Yxxdi8LZY6leyO8Zs9KB2K64rkOhg1gKBnR6ZFSHgsbvDI5EVW+EXX8h8uoveCIiHLR6JlKXRb8mMDesBTvOA345av+kk3DJqCbHRKYWFJN7ZD30ma/vgnutlSgzOmjI1kmh8842tEcTSmqjciLfZSF2lOcs5vIICTWMQGGJ3LiN32tuSiq5Dig2lnoZRfZ7JVrifhJhtD4ov4PLyAMT65K3PAWPiQJWni2wUifmBBlDz46YjdOotJ6vhF/Uom6Fa/YBtJEreBQZIwjZgg97o2DcQLJRua1JFFTJhQdQr6ciQGmPGsT9Ep4yOYYzG2Wm/NTYjop5gTPps2cG8g1O26cHo2zvjBvDYcGAEDh7E/dBUDzS0KydhJRzoal7MD0d3WBR8s/ydy3CkLTIPfsKk4qtCz/qmyCmNPO3Yj0x6XnMqNXotAFbyNTqZRvX4CxzaN7k3ivPwlZNNgm+0BpuKRUx04df8Z1cFHsvvxF+vlrEvWCBgMdA4PnRk3zXsFEh3hNXjg2h+zLoRWyVBjlSQPfmLQd/TY9MFFMstPiguQdXq32XlFcpDZ4qaeh+N564hPtL7VRuzk0HZ/6DJ2/XU46OArqz0H+Gao40HYfpt/UQkuHe0f8QPHeB5zkFmnWF/RLv+gzzjBUzapL2vDjJ/IHM8i8l9ghJZ4EjxOUd0MM0eAu098EdTYA8bLfWIGZZAEZBPG44RrmgO3dAfhySf1GEE4bBj8bor4MFbVlxydtTJzlQtHYshn4Wa7JQaePCLbC8QUDIXJXlgOuCVP3LRkAsgODFRJYoS3FJpJipJOTtgrHCuL8SrejRCEqkGbZ2J9KQwcYcgpvGGbG9DQC64HgtzlSNILT/hJAx21gYQQPVj41DI+djnB4TIGVHDoSByc8Uvt13t9quNgzrGDl9ISOEwG/DSTSdRZHIOHbF5KY2CyWYpPwY9vCTZ6BZcOvoKQDIKp/owP4ytwq5tErQI/fBz9FSwzFiB0fKj351uxRdEg2fKJxxgfZOz6vXoD5PHYjh/DC32qG5OI25a0OeDFFQTjG77wrIxw5HMf/+J5EqqPszc5qrMDT8l4MK7hjQEZs9IN4uLt5Cgg/GsDfoW3J/MQkNx8xSo8eFPi59Rp7z5k7KFhMloXvdLuBVp4ve0Of77jDt75wqfxE4xDGfuwdXCR5UmNs9XvKwLpTEwRmiw6aqpkwuvkSY3+xBcHPjIGiByHGYZDW53wS0Y+XX5HwTRDpDqLj/VFbzMTT+uz2TKce4p94oHSKm6nMjzUUF82QKgZXrDHVvTuJkdOhjK4GKw4wy/wZE3IOyTSTRugFmYURdESkHD3mDvrC4b48l8fI4/kkyIfcW94xr2+Q743YdIBmpE0JMD0n6sp2SNrHHO1c/lD2K6PzMafGJ/u6lkxjwOIV9ORAASncLcpY+2mP8Ch9AyPltLRboxe08u3vH9EHzSVveaH5OJRxt/JcvjRT4F7eZU2suFlFPEVjur2gMkSb77VrjYr416CLzv1L1I8LDsKX4w4i9laCX7rJcC26lh+V9I/b8efjZjkpY1OXPFTdv322C9/x/e21jomZhw8rhP/4aWLN0nhe+6OX8mD/10lGLzAo4En9Wjklu4s3dHaAn3mPb7I3Fv6OGdFi44taxT98cEoVaNI2iyEXWxBhKAHrHgO3ts9aFRWDnKCWIvUole7L94x6PQlyTMpjkENPnIJiiTdm2tR1+BO0qie6JEgihnwdYKc8+Uk7hVQAxB68JOQjwFmTOC762aHGZeFOLg5n4cReh+4GgzpDB4wQiSJnUAPHjrsfmUgS8MZHRwcxovc+Amfh89qj160kcNV3GHVgWv9PA7jN2+o0IMDmSThjAu8coRTd7LAqp/5aQFkM8aEr9/zaCRTKTZmYcVmcOCxF2BZwIi19JAcMzHZSHLk0UnlgJVElxhFd8Pkaxb8NdbIssyxQye2USwZ+daA4k2239XvywPL2MZG+CVuGc/oge6OkVHUcqt0CMQm9jB+TQR0dTyxbcEHpzyBL7x5XGBbBOfKBdqXvuQRLQS52tB1X8aNpA4vHTZPJ9/VwlRgKgdv4jKbHHgjrzKL5/HGrou+6l79exZz202CDSwyLXj/AE+HNy3MEdoUdukcRLfg1dl9QIeubSfyxgTvM/BSLIYLz4udzm6LYN2ZwR7aE3/C9D/6c1UtfUAAb3Bp7sUxR9JX/7J9RxharsR8pal5wUYb00gyvpoefOjxO+fyOuJNcaaxTiFecoWP/ynQFZczBR6MJ0f5uUMfO+6V7vSQ2IHlKj1YtLlNz0FZdxWmbiD1Odr2POWqXIe01k9VyVapxLHXi++zdGxhNeiKkHVGsSlaYMhyzA1O+mXP8o06ptRbjOJdrQcce8EucCqLPidP8BW3kUP8ZG45/zmeAqts4rPjZv7CIZ4p+J0+Dhfhgs+BXGHaqD57Rxbx+OpX/0m/lwN9NxbQhx9rFWT4N3ypq9N8Hc7IUIV+a5KKEKawsO8J54DDnEVNLCeR0GcBIqevdwBK3wlUHsIyPa5FIov1ZWnChTO6EaRNkE52oukGILT7MAWC3OhKQEeG/OUS9wLHoYfd6Y1O6FXdSx9dcZnSwhkd/phBxdEq7QdOPTzqu+JE7/LfacxEH8hkYLPRiAx4AvdCV8Q5H7yiA+3Cilq/MAYUtOk3B6pD++jH//u5tgaWoAQF/3LliF9f9rKXLToT6yN+SGwVBm4LdQcxCSqh6S7LUx/9PbKuYpsCXYslpePl+tjmDn0IbdFCI+fZf93NJ8YO/rVZTD1B26582oXBo7J3eCcdNu2FtnWwXunrWELfvi5mlWMjPKlJyE+d3vCGN5wefsELrR/0fllHvKHrokf9TCfJZNNnP0sWmyTGrCURJu+LDr8u3yJXMQc/9BCp5ZqOxl5mDiTxqmPanM98IX4UL4jUOcAFzz356DP3JudFo4pGwf/sP9Hx77IUNlN0ddfPodInshkbbISX+S30tTkAAs3SRzR2SFHbll96AYQ/PZ7mvVtXIpiO7px7CAwdScK+N1rwrH9pNjZU6eOArnXjD56/SjV4e3y03kcHoDNKGSnMlL9nvuGnxhl4q8ybb7USnL2+8KigJz5R4ZNjvODEbp+5M49sFZjhJR3K83L13/UyPT5Sgq8cbLukWWMpWa6L+X2w9qEPhXhRwcd7XHduuTMIqQqfWDeuaaGXZzUfuVPG3doP/caHFTMSbvnScuaI5xJRJxJyIkXe97k46cEyiOXHz3vrt+rRjxpTmpxhADHnY+FKwCAgCUIBq10Qb1c2gXCFDnuCALyW4tOGb9+yb+LjlhoGspCXF3UtP8LO7dw9qTjpyUHwdaKbmVtapEQH9I/eGA8P8HkugaMr33qSsJUMgbWUH8+dKPcUGEm0wQCXhbaD283Hbkf0yO6xOrGdJfD4C2Y7brjiP+ncxpzrw54BM8zoGH/gpww8fdbTCLIcm+UrZOVsDNMyWcGFlKM2LF0tgx9rwXZuvecMh50n+PT3j69gX3jg/8gtDjz2xYZ+im3Z/A9/x6R4HTgsWrzQGQ+dT6YsgrbjQuauF7KqG0ZbLyU5cKp3fKKJpyvC7sjROTYk+UVnbo02SSYe7XvFIC+e+qd3UUgFeu5aWWf8rnZ5GkEf9rH06ALU2GI+4Q/mKzSFs7hwJ9p+Gn7lxRndRHCA0EVt7MBW6FvKM1ebuSXZPs77Qma64QN3FkMnSBCRVzlSrnAkoTsFWfi2fWuR8sJnRNuLIzbtWZGyUCuGXKcXO5A/mIX3bIGw1JznNrefZesuDbr4b7jDU//8m0HjD/wjI6AyXtrRn+uFbnzKmzO2cIXOnRQNv33ScTFe/aJGfemz9e+IY07X5GODhU89PtKrtMDws8dCPOk3F8HggWySRr+C67iB98YDWmzruKAnbcYza2TqN/QDQ7WZfmKHFwydTNFj0THemu+S3TM6+aU91s+5IxAZB06TL/GK9TtfeJOUA2MtMYSPxLfOnrfE+l6wlSI4t7tlkq/OGac9eetWFyO2itdE6cnVc2/dOyeKjrlR/zR2u2SRhD33GQcmpcR7Lklh//iM5WpMR5I8uuro3xnHI4OU5A1+eTJjr7OM0A/Ai3Xys/HE18Zx5wQ/Cahfb9SuXcgMmoNwCLyoTmD7u3QyyN83l9IEjd+iFy63wViQe9s9z+Hlhnh/FGRCjJMXJBV40odDOJuXr/7kQCf2uLz0Nkj6goeOFGh70E5yrnOAUNCJBS3w/YdlAidhBAfs4rFgSEKeqzLQGnDwkywjtz/w0l069NEveLQj3xFpeiYSjzZqMxhMwMgr/bkN9QG4e/GiZv+e4zM2bB6wxRsQ+zg6eFFjhVIhQDtpkVF+JJl9wlOHV8/1UW0D3uS4Xw0SCyTzy7LHCLzAiV8PO7rwQQtODunNr4FJP0oXNv4UcCaebFr4WbS8ISF2bUOuWGubf9iGxK5E3BKeE7Pyz16I/113fOYkOfrHD7Gnk3+nz/sU4qHY+pzP+ZyJgUOGfSU9KfCtnrRrq+frzDH7V/UuVixMJE3gl4ndCwS8hxZ+fqY9MNrQMo65WiAWmRtJILaTRWsraIpPjmfTYg/O8Cw8+rEopX+3xezwsw50zEKW+Fx9VNTPPOMRConHc87jc8SyfT6kJOzK9/we3Xn8wjVgEzv+lCfsM/y2jy9i72uzNgrPh/o7ztjIlZd/+ZJ1Cnvqm/EH/NDJNtJQAY9NILgLPvztD+BB9ZgufWZcdjrwoLFsncFlDBk7Sue6G/oAt32G0cbH0pFCH/XSVTbjR6IGtzDwm5Q5zzBkzNFjdNjxoXlQIY5J6OBymJ829NzKpq/F9qoBzLIlgzM/TezYlD2PvfKVpxc/8sjSk3GqfeYjvjvP6gnvziv7SGLXvNCYtW/pgp/UiG+ONar9zEf6pSFYrrdvyR+cw0JQNf+cH85pwicchOFHWrYdH3DlThdIhLfrTBbhOdy1oFJYwIrTRX1PNu0z8nwAo1zyAbbzSB03apfpK/8kAg1hBtWhAVXKkYCiL8mWTYL/eINQvHPSGb7gcgaHQtKl0H5QHU/YeGMFb6o+NWnTaB15TUokxAYucp0ghUtypfiqTPX6LjjRLTomeWpJWHxMqA9wKaVNg8SpQCXQPAnO+7NBgjbB7EkinwiSwFTgX+vksa9Cf/gG3zEO+Ks+hD72dyNA2wl0Em58nkXlGAP5HnmSs/yx8YSGPv6sKLyEadksUujg8IRe/3x1ZF/HJx0DJlVeXESjxA+kETP8ZIb5geE+dAKfj+hcn3rRB4leIcV/yM+zOXdorNrOOIBH1B/Fs0sAT3rZgzxs9dUIDZA5SRbwlOqiCa1+XpKsnOpRnfh53lJBmzjM2MVDAoo3i1ETC7w6pk4ocYZF85O6LGbgUKjXZ9jgvplTRtho4QUOxTqpbn+y8KlOP+9nNPkoAI2LfrnaYRxw0DiF3u4N5QPrqrXCMnAMRbyRRVKtTVEhPOI7c82H5MsbkoIsZrzo5h/wvVy28Qlrm+Oy8kVAm7JpnTYbCsZ4L1HOcHrqW6MUFxz5wP10mCYtYsR6VZj66nM2CYwzseuxEIeuxbBpzFBvISacqKrXdDjelLwp/pnlbWzRuQl10BdvZBxX2rG9MWteStpsDIARS9W9fU2u5W89vLZobhHDCayKtR40ynN1qIKL/n977xpjW3Ld91V3n37d1ww5HA5nSI74FjUURYZyJIFxQttJECmxYlmJzCh2ANNRECSRAH1LDDhAEiQIlAT+EiBKABHWBweBlYeRfDIQQM5Lciw7jBhLpEiKHD5nhpwZzus++5n/77/qv88+p7tv9+07nLlzZ1f3Obtq1XrVqseqql17n009Sk3Y32WhU206dqir2oPGnGPp6acjuyA6+rktqKzwSBw54I/7gfsPJ7KdxyKRR03rpToFrb5yIFsUEm2MMF+5F5zSJI8YQZggUy5siW2lj8bBXqlGqi93xDQIKUHah47keDMAcyVwtUNO4asenVcrU1WEjBMcGtl42DM/aaamKF4y0AozNRqlu4+syL80V5kwGE6HFSmDaAZBlaOvgtGzBlY3fg8+xTfOirKQN3eG8CkYM3u0G4fQ2bmNM0bxskXxoLHiuIbVmdIuI+WRHO5t18lvDSfSJU6JMriw+i4dxW8ko3SszkBDolrRiTB3KMUPYyXPuNSVUNGNQCOWMoaZlcDFk9zUqzEHmuSXXcc44KFzn5AhS6HqpuJzp6+09aitwrKb0Re+zAtdXcdVRuSrVMKr7xCUHMoGpHco6ph4H2yBY9OEKgP1pZYlHOziWXFHYPsQu/iJAg16li3ybm5rQOcxR+HhVvwOedGXHOxf/LMFX6wZyEQnmhoIqDt1Rgbhfg1eV8UX6ylpGTyGeqxCD3XEiOdByOVRO6MQBPBc1hoEkNdrUJqXI14YvIRr590HwXEcnjVmUJc18ACDn6/w7vKQGzivaI0MyhNHiHr0Owep6f7QE9YNa6O+7JPyFL6tj9BOK1mKwtuVJyKi0NLODrTTg1OASmZSIE47KXrqEKskXUwLK3HyoKGuoLIseChtbkxY1F6gUq7lgSuDmYWdp2KLdY0+oteYFlshJzttcdAuDHYzd/GOzcxZcMmgNtgx4eMJXMYHcGIMXbvl5rBOZ/ngKviJG+F6Z4S09INFgutCAH4/gOC6l7HTNg3rkwLicfTku/1glx5o18OqFVx9qmWVbUBjJ5C6JLDiHpff9TDilwkBuG5ruu7c2rEM3g4HDH2ROw+yIfVAGQTHyUdnxgZPmJRHGzbVAm31Z3iljSeeNuu+K6DbvfbYk47NkT0Oi6nKMS9l4NppF/MgiJKWje7UifBmaXBBrQ4lMphw0rNnMCAGRyrKQBEPnKZdufxQA3GcSw2u1RBRyC1zrlHnUc01LY6Kj95Dpw/v3riQzfPylqtGbudvHBo/egTC6g+5vdFRZg8GdHZwCaV36d87pZQh1w3IDYry9paF4ehYXRc6cnVy8OkA9cMq6J6Gbgci52eupieOLvqixVIGNyx0Kac0brwCKhR/YibhS7xQI3KQnTh8yDNMMZcHqQhOWjz4gyF4qOZ6VgWEF1dT6EqD8gSFBmR9zUzk1fHBrUYHTZx94SSNbOum1Xk3veipSQLf1Kc6nmBrXa8qapUtelWnAbeoUm5LFsH4pHx0DQ6S4BNewLH/+kKZ2AHg/EjXH8YJ2MSCyVOZ9a5oMUuu+VZCdQkq7U+Ohc5Hlftq+Ypr0IR2T+dWGECiE/TozaBKAA5tAmmCy4SB0EO6Ii9yBl6ClQ8Er38oMzqQocELWbSD6nP0YXiJp2CxW9Iugzi5p0NjY1gZDdw1aNr9wXvgqXyFqrfoga4CCi3BvVFAb5mitzJpC9CpBXRkruHlqPWEkW8HCK+Gp2JsO2gsAzbEhes+p7ZMWeHOH0bmp2SXAzj8EdyeREfZLBM4BbGO0bJ4mYryYF/9l35CrQpxuzBTfV2+dMlnNHhtqnmJRiQLwW1Vcuy3Sx3ly0aM1davdOf3AFDJcsccXB9Vt2NwnDlyCYNzVRxHxLgs7clye3A9Kc4ijHzoCSxqqn1XO0Q3Are+sD2BfNdDpyE+vK8d3A6fy+2mNjUy1S4l14sUwdI+wzOOMvKSj8OGJyH6uk6t+lwn6N1OhQ/tePve7VDyw6fsIp26ztiv+h9lVR24b6XvxkbUlyZzNof8GO1balkzzNx1VOV1IDB92NHUhQCnIgcnUGf5Cz3FEwIahmiF7qauwdqkok4eFDgpVuAj1mkLusrYOHQxJQ6uOziclO51LKOy6i5ceNZjSIUDDc7BjlE6pbLAI8A/K9IcyAPOO4HtIE2DKF4Yo8MypmHoUfnQR6sHqacUvPlWnlRzBRsmAjtx8tFJ+KIDlzSY/iQNTHEPiIYhqXCI5SOlTee08OAhtrqEb8WBmaWS5qRKBxfZrGZrdVxp60M+PITlxuhBEJIqM7Q4D0/gwJNocKEpuBpVQVzWyqoVYjoEMIIdsPiiQ2wBLHFkJY29SI8/1Cv5pYTqZ28X7Spt3Iq7PUg/Jm+yvFl4Vj8qJ2WIbc0z5e36MMihF2Xg4zZl+cBFKRghj5oERocLTa7ggQ0Oge1uh87DcWW5zUo++lgnUaW8tAnoh4HAA2WxUakrb+TYox/XyC3sTiN49GMggYcQnck37Yh+y+oPsHcVXCd19iL1gp1oK07n6oGCeq1BykzNU2kNVOPgdi98+JgX/IgjP33S8gU2X+kqOft+x7dwuywPRF1/IZSIbl87AlqC+FBfHj/Qjf5A2aXToJfS7q/uXKpn8eed+LQjkffvzh5du6zKLbjbqfL4IxQtBcJUBTOO48qVLP661gNd6M1DOOYomlrZF69M+IyrMq3rx01qbFT71+rUnN1WkKM0cfULmwbv7nHVA5hsjpMYwZT27mend2H0ZceDMfmMApNhAvkloOIpl+HSyBbpvIknnZ3KwKyLWgU6ACM/eYo40Maoo7TlXMkc9xfi+RSlvqnrURmIQ09IP/PE2ZDi16O+pC5t484/9GO8xMd5xD3eKpO4xyfFveMqFbwgpq5d7j6O0Q4xhVtK9RFZR3+yYbeR4+4T4AlcF/dl6LwrSLujXbtehQB+L/ego+SwMNdPBHQWaoAQsw2jPuTgWR+wdR020rYGAqyfYjhLGjyDCDx8BUbeiCcdCD7D4A4HwWoQnOPTaVm58AtwrsjOA1qmCeAjswZOygOtFFCoinWUlAwvHfosjYr2IAC9tkPckYLar+NGMs4ynAJ3e5CuRj7GmsfNm8oWKDyRzyzPthScCiCPxlG3LWi4cx7EyKuSzeHQp/LCAz7Ek44MqJIXPbhSB8nzhMuaFm7yyOdgWtVXdRZo69Ro1X54jXWCjjR0gaMX9kpnA4eOYAeZhqT8BPjadr3uoSfY5iO+Ked4VQvesnz4EWKf8KM+WJWP9YI25SI/9RacdODD/nOk8E05qUCKE3kuR8qlKx0x9M6DWDTBr+S8fkija/QFb8wzA0vaotPCwfa1IimbDzwwQ9fHMrvJoUdvbEH9mo86j1cbfSsZWPRkBTPWAz3d2Rypr+gcOtLWU3zNHzRPsrV6YdSQzuqsJnZ+376npaIb9MhkolIvbClnzrDYiTyeQBt7GK4xZgg97gEdMn1YndNTVbreC5DDR7owPulPkpwPnzhx41t04cATWNokuHO+cx1sw64yODg7Xm60xoJFV8a1l15+yUMaE6CMVcitutMVWUor28F5FRNMvDR+EuK4VJh5nAylhzro7SE2s/6CZVJBWyLOTgN57muiH/NIcWJ717XEDDKQuRTAYXeHgGxPWuDbQ2jpg9isdgZGNJ0O9LSNyC/8WlWXvedj5sB3XiW2TWwILwJ0LofS1m8EM0L/Am/YHVScuTNnfTLRDF+P/Wof4zCMBbIDZ4fwcPGjLEAd5JyhpbEyBtndKWX+0o3T9OkjB+q/1NcKh+OhkDLw43hxDcjCpLIoGMJoSM4Tkm4+qoJpwEIwHjR1GICGTOdMRZs0swPhOh++eEixlR5etbnhCA45itg6ku1KAa4wpq04eIILj1P+TEb4SwdNBVaDrZXS0EikIUaFv/Eph+KItqyRbPIlxHIQiAwamWWJzg1AssPL9Ogi/sOAX2zdQMIfvflAJzZ1HdFQQeQTzBv9FEJHPINI8IBZn/AVD28nK+0K7zzAS4CWhkjDIi6SLg8M0jyeh2xZwlccYddbyNEt/AtH9dj1zxVd0WWsK3ZkRk2e8ZAiGQxI/Dn0zh+6OFjyAosOplUZxiE4uSYvdRN+yQ8P9AGHfGBpT8nnSsh1TE87Gzp7F2g6SiX9QtOzevsqx0r+mFdwxxMq8mnX0R0+3grsOrnNExcOITzCtwPn/dQAurn4xrELRpndH3v++AKuh4AuY6wLcsYyrQ/44hc7GqZ6dmA8QZZsPQ7m0fkDD09wPdhBn/ZBW+z0OaDHuMWf+7Dox3GUj55MVOywxGsFnozOCuwIZOIQHrk6n56rkbZagsi6LiYefdGe3caxpuLgqcSytfqW+oQf+8V56o9/VvT107ocDl4XKHRSWmUn8JiekcUr/cdpBhPZLE4fLAIyc/8d6ciK488OAo9VQctkgwnU0A/h5639qkPXddfDzJWPWKsEXGnqKnVtnGO+wEEkeExoapEBuYAKEjnUOTBkINv9S9fUn7Ckq0oluxW/whFHUYAHt9LJfAQ4oht10nXmQCr44e8rLAjUX8Xm3+IXWxqIrUto2V28UB5f6npAyR5os5SHFb59bYe733UvTsuocksr0fIo3BCk80IQrwSf3ej5aiNQlbMJQlA92CkvW+A4U+epIARWxzQaArh+jrgXUEU3nHwP4h3uVQEDvFsixme2SZXUY1Qm0teYnjwqgT9Czea4b10yuLqxSwYDCEam4RCHjoAOGGuoAIETN4K+SIOX4AZNgnoSv+PwnS06Qg6fRCbX8COOjuAQD07o4R2c5FUHKN5VT6XjWI/lOLQ0HODQkB5/kEeHwnFEJhMtComu1DH45OVTtwOglO3dXirOd3ADGcsMfeQv4xyXDv/oNsZJnDx0Hcseywre8hUa8LBP6MMj8oATcg0P8BxETxjTkR4PHNHF8F7f4Q/dwGvUBmM38JDNh4lR5EQG+QmLq54avOATXSIz+Cp89d9eFPoHuGnn0S0r9DEfeJEGB3zi2DFtLTKiX/imPpPP6nJ8DzOy7fiFBD8C9NGPNPFa5Q/KD/3N+oJE6GMTV3jb+XeYtB/aL47dshl0Of+hMOjenW4mDtSFpPsvePAa/rCL/hJcZx2ficJ8AiAbqk7hRB90XucCbexCLZkj46QcLiG6MVbTVytdervtSGdylu0tQTJetec4o2VnA45fNywbLwTBbSPg8BkFnKrrSDD4ud2NxobUJ3TgEbjyQffkJ512BR4+Arn8VgKBNpEFC3jhF7nhBw154cU1IThDnnQmFzgvfwKVvKyqoSM95hFeXLEl8q0D7UXp2Nd4sjl5CbQgAvwpT3x1cChf6T+vA3Btf9HVRID6VZ3MUao/d7v7+XZW/j2tA3WsVnBC1fGZyUUwjFnduSEqngFvX8+I8mB/bVcHW6sQvSRA1nJFG1dZKTCnHWtrh45aAzOT5VWdjqcT8TKENEwavw3hRuWoG3vF6ptKyWqaeHT0BCM2zVUkKyo03cQTI8FtVBo9Msinds2niHDC+QUoQ4QGzoGU5g965DrYfnRIGHU8r041cSEPvoVpHp2qIMh1bvEVQsfUDgd26nJsE+JDbo8IQD2lHEAHvYhDgd7wUhpbM2Bk4GK2TiBNc4cWGfyIQhHoSjn5pxxdP+Kpr8C4jmWbL7LVxuARmaTB5QOPZRroxiE4YzzifMIH/OQDi+5DZzUMC6hKnNnxbZ6CO+8YfdLu4YttKMs4LOvhvK6fOpCTpg0dMtFB1/Cjb4BDPVa/YwBYadtbm+3GzZvzbXPlY8dx+V0P2LS6+pCPYNsEueJtu1AXoqeTd5/mPhGeKWvyTNP5EM8LfdAzg6wLCA68hTMO8Bvjpo7AMbzrhjwPgBpvHNRfKT/jkgPjkP6Qma1P6BeCcHCQ++4n3it0tm0NzDwAFS8GdT8yaBnmLgka1lQXxrJNBck4pqt5iV6lElgABdeFYNVzhMMgI3kE8ByUNB46dvsXRZUBvtgvfcS8yGJRoUvJ1bWPAV6RK86f+xNx+PZQ4xvlJNBmKiajGzKklSpc2nbHk8ol39/Gd11RFi3GwI8tqY+M8Sqg8jsP3V5FVPqamegLa2jOIji4tAEeC1OdYXNlKOqDZtyzN04nPDrpUz3JNrCBxgVVGrzqR0U4bm9um8LhR8iwFXjkd8t4Byv9AOo5rYT0MNDY1AWvZkjJVC4mb5JBGcvu+nY7M8By2VK3HI+9guufs0ZDGSlUD3lcznUrOvour+R1sL2VwNfQ7+gboNDqlLcKQzqQZwRpALp6ruqGgCCIqlFye4wtnJoMACs5brCKujOLJ82CbR2CG6AbhpNSRJUoqDuqlMgADKta0RcNeATTy2DuHMIPTvKCF0eVNHR1kEOYUgWbJI8GGX6+oq94U3mEoYOj3+iTfCPpS7nmnTRX84lhlMY2yHXntRZVJvCMb+WqcpI2XyWwJ3TGDX7Xx8TgKG28ETx6RoZLReXT8HoZnac4aeKuB11pJAIM8MSt20gGMgOL/KThGTmOywaRA07ysPOgY9djzAu8cRpagnmip4J1l17YYS6jygRMQFs9vExkwiE26DPI6vzAGMsiTljWmX40hlkmckf4xKPrwKPrnLQ7KQkFBomZfjwCmsDpd+ER3uhMOYGjB7syXMn3Z9QWO+e6dN1EOK975SALuvCEb+LKNG36LnA+DuGnBA44OoQfOFDDO+UBZh66AsvqFXiCcbtcO3bi+hi/yzSdYPAayq084gL6E4cmqPutOBRcaf4SiA+Om76pEFpZynnL+MVhzgN6cAl2foqOaaiz0ORKmcYh9Lz3AfnRYYxDfBluXMoDP31Ki64HBNhjOfRx3LoSx26jj3f3vMsqPkxYZWe4RLav4Pe24Doj3UPaCKz5eORQvvHSfsDtMMPBVXpYvY74FeqcP3Ijg7wE6h96rhlHveO8xAv8crijfjPCCX0O6bldRUinzcTA42jPA692uOVTVOcOo/5oXMG5xjad1Bd4ulxuLwKFB7ldv9jKBP0LmO/A+/53r6yiwWhlOByTC+YVCJVa1Aw8FVgJSjHNWMbBDXls+3GDoiI6MvWqovUKRFbd/4EngYEFNjM7+moWQyVCHBwVhnuephJcnGwwcKOGqUdpyuKO1Y2EHuGH3JQ9MF+zEqPjQI9c7Urs7urAIbyV5mNclZkYH1bLPkSTSqLMffKCrJMC+jlXX+C5rjoyecxebaMuN7w8eKCbJmKV3+tJsMpLDRczGsO8ceJMmIxY6Lw8vXzHyYML9iIvOgAbp8d0yeNKcBvrtMfFY9Pgpn0gcwiiH4LiLhM2FpiORSe3zYOmMhMiLzgdqDYn2y/pBO64nClTtAiPwFMPoYGeT/SPfK7QpDzoys7RSy/qkJWCdXQ/K0nuA0MZcUaFk1PP8CJEj8QL6IxebrXNjus8fZH2oSfqPwd8BEcHGXLx/l8ncl4YcFX/wP7Ih5+1Fr9dtVfgOGOuDl1+9MBtDHHR+H4jutDnCMS5xOg9PeSzqJDeyK5BsxxtBt04bjsk0fJHoP07jGHuvZKlvzjs4CMPnqTpiwnFsXhalthCDw71m2tg0EHjNiLZbjPYL/oon3HRTwsJjzA4cKeU1h8BPraPdaux9FD7uOwmHPBslPh7TDBm8YIOemjDx7oAET4hY4EUQRnDhi/bGaRe12oj3rbvtOjKjjBXTwywpHjAhd0T98uUtauvhmb2aSMiVbHiNZSlfo0l3ba6Tq69kW5pQ7kiJ3GYw3vE0e17bhGL95f7qybMtA/3Q8rb21ZgPpAqbNLxhYGFE/rRXtCBnWHwwgc9eusL+nC1reArCOML12X8cTkgHPJZPbEiKGCK16+CexXL7LEbkcplC94vppEwAvdsmNW4cSmdhpkrVclfCsAPF/gXjlRpGQAYh1nR07hTkcjMvWy2cDAM+ONgvToAQ5BfvCseXIxNM7ZBMbAMxifp8AGW+LIsykNeaND18uVLhtVbwUo/4MFBfuJjeHhHVvTkGhjXxN3hRuWHPvYN/2WegSM39KFBDvnw5xrdAk8eacK4Y0Qn4NERegL1BW0C8sBZlkt+YMFHhhuwaJIXucEJX66BcU1dpjzAkk8eYax38tEbODi5zw1u4MgnP7ShIz3W0ekOI55yhBdXQuwELR/S0TP50G9s1Fu1gJHPYIAuwR230+AkjzRb6NnCJg1tBkvi5BOABW4AfR6d9Cdh9VFG6VB9BrzYFFrw+RDAS54B/Qt+nHjHsVs+4w46kd/HH6Ie+LpOXjGSx+h+XFCe9SSPuHTwKh4HL3XyGmSPPZroMkQGP/ezISXfoeuRtHElm5GLOLHQR2fqyoO865MRDGzqthY8ceKhJe22JbxxSLvA+YLrdmFpkig7qVaMTh5/4xCdgPPaVQJti91M2gBlxUHjYLPDaS5KA4/s8Bz4UXZ9HFzOigdWzlr9x/dxqn1Rp4T0jfAHN3m0K7cTt2khi3dC2uPQJnte4MaLDPL0cXvqbXCQ0RmGD/DEkT3GI02gHm3rpMWbcsSJBy+46fMbsrmdtXSwH0RW5xfcXKOD8XqfSR7XcUjbAtc/gV7N+tj+hbwa5eq69sh7fuI/iOIw1QTRhVZxBhk1AKlxcD+lw7nSSGjqONIaaBTXDNGUutJAcNJZPbpCUcCVVQ0NXNI+WCfcGiCQQ5AyyqNxYHoMOx40FgwNnnCoMAziuAxH3B1J1zqUUQOQuQsXHuAkhDayxjKCm2tobty44WhwsVdwAosMrvmE/rir9ZBuhPAIXvKAj/PCN/ngp4Mt04IzDvBxIxY8K5xxPvHYPnKAQZd09FlOg0dYllnQ+k450IH2kDS51T56i+g2Ca/ICq8xPLrlOsYJbGgvvRx2aqMyQRNLRafIJG1nIp0JyQdmnA4LvpH05UGGAWNUB4mHB7h0aPomgXz40iJiozFNyiEljD/IyMAsqCfwKox5gSVUdVOncQBxqsVB9Y1++tBjqANwwE/9uF6wFWURDnz5WBelo1P0hJf7cudBWkgDHXnRCR34mGd3QAYIiPO2nUCgfL3Mbp/IEBje0Gbs8JsBAy+E0lnf/DkIXiONEUdwE3QUBm3Kixzprj+C60pXHBi6uczw620huFzByequk5uHeZld8Sz9hcuqZwg9T4R2yEpGB1CIo4t33iSLf265uh1RDMhdoWBXsI2Ba/w1d/Ms3V0/iO/1XHVEnQvJdQcP5MAcs0vWyPaG9zT5YNlqajNpH7YXmQrArKbZ93iHj/vCHE/lVT4qpl+QR8i4MaTHfYnySK8E2g540X2cB5bbf+dr/QQDB92xd9VFlT3jqBCKfWRBT1yyaBfWG52wzygPHPKgrnYevYxadak861sShmqNboBXPvJn/m2l54U0Lp2MILkMCHXgjsMnpQjC++t1hAQuqohLlDa5vjQrc1BBCFTAYGgViHiMxhWM/f4YVjoI1auiD3iBhw6+CcWjZASPPBsoSP06zk9WKiv44woODlfybYseX85bpgu/MV5wokdwosMY96T4mEdwgNHQ0A+e4T/GDU5g0I7lJx/4GGcMJ4+Q/NADS72SF/nACcELHbDE0RtaJmHBC01wgKds5CUETpp4ZOOsaRehSV7ykx5fw3OZBpwE8hICRxaDRNLkhwfxyEica8q1DIvewLEJfMHFRtF9mTZwaMZhuT68mtfgjF1CA44D/d0nlOb1CBw8dEoY979x/Lh8wzKmzBEqBhxdSFE+6bHAr+crw3pZT8VL2/rOoG+G4Cvgfmv4XBrbnDv/yviCDshIOhIYe8bxOaXqU3/kO4ieAZsJkldYApKDDkwGwsPAUrHoQCLdrwOeQdSPILJJ6qmX2DzhjXy3CfRfCtF9+QoaTtoUouPPmtK2XI6uYNqE6qWCaglYT2MZWwH9aDM0D1B6HQy4IxrzqRnlAq/iD7sum1Vm4j0zbcPtRLoutJOBQUVis+AkvYQmEV2eMrAxIbDYPHBnjvKN2/vEQhsMYr/SLhLiI0mHBg1iYU8G+9gSOptVSANOIqLrJl+42m4qC9MV5Chw7XF6mhsLgyJ5SiZSSX/TEGpSWbOeKFMoDB6u60qGtbfjoasVGgMGxqzBpQaukYhBpcqnAmrwzECTioAmOMDGFZKBccx3nB84nYRAWY/LB5bBNTTIGusQONfAoRt/kpd80sv54zTxhHE8srkGHp65hg/0gYXXSdcxvzFd4NgnNorc43gFPzxOwsWm4MIzjn2sN/VKPp+EZd7Aw4e8xFP3y7RJR050yxV+kQHMPLv8pA3ruoN/XFjA7WWI7GV8cPkkxMYMUATL06qvJxbskXxhgekPu2bYzl05fZur+vSYZ2QaJuT0I8vpX+PJxhieePiRJj7w7GmUYNLgiUMpVKSOs1KRXtYV+ZSRMigEV1fvHPTxiu19xhBJKjy+h7FMcXjhRE4Iak3OgZ5YHNLAT6RDvGMexyp8vO0tTujYa0spHOhIB+mHz0owrdLG6fAxPvlpY7lNWXZ2TthUX1QqknLFqo7ri/qotK5qsx63u+2BEzyeo43gfERUTtu5qoo+LnIVE+lW/dbZtn1vm/Dq2pgX7Vf14aArTy5lM4J+Ci/fIuk4LmvwoR1/YJI8R4svdsnHckZ5t0tjl7RV8LwDswQb99dxHHzvwHS7jHn10trW4MWREx+Hsc+seimHSzzWBBITYFbgfI7jCa7twJWOXqhSR4SOm5qGIZjjNFJFGVjYKgTtSABaitEuertxpTHAkq5BA4bUZ13J47E6tvZrIJpzjyFRlnh9pFc3PnBCruTH6TtDXzSeMSwVyTX8g5s0Vze6ZPQr8MgODtd8QAt/YITkxdkACw5xQnQBN3ITD58xTlHVN/Dj8gIP7lg+PI+jcacVAfYKfeSbTy8rcfiBF77gp/PjoI3TbeCEvsJrzDvx4HAuArzgAk/9gkuIjXJFbmQbYfQVXmN+ZI/TY5wxPHiBRQ/S0SVXYMkfiR90BUZbXw7Q5TNup+Bhi8CCM9PbIgl2bN0e5BHilMup07+A1xXYPq9klgmjB/imGem+XIbkw99Bgzg4jAVcHe/yyfegpDR622EikHzR+ezOSFYxRB/qFV24B8+Wco0f/lnXPpRFLzsdIfgxVTsUkXLVhz9PIMocriNuBQMn+E1wPR7ngzCkF1bhuV11HqEtnDkvKEJphZXm/j5DMqS8eY6P6ehPqgbrDp3i5PXB1/rZCXZNoMqf0E3HNjttrZw8WjE+w50428KcdwKWPLSoOM8/ExeSeKG3UvQz0dh2xusFVh7B8lwvleabl/14OqUrB1M5D0G9vPOxd7b3vudxMZU86gJc0dJ2SKd9VoY0pG1IvoZ89VugokEpz3xoV8asL/Go+pj3L7dJ2pVC+kP6CTB0Sr8kTSAdWPQhPY5DN9wuEU3yoCfuj3QnhBeTAeyafGeSn0i/Bj9+Dy6Jg4vVyl59XFUa04BXEtFBiTKvE9AHRzmm58rYAC+bFgBBZStDzjlUYxBWnnuOUlReVSSVWAc9igss1QQQgFpSRuOKA8ZzxSi/rgVH/erUqgDRYSgGoFzBIh0DkSYvVxdEvDNoBQ4ONHEYJtAX8OSRz4c0W2qhxVkEb3yNDsAIy+nAyYMHYYyTfGCBe9DreDTSwHONfK9cepmSFwcXOeAilzInLzBoQjeGpWOATz6vn03AtsCsQwcSJ2DvlLF+A1wdtuMCT32AH3hnYd2AEcy78yQd3MiJDsAjj/i4DaF7ygEPMfUFvOBGj/AwglFLv+AGDj8+Y/nhhbyx3mOcsV45tIY+kQsP0sEjTR79A57IJE49HNfu8/4F68ehuV5W9Pb7HuCv4PrpcSZctO9dvdN/388g12AJDtvI8MgH2rHzFlPrY5gG9Mgb8PuAzj363LeHhwd4eCsfp0teBioxYTTyh/bvgbXbIHx9hVEvn3otKdOoVhnF/Rl2BJylcuAkbOLCB9e0BhcNaWkm1qUROB57BKcuiBM8jlHX/Q/YOE6awOE528dDKoJKD+8eWE90ER87YR0+5tcv5ZRLrtoy7Yx8/dnJid5b8krTPmgX5dgpMrpVCYxv+Xa7hsLTfVlXAuiUk7LwXn9PJFQfXFE3Dpmr27XqzG1baWDGZ7zv9WAcSaK8OPjnn3+uPfXUUzST4mmp9YUuZHjbvtNbbnBcLtm8p10bMFJIO6NtwMPjpK7pK2n/4LptiVf6KzTuZ7pGb/AIseeAIxhx+pVlKb1MgyN1P1Ub5opTtyxoBSM4LXicdq7O1Bf2Dy4w0nxoGTK8Zad/YA/j6xrbSKyA+vQAbnAAYQOC+xN6fvSf/XdoNVK2Gh/I5qA0zCxMNPy0n19LKu4aJoRfr58Ft2Z55luMmZLBRaxSQCqK1TkckRGH1iVUwYxT2kslwZQrWAKGJ71s+FRW8LgCI4C7jE/jCHxMC5yGO76OaYmjOyoVnaxTYgYZ2CINwQqMvsIL/gR3QOk51gU46ehAOgGZKVdguYZ30rmmfOTPaRf5MOsP3hwnHFLWsuM4Hx3HukcGOJSNEL3GdOGcvKRzHQ8E2FpMKqvXqdsENlJ6bEuQkBM9xmkzgE/PX25X5NMmea1xwpgPsOibskRW4KHjSh6dHR2DZ7quwxg3+EzIMrgs5ycdXknHzqSx0ow60TV4uS6Xd0jHtjAgSF9CDtN5oBBP8KNbaJOOjFzNQF8+cFueZV4n8I/MxLvM0B13pY3m9Ln7V+9D7kmiH8uiDHZmXbb7EjK7XOqLP9XMIArdHbiSr49hJBmMFFK+whROd3zKGWxjRH35BStIMF+kEfq39ag4tP6YF3VHm6nrygqv2K4JQDjABb09djBAjkLKAy7xXImVbEG6znXV2Zae9jmB2EDYOGCfhO+w8EPc4JxFK2X91EX6Ifm2d+//5gMeweXW1Sv06M6YTpkF95dw9ZYWt7FeF5DS1sbtrvJrjFGu8wf+2MdlhjI4xOcqFG6Nw85gMkVEX24f1L8hIxzoh3KpjhQvf6n+IjlkUcRyc4zh0qOXnQno/l7ZYWTmwpfM2IxmXWc2rM3Q5qyjv2Rv8BUf28N+SQpQ2vxC3QzhnNSjHxQJBZDjVmGlHlIFQGl1LlGuK6k5Tttb0QxQGajriqcQ+mAYJgJ+hGVXhYctylDqQhZXGlU5FLKhIUQpK1iUwq08MwFHvGwwMxag80wSPgkZfOgIXYSMJR76c7mFaH4RIcHuCHpnseWyrdb5w4COurrPQCdCBHaY9e8VvSI7MeN2O+2KgO/BxnTioZdEu0E7X4yYVfOXQoCndGyWAaJMYcGdsy7GJWnmVgtGWZHAp/7mJMSAEdCd7c/IYCGDHqkTcMiz1BJRlMS1YRO8OlBTyhRaxaEzb9nSA5IAJQtauCs9fDnZDvcEcab0qlxnlF7UXwXoDtVhQPXWrq5utZSfRuRAK66BwYOSK0PtGJyg6Eo9+9fT/POtXSdki/lQRggEik50LnSyHsrztadJ+Sdr1RDYhg1uRKLz3A41SMwAyk7jgGxkLAT06GFd/Es/S5cgrRy0omKFUJ2f+pUOA40Fq/xq4XMjhZ3sVvkZE/02LbXXmq4X2kyiYAfPKoeuLA6kS9o9OnmaJBkemKHQf9fSV9IsKuoxKmW7zuYDZgZSapw695CdevVvW4ibxyPZWnqvrHHrQfLA9PZ+9bMVbZejP23D8sWjxjtkSgmFsE3bKnBBoYGAPOA1rhQdhGB1Nj2PSRa8RSk7kE9rsx2oT3RjpW9eylRwXWlyV3iiEd7q2q7GXO3MiJYnjlgt2q6agPqV4PB3kAThI4XGkrquXOoEzbGevkHrj0ACMA63CA415sMDFkLRIM6XYFwNmV/pc6Qki/7nviQ9CRnn/GQcgMggLiqe1ecvPOHjupExDHUDUpzxtL9jwWqhGgVQUYyHXmo71gMhtrfyO4Txu+QAUzCd9JWcogJY4y46D+VRPBpiy/xqaQkXicQiv9qqWVT/1EsX8KOemNEXwJFtwPUXMNkYd8ruGgE9yJeYmF4TgEoMbYX6BIEg/m4LyJGdGF8kUO1C5Vd9gYUti7vaoBmPd9UpsAhKLKgikVU3dDnYu9keuHSx/fD7Hm/v+aHH9BOF1djApU5KCSnQWzpwBEY3D3DgqtLsXJXhAaZs4QJ6toPlgEHc8xw3iI5bssw3eMoD11WnK3woe4JZCYCO0LkzjRGMSLkLJwOmB3zlJR2F5rLFzHx9MRfKTYh4UuAn7TwlCo6elTPGIQ+4O5CulLkGFajnoRqIsOsfVYpxsZzDBY4c6irZ5qSOErKBDxkClj0YLouC7zgA+BBim8H2HT4IFw71jQNOG3Dhe7nNJF/Q9kEr9vBjIjZ4kCRTeLaN+EZ3UNyuXPdz27ldWv05bOCEPOXFbiVGQOMPF6trGvB7wA5pT6EvZ1V1ZbsYv/iVCtAU3+jlepbOGZSdC/JIVgrp22MIExOyy56i6PiGwl+A2MeTGiOU4kVe7W5wcmYpGA1Nge/UL4ogx4vlyjYOqOhgOWZacWCRX/XR9YOWzH4hCRntutqxs6qt9zpEEfdlBvZRYAJN6GJNE95cEYN+lAEchy7b8WVYTxu303eqRVrw9Kl2UvHqIycxL8ZDHUMiIdiMgdr6E5ey9bge+L1uRlePi8KBllspHr/A7GK5yh92fnCoDHObNyxRlHxjGN7xrBNuoXTimnqtdiSIhFBWdEEQuvOpsRZJokEAypAcwkLCPKIfKGWPQgaTvDEFMtDBwKEsYBSWZQ6p4nPkOww7MjwJQxkdN8hl6uaziJSRXNudCYr0KFoIqwyUw7YpNovfkheZZCAeVVwuAKMSO49MEUBjOcbpX4aFnxGFU3ljGZqE608+HMUqaM5DR3JP7nMArWYO9l5uf/ZnPtX+jc98ur39oSuaHQgfEj6dseOZNsCss1wQHNxRvunTeZOvqyuZHkrofMmuAg/sTd6xjMpX2CzgSgazwaGsInKbWdIT+jk/cbIOllxmceVGDyYzZS6u6Alt9ITXoIwT/Wsk06YfBEZz4dVpoCII0/AIWuhKveTOCwB8GXeOVbEx79vhHpcHLDrAbcyLdGi6bYZ80uCmvQRPsPRftxulY1/QCTj2gS/AZIx1STyjO+nowDUh8g0TEsIRnHYHHrR8CMhK3IAOAyy6mviQIaQ0vigIreRBHpXBdEDsGJh4l+U2gq4j2eYjvXHQQQ+v6u2CkrGQ2XkAwzbJjG1OwkUwCsZOLpvIFSwfupFuhuvL7MIzOAt4SmDrXg9kBR0eQ0BuGkQHkrRdQkTDyJLR+AP1PAIuASF8utwhTR44+nCxLmPZAoQEVJCGagbfBJ3O+gql45Q8IXjyCiMk9IANOn5Ac/1GTEGjvjvIuGGTuoEQJcEBX3/WUcmIcBo+poELzgqEInO08/W4ZgzwFDpeJfo3sjo+F+vnSM/veUbKeGodRUi9ud+Bq3iU7aQuQ8CjK21xKA+4lDXlrmSNFeGjq8gdUBd8f4hDtxTGuOO40QCYSV1NPoaF1wg26NrpuHh4goUSaQ4Z77hCw2ewJ7jwlL1qZ4i4/wccZws888xflJlBxPExk1x1R5GEg5vtX/7zP93+rV/6Re0sXG9XX/6+8th0K4ukjAIsBIQsh+Nwz4oHr2Xc4/gdhwfsONxlfmfCs3WFaeJlrgCXYcdBjpblNNl2Hq7l4pe6gm4cUqajWoywVIYBb8GrjHBG0QF3BDsuehY8JKehh0d0DX3gJ12DT/5xNOP8MY+z4r7aeMfpOdbxOHljvRM/jWacH5rTZN8Oj7zjeB6n793gHafj6ylab+CaAAAssElEQVT7uLKcpCPwY0PGiZ7Jaf2jQX1hCVxkS0AR3o3Nj8q9e8hRDdERaDQtjLkZlK7frVWZgzPX43j7zLkFcywhsJOupcFi7lHJx7dxqBZx2bcIMJypv0UsUI4PoSE3NMfBjqcO9ND3JzoPkReno/xyW0x+ei5khZvrmjYc6D7C6spue+ShS+0zf+kXdI/jltC0ba/p0cFhdvf7VsyRISDCuhI9v6BzWVGtFCe38o7ihc/4+trLdgNc7o2l/PBdlU0JbleeKmERnQ0vM+gIwknGXot2nHN1/nH6jmBzfaE7qW7GPCs+xx2X5Wx4NUeZO/niULKrr4x5jssJf9X7WM2ho8zxxvyi7aKNbodb1POSnNQmz4oHp+DmerTt3lm5wye8T9Ix+ePrUdnkznVM/CSe55V9Er/I40qA/0m4Z5V9VrzIG1/vzD5QRt+Kd/0XG+nQAgon3yrnWFWBh+SC0xigHeMO7GNnoDH9xIBLZqEWGcV7jl7wKg7xO5ANV6OPeAJYsg2yIn1xuR1orvO6OWkyAK+EUCV90vW2eK4H7NNl9wXWnJeoB4c7hx6JeWITSVxHNkn8GLss81k5wPcmhB/pRZ527t7KCK6uPKLB6T7PwnQq/l/4mX+mbXC4gUcFdFBnT9tKa1JiRY5+2cCoW+K64jIMfJwaKb6A1xtxqdbpiokpK6rvbtSeFa5dYMkYHN6ITZcexTpPuAjpTHigFmJ9RwPBTwg5HHj3suc6ztUVrKswX71HM1lbug5WXyymtR2072xKx0oUF76Lw9w+Qy1a9hyvMMd4CKkqLSwL9Zf08h4TiTl/cLOSR5eabBylnfMhVmU0bKFddIvHPl2xH0y7kI5dzTLzKGENK23Zg47AFm1JGe683OIzEtdLDWsH83NMgEH2PC9ZJblqwwxP5VklPV12FCmGlXoD140Nexabd/tgYA3mDHm2gA1QtuC7W2eIZWjsQyHE+vCddq50gbomo8SpeEib77LOZSNBukhoHXPpPA1NHOzEaw14fFvreCO1TsRzIUuLk+yDzNv1G48Zc2NZ4+O+UlbUSjx4i7ILehJe1cSocNKvcFNuXaWPU4Ogwl/gOeqLR+1TdVGaFJPFdhF+dT1tTLNzT2Fz/2WlbVZb0Il4XjbwJz/5U17Br/GrQhqFmYCg46Ge1TwulOieQ5mPQxKs4GLWSzAUdgm/8PTdjXYSHmRD3im458VbUu3E5NHOMke9U9lH8cNryBFA9ilDJbOuhi1mzFPdSKGYZ5jfQjI4XJcyxloMaEs4VXdqjjQce/JCiAYFHlIDm4osMwu0w0+pa7AHHU/BfbXxBtmD3ILwfTQwoI3DYrmTOruO8BLVIDscxjIqfnaenccpPM/KrzR8dXneseyhLKXNUeuco/3Y6NJksUIH1vOaqNjxeD0vHW7Qc049MFTk9uWeK7JMXbLnbW8xfxHudwiMhfb47WXPCQoPXXrZ5mrNkZLHdSgz2YuajQiCNgYZe0wxjpvbsbKPSol9Fpj3xFBuNJAfW5YRmoLreyjP8ZiL1pYuR3Sc0w3STuDJUy1eTXm1V5M7P2KAd9cTGz7r8vi73qFHwF6xYjzCpXV7zfSy3EoJTrymaKVFrcxq/jBXtcpNegw7keVSRmhYExHYdyDUZhSwbgFDz/YVnmNsc8l0apyR+NHaSM45rqq+JdXnK3WxU+agoyP6GgARJ5wlfQdLDLhACrqgvvIH3LDr1zvFY5aZ9arbWm875j+0o1Io5z+WRN73SWwxVMkJpT0t/wSyCfwDssBQH6OO4u52lm3as+i00NHOQnA8jkeKkY5paAHdru2ljLkeL+EOoGexzSnlzjgfqSfpdgqbkN/+egYm3AePLWFmfcYAgLXiO4pHXnBjGzEIiGwCPGsoX85x9sIXuDOeTyXC42kMqvUsMifAd/T7v8rT86Rs0/PYhtD10aMYKqxncGcotAhME1TPTCSH2/qouFxJwMBF2rmCaFdlxDpCQJlUlsF5nMIxSgoNh4guDli052VikqyFa+irBhayzpPwavYYQjtHMvVveyk+d51HCW6r84BeFj+r6mfFyySLZ5bRO28p4xHIevEFld1lp54oT+KDflMECwxtcjLHPWGBoT6qCc91ylgwh7yuMeu5rOMdajSU9Q7pjqC/KrY5mzZnHaeO6HiHgOUx9qz2HkqRurmNbQbcM+gGrl6HrMNxHJ7zg/caVPvqnWdjOZp/kPP5Z2B4BAVFbV3uPUl7xa2gomTd7ojHEV63ATBBqHvc3C+gAKxWIeC2AbDoAew2YdQSTC4NmSQAtv4iPdBzgwdn5XcbUadljVfoidfES5p5QlYOfU0/oLG5uaXf/l73BM2PR5zCPC8NOQXt1OzTZOVZZA4C7vHaU93iuXHzpm/16GFdtzuE4Mj5eNIyOHUZfXJlp9bBhDBZYLLAZIHjLDDjPdM48uUBn6H1bgfX8oGaJGQdbqZ8FXckHGQ2QeLcAVc8PxQycLez3jHXFTv9hSMGR6QxQUDnPgWRQ69TiextcNaA2VntYBwhLcBocnACxpnAceYgJ57rihw7t0Y2Nzfa1lY59ThG8JfrEdiRUDOXI+A7BZxFFnM6Xnm8trYu9uvtwoWtdvPmTrt27bpf0ekXJoGkkHLUlTTwV0lZS5i+JgtMFpgs8OawwIxT8XZncrI4EP/KDatdXjTACXkFtnzPE7zlLtJaocOlNuEZsnk/LlzXlCA9DpHGlfG936oYoxwbZ5XNnQ/LwRnrUT5JUGlwyZIdxsdSHwXW4ZG+C4Ai+vcPQdwpo6Os7whCvfDhV5mkQtve2m4XLl6000zenTG8I+y7QuZdSOhcX3XZ2t6S7jM5+Gttx79UVqt20HDsCfj8UTLg6TpZYLLAZIHJAqdYQItVHIecYt+aX9N7i/0KPbbjySDMx9tKn/GbZ+IXgtitaQW9xj1xZdXvLctpdVHjgX2B7pQEZwLaKu+6168UyYvgzNcEW9FpfmSs6blA3ud+WuDefFbt4Dolp8679Ffajm5T7IgnDha73J1tjtMFc1MfCdRJQuCbm+vt0uUL0oMJyxw3ePfa1cUZqWlnrXaxrh8puHz5sn+gJGVbvlZZRsT3WuEmfSYLTBaYLHCPWkBnmvDc8wGUATbvl8bresCdZ5+jGLWRHTdVPw/Lj0mIKYeqcL5ynTjSsTO7E0GHug++q8++OB1o4sDCepc/OeO92W7b07YwxwJPCxyiqz9higkTgtW9WZvtb7b1/S3F9Yig+ONYayLCTsfpfE+Te1w+dkcG96mJ+96/Ji2XLl0yOofRludOx/G552AyVyZxMz2rceXSFWY0LiNwtzcpPb/ecyWYFJosMFlgssA9b4FV7rmPnYSdykht3C73eO804LtxjtzrZludk/d7q3JUena+re7Kid701QfV5CA5Vc004zwBGbPDDe0GwAdHKOFyziurG5K9IScvzr79cHvu6MwkI3pQam4f7Ov2xB6OVhMh/e6UdjbY6ajfS7ejYjaRz+1FnCu3Xhh4WFvxfud/OT+K9YYL0plXGxOYzG1oJ2Jjtu7bL5nIxLGnbMvpwKfrZIHJApMFJgscb4HhDXXlv3Fn8+1r/wKOBuP6ycDjGZwExdfxA4b6hVQF/SygWG9pIrGlt9yt8fOAdsC77ZXtDTnOknrnU4iSPmu32sb+1ba+dkN8b8ppbOqNeg+2W3sX257krOmnIMtBzMt2nN4cmOOPZxaZjBxoIrK3ps/qTjuciYfgW9e2ZaFtrz7LuUr58lXFkoIzSzhXmNPFobFiZzeBX4La0r126oS/wbEj740UVB50z+qdR+I4GLjz8iu+HRQ4RcIG4/QbqZiTrpMFJgtMFng9LSDnHofOqfkaeH1DHK1YYeFvcMTnCPu80U7L9g3xfeDZp9vXf/t/bTe+9Z126+q1tqLX2m5sbbabDz3UPvSTP9U2fvSj7aoe6drXbGCVU3bcRmdyoNUdP0RvRbiHfjDz026l9W7b2n26vfDk77QXr35FONf0mNWefl9YTrBdaNuP/GPt8mM/1XYOrnj3wRONFRVZv38788RDq2857HbISe4qI5L2JefljRfb33/y/2xffuaL7ZXdl/UTyHqvvg6BPbj6UPvAox9sP/Hef6o9sP+2tq6NCCYE+9LxEAGzW53VnTrdku/vbu84eBji5OzQPXfwFETVcrqM2hNhNwKLSU9Vsr4Vr6OGXLWfom9uQ2jaoN8SqF/ihrfoPFnRTQ09OeDfIWYbRnBtlmgCVLdV0GMmJ81hxrOGedlWdP99vRy56FnNV1kXeWGSYUJzJiFlz0Jd5HUm8glpssBkgckCb2ALzMpxypFq29o/Ws8SXs6PAZbfF14O4yFzOW8xjUNpcuxytl/6evvcf/eb7d0HV9vD4nuAZ1jTuv7Wrbb3zLX2zf/pyXbhya+3d/7sz7ar65fkSDkQx7atvvQcFc+Vr8jpcHqdA3k4fH23duNL7akv/u32yMazbfPCNfkcHXgT7trhprfRX3j+qfb0y19rj3zwX2r7s4dEv9J25SU2VdaVvSqJ3yzUC8VjWdyrf27lmfY//4Pfak+3b7T9B/blEHe9GF9ZXWvfO7jVvvvCN9vXnv1q+/Mf/4vtkdk728aebj0cakdidb12Ic5upMFk3Z8P6URg5dsFqYvO+yyOPTxw3GaiVw7Kler8wVq7JT4yc7l1fvhXadx+49XDCp7XkaSqDjbMgvpgnoUTp34u6GkEXnLUVG4Y4Xy7erA4Y9CkgomRuMKXP8LRVTucK88I09dkgckCkwUmC5xogRlO/FCDfpwLh+lWBVuRU93n/bPKyIB7IpdjM+QAdC/9wrPfaV/87H/TPrStFbfG5gMmDvIMLAD3FeFtd48ovfO5f9i+rRfqvO1n/sW2v7EluXgSnAxXaSA8v0BGuq1qi/zi7nfbt77wW+2dV56RnBteNa+I34p03lEZDjc22uXtl9ts7/Pt2a+stnf88Ke1ef9W3skn57bbZivr5UxwSnFJ0vfq1ivtb//Dv9We25BjF+6uPNq+tuZx7Kt6a592+OXVDtvze99q/+Pn/mb7iz/1b7YHD96qlbvOEEhCO9gWN2x2527uODPC665YaWeiplniLg/O43Sf//Ju+7Xf/H/aDU2C2iErdZ4mkO1UKdQRMme6JbHe9PO+ugWx1rSj4smLJlWi35/ttE9+8l3tL//0u9pjumeuM3+iw0G/OmU+zg53DpsmAndus4lissBkgfvFAvUoHM5QnwRWTTzvni3Sek1ocs92ZSW4rdXx1//b32rv3T6Qw33Bkwh23Ju2zvf1qcfidC/+8Fa7snqj7fzO77St574vT8F9bhwGK39t03vFKRekleK+DuOtHF5v3/jC/9Ae3Xqure9clxOS89cCcl/38m+JdlXbxSt7t7T1f9C2V2+1Szt/0K5/7/eFhWfmVboHWmGjCOtPHBuH8CRMyc997f9u32lPtle2XhavG+Wk5bw8KdllniGHL/7XNm+159a/1X73y78tZ0dZtNEvljg/sxbn8wbsP9+2lh2UPn9gPazJiXY89ACaHuhbaf/H77/Ynt79YHuuPdGeXf2x9v2VH2kvEF/7cHtu9qH27Owj7fuH72p/4Rc+pe33t7QXZu9vL6w/0Z5be6I9f/ij7XtNOO/4ofabX73W/viWJgdauGOTuwkUMeVcvt4N34l2ssBkgckCb0YL6FF0VqVyjtn2ZfWl1TGrZbZpGWg5xXynYU10e898q+19RyvglevtYF1b3tr+ZcW+pnvTfvxNq3Jc7a5WfTe1Gn9sc609/bty8HpVqYZ6yz7QITycOo5ZKGikw/YvtbXrf+zV5YHur+/v69WrrBzl2HksjsfT1ndFd7it9+tebG/d2mlXn/uDtrlyTT+Aw+qV+8uUSMpwi4Cr+O7pQN4Xnv58W7lIcl06slrXYl/82YVY06pcdxnEA1mzdnBxv33le/+fJgE3NZHQJGR3q82w4916d4knxMlVwt/n+Kp6ZMcBfjsq7nde0hRnVWcPpCor9lUmTdKZPQ0mVthns73Sfu4fb+2v/8r72iOH322zHeXpscADnWxfu6S3CVxu7dtbl9vf/Opu++LzV9tN7E67uYuAfgtlFq/l9B2x9zbE3el0R/Im5MkCkwUmC9wjFpBPlKPyyn2+8vKPfGg7Ovfj2bq/08A68fr3n2nbV/SImhzf5t6GHCTrZrbk5azlXDmNzuG1/ZVNpbUVr0flnvqjf9Q2NZnAqeLSRSqHjUuvLWNeSLOx/1J7YF3b31rFH8xueptdrkfOd03b8HI8GtT3tR29qrefHe7csMzdW8/rxP7LWruydc9an4CHJ1a8b6xfby/uPy/NNZEQDo/y+YmBPgHg8N0tOSDO4K1pV4AzAFc1cTncutUOvXWvMnnSAO+zhwUHJv7LwWchrOtyzlnSKp8mImybr8oB37yx0p5/QVbQEwUzTZxW9fSCJzgq44rwcPRrK1fb+993SU8cHLYnHm/tP/93f6i978EXNblSWfXugItXtEshtrpr0a6tbrW/9c1Z+72nbzA1iDnvSNu6NVTlXrAF7Bba3lHbxALg8cluUxRgypK84E7XyQKTBSYL3O8WGB6FW9EpcpxIjc59oD2Pp4rFxGJfPxKyocNrMzkSTpqtynmzQuR58XKueu2MHMqaVoTcX+ctcNdeYvueAZlhWX5H8T1mBThgxTe1gt7Qlj4ue0X8mC5wutsH43SSfoZD1vKa7XsO4q1r4rAnvrf2tWrnOXvfV8YRSAaOtBSRO9fW8tpu21nRfXPw9rSnAC/le98APN1X35cDWdPD7+sqF8fTdjRB2QW+qrfGSRJH/erNe8K/BwLb8TKZ7YvtX9K5w++9pB9vWdvURGVfOxuUhzf56YyFJnpYdFOHBn/igw/JPthptb3/ocP263/1Xe2v/vq32ue/PWs7z2+0r/1fr2hOwJa/nLyM9M29V9onfumdbVNViYPl0T3u9rsSz2GHagNV54sO/nhmPDsvVXX+kncU6lzB739e7WWlffwTH1M9UrtuQfoWEkF5KmDFp+/JApMFJgvcZxaYreqgGC9k8eqwO3MG0xr2+jfO9hwFX1vb1r12XB7ud9UnyTkVPdPAqgWighw+jOUsea6crfXNy3psDceAE9WYvKZr3SXn4TVIOM++KZxdOSQ5Er09TtMHDdY4dLlbjnSDJqj8lScT0KHLvugOvW2O2+E+uxBcxCrn+sG6D9rpt8ukC6t/6aVlenh6yV4exI4dhTa0vY2zZ6UvjhIs9wjf0hZV7irg5O4mrEp/JijsZFD2bz+nyYsc+tvXrwmmGw9Sd3VTEy45uj0ZnGnXxd299uMfkB3ZolDQHkZ7UPfV/9NffXf7j//G0+13/uCwff+PVn2f/dC/KrjXHt3WpItil0HlUGVhqS4TvibBciyP1fth+/u/9w8kd6V97OMfs8PfUxt/rXR5TQo8CZksMFlgssBtLKBfhat77vMDdQzKrJzl3HRl1XoeB8PW+9Y7HmnPXb3eHrjAqlB8vdLW8M8pfAUWTnbqWmnv+UDWSnunnnfn0Sr8Cljcn18/2Gq3dGiNF+GwMt7deEu7ev2wXVmXw+cnx/jxEeHONGPQQtWOarXV41uUYV1vr7uw+bAmGRe8OmXFyQE53/m3B2LyIgrdM7+ydqU9f6CX4cjxHer0uzh6EoHT4jW0q5LH62dxezM58Qv7221z97K2t2tCssoOiPLOE06ys+HoeY5Q0xg5bU0+ZjLoV//4hfbYQxfaf/IrD7Yrm5qUSFtKHx9MuZh3YWtbW5OVQxkVx6gXxbb/8DOPtl//759v/8vvsXciiOy4Ib4feEjviRcnr6CFXKvtO9D5nOVDSwLkmhN6lc4rlbFZPWKHiqprJnWWkRIW3fQ9WWCywGSB+9ECjOMOOVDHIM9PebLNvcpVQ/iaVnqsku8kePtazn3lnY/rMJ2GfTlwP26lbfgmB8h27z67BnoxzIEex0KRZ3QP+F0/+Yl2HQfKWp/V5Pq+Hf9sHze0r61zXgWrE2/b79VWuxy4DrPJe2uSIM19qEuOTMwY6PWQlhapq+2Vm1vt4sMf0cE9bZ1ri3aVd8pKIvfMuUXgFbcga9rW//CjH2uH12b1GKBwvCIXr33NIfbkxaSt4jvSWzpfW20feusTmoDwbLjKKKfGzsSrGfBHdpR41/MEtp9VDvTa0TnFb3z7evvy0/vtr/2XT2kHRDsP+lzQZIsH+LbkBC/KPhc0DdL5R+9eSLodf3axL0qhX/n5h9ov/+xm2771nJ9Y3JM93v12JkJdV11Pmqgo6/iA7cSbstLWTmtvnpypksFnl4DbLJlYeLoCP1qRdhb8WwCkjCv+oltVO5rCZIHJApMF7lcLMB4PoYbDWnVl6GPgzD3LAfEMEZzBTW2Fv/8X/tX25FUNsIqzxc3KmoGbE9kad+UFdL9XDvjGrpz+j/+Jtv/wIxqG2WZXppjwGJwi+kg74aHXoe5vP/qRT7fv7T6kreQN8dJkQJOEwzU9/saRep5J16qae+p7Oi3/4uaH28bbPyr3Bj1DPmFedLatCWta4f/k4/+EXrbz3raxI76aNLCE5f7xhp4J59n4fR0yY7KzrfyHbz3W/skf+ed8mp77/NxAWBGPeylgObkyWXSFp/Db967qXftKfemp7fZr/9V323XZ2PszMoJXurrydmCb3NZi0sKKWC6TutBKfkM7H3/2T15u/9Evv6W9pT2lHZMb7bFHkfTahbWZfixol3MVqlU7cpVTkzvrrTKklneEQ9vhjhMfJnu7uu3AuYApTBaYLDBZ4H61wODhun9zORmms/LyC200eJ4nHOoe7q23P9o+8K99pn1FTHfFxtvAGmBXda+aZ8Jx4s9oS/vGx3+8Pf6zP9+u6w11/jU2Bm1ls9XOY3W8FpVt/HUO34nLtfV3tIc+/IvtmauPt5u7vIxFZ7V1fJs3sK1qC3pPK/Lv33pQz3P/iPD+XLu1phfYnBLWpMcDew+1P/djv9Ae23u8NSYl+sMhsAWPsdbkQNZfutAeeeU97ec/8Yvtyt4D1tes2b7GrUjPeyUwR8Ixs1vxijY5nrmm31LXH08o/O4XN9p/9tln2gvKuy68V6T3ddltXxMlAuWg/FUeTQ5U9ldk+5dkiV3hf/RD2+1Xf+mx9rbtW+3db7lg+9xtudPuTuPjrXYdavTMw1oqritNqmvtlTztzG84VB7OH5/uq2wyhckCkwUmC9yvFqhRXCNibcvjmrJJrSJrALT/PedAyCG9fd0/P/jhD7WP/vKvtm/8nb/TnvvWN9vBrR3dJt9ta9sX28GVB9t7Pvmptvmxj7XrswsekGdaWzKd8HPT8k7cIuA+OXvjnmZoBcn2/MaFj7THPvpge+7J324HV78m53Jde+ca5CXz1myjbT380fbOd/8ZvYntskp1evDjc5L38Oyx9hd+/C+1v/fk/97+6LtfaNf3ruq1tVqZy+ldWn2gffjhj7dPvu9T7bLeWc8xgno/PaasSUitGs83ITpdyzvEYNlNPYrsuedbe+mWpleszrUDsbO53X7787fak7/2dFufyXay7rpeEPRz//Tj7Z//E1fsN3GZKmG7pnL+tb/+h+2qysztB163S9jTbgaH8t7zmM4dnMnKJru7LzcOtVPt0Pzdv/u/tS9/+cvip7arSp7NdEtFp/85KU+b/o3f+A1POmqlrsmXaK9cudT+lV/8tHDO0iruTtWJerLAZIHJAq+HBeSR2G7VvWfetd5X6Dh4vDr3sbk1yertPGFN99Z5cxmvRHnhbe9uj3z6M+3KrjaH97WE1GoYedc2Zu3muk6xsyLnhTXC5+Adw+6+D6dpQPYWO06UDWbla/m1rhfLcKr+lfXH2oUPfbptyilt6Tl2DnXtiO7mqk7Urz3Qrun5erT3XedTisE9eHHXvfeV9paDt7effvfPtT/93p/RREHPd8sZrmiFy/PhHLzbEF/052ds5eqkI1bTqlf61y2B81js1afRvEg25YmF1r77nF7Ny3Nx0lvzLv1iniZfW1fal16UYfblnGW3Lb1J8K2P6okFL9epBVz7SvvOy4ftc08/oIcK364UTz7IUjp3sKG6eXj2/fbWtwgR+xYJZD/QULcQmLeUwLqutT21Y/LQpR6PYyIiXdnCUCh0tSK1IZ9l+IFqOTGfLDBZYLLA62MBr9w9yGnA588uSgPjirY8eQzN25wM2ucIOBA7Ra20t+UMeZvcs1tyyrpPzitf1/dw0GKMo9G1HsXSQCy5flZcqy/Ovq1zCl7OhBXynu5pz7xFz6RED9lp65/jeAcHl9qN1QclEIYM+MqXkxar8jlnKMNMj8JZhl5Iw1vx1va32rYO7a3vbbv0M8XhnMNePHqn2/3mvy5ZvjctXRwxxav41Z3YnXJkDoU/vykbf/kbz4pckx0pqtf9KM5W+w29zIbji6zo9SpgnTF432NMhrQcd+A+9kr7e/+I8wuqQ/063kwTJ3iAv6fr+39Ityaw8zl1LDlY9gyVBLJQeZ6dNxF+6lOfan/qT/3pTruqQ4M72oVYb5/97Gdd93/lX/8r0rf2FFDP9+fVHjmAN4XJApMFJgvcrxbgLPFi2eRA97WCNlgOnhXOecds3Cz3O+VetPrVe9q1yvNz5nIdXuniHJlAgKgRm0eq+HEYCxcd4C3NLvZ0WI1JBpMQTt17k8FuVoO1nGq9NEarSXkYVtF+jEv0TBj25fyZBBSO5zIIOz6o7DUZEK32mv2YnpTjRTDotC/ZfNbk5HklLVOhVZ30t6bckxcutxTuJbfBEwZSUI5w1r78pHYgDnRvnHrAuekFPDNNYEDY1UG5Fe06XLqoN9CpuDWp4+0EvDe+tf/3Sy/pR3S2hHNBB/OEq50MHg1c0+Tg/e+FF9NCX/T9gw8cpqvK0kSFFwrxaKP03Nrc8G8McE8enZh0cBCQtuPVPo1Z8FrVK4pxpjBZYLLAZIH7zAIz7ov7d7opmJwb25ucRFZMQ7gGRw2c5xr+5FzFyQfgDuU45HrlGCVDcFZ9eAKebcfJc8+WH5Ep14wekguCILteGet+N87T5KwocU4csONRuE2t7usFNsBXFWfLeLX/TKmdr18wc3op2FKXaDtpbgAQVrU054AfgZW6tJZsWYfteHD9alc5NvJUFq9oybhXArrI3jd0J+Tpl9CL3Qlsz8SkT7Ls2IWmX717cOtm0/to5LS1kgddH7nJ9oUvflsTlw8KpgmftgMOdaT+QPhba9fbE+/WO/dpRy7z6XY22l1+zXg6Qn9Mxg74fQTdP0In7rOzKrdTVx2yc1Grde38qEA8mUG7yrPwd6nGRD5ZYLLAZIF70gIztt/9AhtWrfxptNzXq1dXtKZn+5mXwNTfHepvpyJHy6Ar0jWvbHHaOElx1KAMfyCsqrne0iq7IBqILU7YztPLY/RaWN59fiBnfrjKT6+ywteqXk4eJ7Wpe/a7Mxy+VnJaUSKex9b0ihXnIxenfLuAHtAx+MPbW/S8+aU7d7Rk6x4Z5NnJFwHYSnPX/bVxbrcrx0KedZdz13bH1R09EKf6xLHv6375TKtd/TaubCqddViRfY13vEUvo5ENsJRf0avry3plLe8W2BV8prf3ec9CTvLAtrnZ3rqt2yGaWKkh6fraBH6OGFtTXewyeDIo+/MbRzzD7lcpS0ec/75+iIgJK5XLYTtW+lOYLDBZYLLA/WwB/U4bA6T+WM5pJGQwXBWUJQ+/4c2gybY04z94ytCH6+kBmhp+RaG4RXTS4sI3eXDmIFpleps77JWHOL201vrxXLx/vrRIpZ+CHC1TE7bFkch2Og4YFCYQLiF8TglgoKcFGrdWto6aj12I8wtPMipiFL5OlzKgvjYR20EHD1/ZbTcbP3enB+FUEdx15zwD1iGO6Tf0oNsT73tb1wsb8uLg1fbsNW6LbGm1y7vzsTOPlGlfR/vgK6qPhx5Unlb/3Xid/gd7qdqVDOnNylxqVUnkw9lyJ4N6l5py5rwaGJBKoyaSQ3iApjBZYLLAZIH70QKrPjXMgM12JatR/jQIcs+S1MJi9wwO8jgj2YcogwEWB78cgNWq12P0craAUHbCE3TwPeSOU3I8nBfkBJqjgo5CPEmwg5wrvuTPjxLdQxAmOjvS52vfbe0GC3VPhDgfoMmSdkI4o8Cv8/FymjW9jOYjH97yRoW3sjWh0vML7aXru5oI0D7kHG1W3YvXrY4VHcTblDEeuqLpgXdSXr+Coy/31G/duukt983N9bau1xPj0Ln9ntssr5+Gk+TJApMFJgu8dhZgJ9b3KfO+d9J5hEjrMm/LA5vCG9MCrNJvynf/0df1K24zfp1P3hlnrgtPBODUy7nrMTjd1niPTsrj8DkgwX1sol/8qrbgeTkQDly3Vw5Ew/mEdV2f+OBbvdtTW+Ovn428Wpc+M52UJ/zlz3xG5dDanS0JJqyeWjpr+posMFlgssB9bwEtdjgRr71LBQZD/7F1qT/uv3N/EpwpvDEtwI2Em3q1wBe/8qLuaOD46rzAnh7342Dcnj4+WCfH/Y63XWibrnvhyI/TKtil+MMv6V36foqBV/rOdzBWD2+0H/0Qb6bTin4Ofv0MxbxFbba25WuSStvlwGi9xOb1U22SPFlgssBkgdfSAvba/sUsScWh88IPHDw/zJF7kzxmNIU3pgW45XFDXvp7L+hQmTy2b7Nwj9qh16vOVOCgH32Yp91x/zwnodW54jtymH/49e95EiCgc/nmeYqZXkb0xAfUbrw4fp3biIqEY0f7Kh6eXocHOWEnxYcio/wUJgtMFpgscJ9bwNvyyz8Mg5PnHryPqWm/lR9OeQ0PQt/nJn/ti6dFeHv0LdfaxX29ZlYVyXPreLuZTtRx6p/deRz0+x/Rwbpb+j0An1GQcxfOM8/qwNxFPR639pxedsM9+qLBcV5eu9re/YBO2YtHTQjYts/E4TUup/Sv3aa5XBw6H+BTmCwwWWCywJvJAnLuiysuVj9svdbLZsoU0+D4xm0SPH/+yOWV9l/8e59o3I7GiVPj+O96kqDSrPA3BdNv7+hUfbUB4u96+2r7r//9H/Nb7nhEDt8NLh9mhtt6l4ze5q5tbzl2tR2hTGGywGSByQKTBV5nC8zyju04cFZmcfAarfthOx4rmsIb0QIHOtVO4K1zvCxoRc+m73t1zb1oTr+rjnXmgmfd+fU7tudn+uncmd4nwJr3QAfrLvnmDSfOcer1RAVeHAfPe+t3aBz+md3FiaKgU5gsMFlgssBkgdfBAjPeQOd76yy5vDJjQNcgrZGcwbzuY3bN7BSM9jqoOok8jwV4OyCvlZ3pPez8bO2+fncXJ45j9pE53W9f8aNw+plcQVitr2lCsCunreck9W4bvTxI+LVOZwrIhIBH6fiRHyErj/chrOkZeDPtbQTuU5gsMFlgssBkgdfHArzD096aFbtfJqN9Ww7Ycb+dwXqPXx3R2M74r1Heg7swiuj10flNIxXfyTY6VbS1xY/XYPc7Wx1Tr/XgOk/B2aObRz2vDj84srpnd0YTO/brhbeqsxbcnuE1tFagvoQHD+mgS/1uAK8X0gSBZ+EG/kI5a+CEn0i3Njfbzs4tHdSLjirtOVmeVfSEN1lgssBkgfvVAnopnEbQpYBDsFPQ2O93cDPQL+FMydfGAtifxxEvXebtcnfm2AcNcbqnON56Wc+8LeQX3gqu1qCs8WfgrQjw0/iP8Y+LX7p00Y+rpT2ys1C7C8dhT7DJApMFJgtMFridBfyce7beGVgd55VeWanZq88H/dsxm/JeXQtQH3wuXbp8/z6n3ZvW+vp6296un9Y9zalPrfHVbWcTt8kCkwXuPwv4UbislnDs5VDYdeXhJj3ixHPvWj1m0Yiv9+bwKSvB+89Ur3KJvNw9nefW1ma7cEE/tSpUftXsfgu0N9oXr4994MEH24svvOCX6C2Xk5Lz8VyTzKn9YYU3Tzhjf3nzGGQq6WSB21vAzp0Rs5x6rdxZOfnd4rrfXoMq3/ywCwex+jA7jLK3FzDlHm8BOzU5tHFgcsXTC8lb12+TX7p8qepmjHgfxb1TpCZFq7KDf+CB9v2XXnYJycuEM3iDd58G+/uoFZxeFOrfr8XuXSbtYj7lowUt9qfTuU4YkwXuXwv4UTiK53vsvW/kjXUp9vFdhs40hfNaoPx6bFgHFakDBi0+PMVw+eKlmmQJzWcf7sOV+7L91tbW2hXdhrh+/Yamk/0tibJHDd1YqCacy3RT+v62AE1/3geqNcwdu8qunZzjx6n72y5T6SYLnGSBWb1bXlvveBv1GYZOft/9UEeV/WY6gevd8uk6dZ260kkmPSucASqhDizyG+QMYJwc3/bp+DpA56p5Ezj2WGNrc9bWZ3LwN260Xf0W+zyUzeqMf9rjPHeK3c8WYHBSP9GF2zj8aiWjFXcM7fjVSWoKeD/bYCrbZIGzW2CWLWCuCawa9+VoeF0JXWZ7e9Y2t68om235fT/nHNzpel4LLJ58Z0sae/PPRKve8S/e+LB51ZxX2BuKju1XJjmXLm5r4NZ5A2Y3CtxmxxSkVnSLaApvFgtwu1ALDrqHvnZ3dzTp229XdMuqNw3nJf5mscpUzskCt7PADCfi33IXFoMonWfhXfPk83Jyfn/DoWbIrPCn8OpZIIfl4sgGn85jiG+yUWtc3oW4mly5eey+ODl69Wpi4nQvWoAXKdXOFpM6jVN6q+K4WxCft417sQSTTpMFXlsLaJGO545jV4eR02Y7nlX6qk7WucN0x+7f/Tb25Nhthh/AF5Or7KJg+7Fz+wGIm1hOFnhDWGDfv+5XK3f3C41TdS2n7nHqDVGSScnJAq+NBepFZX0KHEfilTsrRm2NkqXF+xQmC0wWmCwwWWCywGSBN4gFdKsX710rceJZOa6ssfVVq8i+uH+DFGlSc7LAZIHJApMFJgu8uS3gU0kLTt2reBy+DOOV+7Th9eZuIlPpJwtMFpgsMFngjWaB1YN+LysO3it5lYJVu09w9/w3WsEmfScLTBaYLDBZYLLAm9UCq6t6achwgMurdhbsutfOA6Q99F37JKfrZIHJApMFJgtMFpgscA9bYNiWH1bs4/vvUnxFN9y7z7+HizGpNllgssBkgckCkwUmC8QCfrc87zOPc8+1HmOvZ6ynB99iruk6WWCywGSByQKTBe59C3jlztZ8nLqvWr3nysOk2aDP9d4v1qThZIHJApMFJgtMFnjzWkAvsZF/lzNf7b+y5VV8brKzH6/4kHzz2mkq+WSByQKTBSYLTBZ4w1jg/weANdLTjZc25QAAAABJRU5ErkJggg==;imageBorder=none;sketch=1;" parent="1" vertex="1">
          <mxGeometry y="340" width="239.52" height="80" as="geometry" />
        </mxCell>
        <mxCell id="QFdLaQrW43IuTwmzVqsT-15" style="edgeStyle=orthogonalEdgeStyle;rounded=0;orthogonalLoop=1;jettySize=auto;html=1;exitX=1;exitY=0.25;exitDx=0;exitDy=0;entryX=0;entryY=0.245;entryDx=0;entryDy=0;entryPerimeter=0;curved=1;sketch=1;" parent="1" source="QFdLaQrW43IuTwmzVqsT-10" target="QFdLaQrW43IuTwmzVqsT-6" edge="1">
          <mxGeometry relative="1" as="geometry" />
        </mxCell>
        <mxCell id="QFdLaQrW43IuTwmzVqsT-16" value="window.open" style="edgeLabel;html=1;align=center;verticalAlign=bottom;resizable=0;points=[];sketch=1;fontStyle=1;fontColor=#FF38A2;" parent="QFdLaQrW43IuTwmzVqsT-15" vertex="1" connectable="0">
          <mxGeometry x="0.0217" relative="1" as="geometry">
            <mxPoint as="offset" />
          </mxGeometry>
        </mxCell>
        <mxCell id="QFdLaQrW43IuTwmzVqsT-17" style="edgeStyle=orthogonalEdgeStyle;rounded=0;orthogonalLoop=1;jettySize=auto;html=1;exitX=1;exitY=0.5;exitDx=0;exitDy=0;entryX=0;entryY=0.5;entryDx=0;entryDy=0;entryPerimeter=0;curved=1;sketch=1;" parent="1" source="QFdLaQrW43IuTwmzVqsT-10" target="QFdLaQrW43IuTwmzVqsT-6" edge="1">
          <mxGeometry relative="1" as="geometry" />
        </mxCell>
        <mxCell id="QFdLaQrW43IuTwmzVqsT-18" value="createPortal" style="edgeLabel;html=1;align=center;verticalAlign=bottom;resizable=0;points=[];sketch=1;" parent="QFdLaQrW43IuTwmzVqsT-17" vertex="1" connectable="0">
          <mxGeometry x="-0.0364" y="1" relative="1" as="geometry">
            <mxPoint as="offset" />
          </mxGeometry>
        </mxCell>
        <mxCell id="QFdLaQrW43IuTwmzVqsT-19" style="edgeStyle=orthogonalEdgeStyle;rounded=0;orthogonalLoop=1;jettySize=auto;html=1;exitX=1;exitY=0.75;exitDx=0;exitDy=0;entryX=0;entryY=0.755;entryDx=0;entryDy=0;entryPerimeter=0;curved=1;sketch=1;" parent="1" source="QFdLaQrW43IuTwmzVqsT-10" target="QFdLaQrW43IuTwmzVqsT-6" edge="1">
          <mxGeometry relative="1" as="geometry" />
        </mxCell>
        <mxCell id="QFdLaQrW43IuTwmzVqsT-20" value="copyStyles" style="edgeLabel;html=1;align=center;verticalAlign=bottom;resizable=0;points=[];sketch=1;" parent="QFdLaQrW43IuTwmzVqsT-19" vertex="1" connectable="0">
          <mxGeometry x="0.0226" relative="1" as="geometry">
            <mxPoint x="1" as="offset" />
          </mxGeometry>
        </mxCell>
        <mxCell id="QFdLaQrW43IuTwmzVqsT-10" value="" style="shape=image;verticalLabelPosition=bottom;labelBackgroundColor=default;verticalAlign=top;aspect=fixed;imageAspect=0;image=data:image/png,iVBORw0KGgoAAAANSUhEUgAAAyIAAAEECAYAAADUJ4BcAAAAAXNSR0IArs4c6QAAIABJREFUeF7snQV4FNcWx//ZuDshCSGGE9zd3Z0WaQstr06VV3fa15by6n1tKZQCxd2d4q7BiREIxN2TzfvOXSbZrGQlGz/n+/qV7M7cufObuTvzv0euGQCPxWu2xRcVFUHVrl68hNvXr+N+dDTSUlIgl8vVtuEPmAATYAJMgAkwASbABJgAE2ACREAmk8HJxQW+fn5o3KI5WrZpUwqMmZmZ+HvW5JEe9C+PP1ZvjVfeggTIoT17kJKUxESZABNgAkyACTABJsAEmAATYAJGEXBxc0PfIYPVBMnsKaM81YTI/u07cPLIEaMOxDsxASbABJgAE2ACTIAJMAEmwARUCXTt1QsDRgwv/lgSIp5/rN4aR5+yCOGbhgkwASbABJgAE2ACTIAJMIGKIKAsRkoJEQrH2rRqVUUck9tkAkyACTABJsAEmAATYAJMgAlg7NSpaNm2DWZPGVWPQrM8F63aEvfz1ws4J4RvDibABJgAE2ACTIAJMAEmwAQqjADljLww781iIVLvtbc/i2VvSIXx5oaZABNgAkyACTABJsAEmAATeESAvCILv3hPeES8Ro2d9vDqpUsMhwkwASbABJgAE2ACTIAJMAEmUKEEqKTv1k0rvIQQad+h90Mu1VuhvLlxJsAEmAATYAJMgAkwASbABABQeNb5c4frCyHSKLj1Q16skO8LJsAEmAATYAJMgAkwASbABCqaAC16eCfsshAi9YMCQx5U9AG5fSbABJgAE2ACTIAJMAEmwASYABEIjwhlIcK3AhNgAkyACTABJsAEmAATYAKVSyA8ItSbPSKVy5yPxgSYABNgAkyACTABJsAE6jwBSYh4BwWGxNR5GgyACTABJsAEmAATYAJMgAkwgUohwEKkUjDzQZgAE2ACTIAJMAEmwASYABNQJsBChO8HJsAEmAATYAJMgAkwASbABCqdQHhEqA/liPgEBYbcr/Sj8wGZABNgAkyACTABJsAEmAATqJMEWIjUycvOJ80EmAATYAJMgAkwASbABKqWQHhEqC97RKr2GvDRmQATYAJMgAkwASbABJhAnSMgCRHfoMCQe3Xu7PmEmQATYAJMgAkwASbABJgAE6gSAixEqgQ7H5QJMAEmwASYABNgAkyACdRtAuERoQ0oNIs9InX7PuCzZwJMgAkwASbABJgAE2AClUpAEiINggJDoiv1yHwwJsAEmAATYAJMgAkwASbABOosAUmI+AUFhtytsxT4xJkAE2ACTIAJMAEmwASYABOoVALhEaF+FJrFQqRSsfPBmAATYAJMgAkwASbABJhA3SYQHhHakIVI3b4H+OyZABNgAkyACTABJsAEmEClE5CESMOgwJCoSj86H5AJMAEmwASYABNgAkyACTCBOkmAhUidvOx80kyACTABJsAEmAATYAJMoGoJhEeE+lNoln9QYEhk1XaFj84EmAATYAJMgAkwASbABJhAXSFQ7YWIhRkQYmOJhpYyOJvLxHVJLZTjbr4coTn5KCiq2ktlYQ6E+Mnh5ymHs52iL6lZQHS8DKHRMhQUVm3/YA7IA4pQVA8oslf0xSwTMIsDZJFmQFX3r4rx8OGZABNgAkyACTABJsAEqoZAtRUibW0tMcXVFp1sLZAvM4e9lSXsLC0Epaz8AmTm5cNSXogz2QVYnZyNi9n5lUqwbYAck3sUoGOjQhTIZbCzkcHehpxLQGZOEbJy5LCQyXH2jjnWHLPAxUiFiKoskwcXobAvUNhEDnO5BWS2FjCzMReHL8ophDy7AIWyApjfksH8ECALU/SdjQkwASbABJgAE2ACTIAJVAaB8IjQAHoDDQgKDImojAPqOoabuQxvejmgrZ0lvJ0dYW9rA5lM80u8XC5HZnYOHqSm42JWPr6OzUBSoVzXIcr1vZtDEd4Yk482gXL4eFjCwc4CMpnml3i5vAgZWQWIScjHpQgZFmy2RFJGxb7wFzkCBZOLUBQMWHnaw8LeBmZa+lckL0JBZg7y4jNhFgZYrDGDWXq58PDOTIAJMAEmwASYABNgAkxALwLVSoiQF+RTb0d4O9nD1clRrxOQNkpOS8eDtEy8/yC9wrwjbQLk+PSxPHh7WMDN2cqg/iWl5uFBQgE+WGlVYd4R8oLkP1kES087WLs8isPSs5e5KZnIj8+C5Z9m7B3RkxlvxgSYABNgAkyACTABJmA8gWojREiELPBxhJebC+xsbYw6o6zsHMQmpeCNGNOLERIhXz+Ri/oe1rC3VYSIGWqZ2QV4mJCLN5da45KJQ7VIhOTNkcPW0xkWdtaGdk1sX5CVi+z4VFj9JmMxYhRB3okJMAEmwASYABNgAkxAXwLhEaGBFCsUGBQYEq7vTqbejsKxlvq7IMDdeBEi9YnESGRiCp6ISjFZmBaFY/35Ui4CfKyMFiFS/0iMRMbk4ckfrE0WpkXhWHnz5LDxdTJahEj9IzGScz8NVl/JOEzL1Dc6t8cEmAATYAJMgAkwASZQTKBaCJEvfJwwqJ6zweFY2q4jhWntjUvF2zFpJrnUn0/Lw6D2MoPDsbQdnMK09p6X450VhoV3aWsvf3YRzDvZGhyOpa09CtMqPJMNyz8qNp/FJBeHG2ECTIAJMAEmwASYABOokQTCI0KDqtQjQiFZX/g6oYmPl0kB3oqJxdv308qdL0IhWZ9Pz0OzgEe1eU3UyxuRWXhnuVW5Q7QoJKtgNmAf5GGinimayQxPgMUfXE3LpFC5MSbABJgAE2ACTIAJMIFiApIQCQoKDAmrCi7kDRnm7QZHe9O+6KdnZmHng6Rye0XIGzKskzmcHCxNiictIx87zxSW2ytC3hCLrvawcrQ1af/y0rNRcDKTvSImpcqNMQEmwASYABNgAkyACUgEJCESHBQYcqeysdBihbuC3ODvXU9riV5j+0SlfaMexGFoeJLRix5ayIAd72cj0NdOa4le4/tXhIj7WRj+qS0KjK04bA7kfF4IBz9PrSV6je0flfbNiI6HzTvmvOihsRB5PybABJgAE2ACTIAJMAGtBMIjQoMpNKtKhAiFZf2ngQsae3tWyCW6/SAeb91LMTo8i8KyvpiRj6b+pvU2SCd7Myobby+zNDo8Syxa+LQMdoFuFcIvKyIJ5ovkXEGrQuhyo0yACTABJsAEmAATqNsEwiNCG1WZEBntZI03/Nzh6+5SIVfhfmIKFkQnYktarlHtj+pUgNfHFsHPy7hyuLoOGh2bi282mWHrGePKARd2KwKmWMGmvpOuQxn1fc7DNGB1HsxPcNK6UQB5JybABJgAE2ACTIAJMIGyPCJCiDQKCgy5XdmcZrjaYq6/J1ydHCrk0MlpGfguKh7LkrONan96nwLMHQ2TVctS7QRVz/puC7D8H+OESMHAIsgmmq5almr/qHqWfF02LPaxEDHqBuKdmAATYAJMgAkwASbABFiIGHMPsBBhIWLMfcP7MAEmwASYABNgAkyACegmEB4R2rjKPCIcmsWhWbpvUd6CCTABJsAEmAATYAJMoDYSkIRI46DAkFuVfYJiDZEGLmhSQcnqtx7E4+1yJKu3pTVEKjhZ/Z1llrgYKTMKPSerG4WNd2ICTIAJMAEmwASYABOoBgSqVIhU+/K95sCO9yq4fO9ntigoNPJO4PK9RoLj3ZgAE2ACTIAJMAEmwASqmkB4RGgTCs1qEhQYcrMqOsMLGlqVCzstaGjZ1R6WJl7QMD89G/m8oGG5rg3vzASYABNgAkyACTABJqCdQJULERGe5euEJj5eJr1Ot2Ji8fb9NKPXEJE6Q+FZ86fnoVmAaVd+vxGZhXeXWxkdliX1j8KzCmYD9kEeJuWXGZ4Aiz/Aa4iYlCo3xgSYABNgAkyACTABJiARCI8IbVqlHhHqCHlFBtVzhquTo0muTHJaOvbGpeLtmDSTtPf5tDwMai8zWRlfKtu797wc76wonzdEOjnyiph3Ml0ZXyrbW3gmG5Z/cNlek9xA3AgTYAJMgAkwASbABJiAGgFJiDQNCgy5UVV83M1l+NPfBQHuLrCztSlXN7KycxCZmIIno1KQWCgvV1vSzm6ORfjzxVwE+FjB3ta4NT+ktjKzCxAZk4cnf7RGUrppXvSLHIG8eXLY+DrBwq58iy8WZOUi534arL6SwSzdJPi4ESbABJgAE2ACTIAJMAEmoFWINAsKDLlelXwoRGuBjyO83IwXIyRCYpNS8EZMerlDslRZUIjWV0/kor6HtdFihETIw4RczFtqXe6QLNX+UYhW3hw5bD2djRYjJEKy41Nh9ZuMQ7KqcjDwsZkAE2ACTIAJMAEmUAcIhEeENqNp+SoXIsSaxMin3o7wdrI3OEyLwrEepGXi/QemFyHSfUBi5JPH8uDtYWFwmBaFYz1IKMAHK8ufF6LtviQxkv9kESw97WDtYm/Q7UvhWPnxWbD804xFiEHkeGMmwASYABNgAkyACTABYwiER4Q2rzZChE6AwrTe8HJAWztLeDs7wt7WBjKZ5nU25HI5MrNz8CA1HRez8rEgNsNk4VjaYFKY1huj89EmUA4fD0s42FlAJtMcYiWXFyEjqwAxCfm4FCHDgi2WJgvH0tY/CtMqmFyEomDAytMeFvY2MNPSvyJ5EQoyc5AXnwmzMMBijRmHYxkzingfJsAEmAATYAJMgAkwAYMJSEKkeVBgyDWD967AHcg7MsXVFp1sLZAvM4e9lSXsLBX5GVn5BcjMy4elvBBnsguwOjnb5KFYuk6NvCOTexSgY6NCFMhlsLORwd5GIUgyc4qQlSOHhUyOs3fMseaYhclDsXT1Tyx22BcobCKHudwCMlsLmNmYi92Kcgohzy5AoawA5rdkMD/E1bF08eTvmQATYAJMgAkwASbABExLoNoKEek0adHDEBtLNLSUwdlc4RlJLZTjbr4coTn5KCgyLRBDW7MwB0L85PDzlMP5UYXf1CwgOl6G0GiZ8YsVGtoRbdubA/KAIhTVA4oeRWuZZQJmcYAs0gwwdjFFU/WP22ECTIAJMAEmwASYABOokwTCI0Jb0DR+tfOI1MmrwSfNBJgAE2ACTIAJMAEmwATqCAFJiLQICgy5WkfOmU+TCTABJsAEmAATYAJMgAkwgSomwEKkii8AH54JMAEmwASYABNgAkyACdRFAuERoS0pNKtlUGBIaF0EwOfMBJgAE2ACTIAJMAEmwASYQOUTYCFS+cz5iEyACTABJsAEmAATYAJMoM4TYCFS528BBsAEmAATYAJMgAkwASbABCqfQHhEaAiFZoUEBYZcqfzD8xGZABNgAkyACTABJsAEmAATqIsEWIjUxavO58wEmAATYAJMgAkwASbABKqYAAuRKr4AfHgmwASYABNgAkyACTABJlAXCYRHhLai0KxWQYEhl+siAD5nJsAEmAATYAJMgAkwASbABCqfgCREWgcFhlyq/MPzEZkAE2ACTIAJMAEmwASYABOoiwRYiNTFq87nzASYABNgAkyACTABJsAEqphAeERoawrNYo9IFV8IPjwTYAJMgAkwASbABJgAE6hLBMIjQtuQEGkTFBhysS6dOJ8rE2ACTIAJMAEmwASYABNgAlVHgIVI1bHnIzMBJsAEmAATYAJMgAkwgTpLgIVInb30fOJMgAkwASbABJgAE2ACTKDqCIRHhLal0Ky2QYEhF6quG3xkJsAEmAATYAJMgAkwASbABOoSARYidelq87kyASbABJgAE2ACTIAJMIFqQoCFSDW5ENwNJsAEmAATYAJMgAkwASZQlwiER4S2o9CsdkGBIefr0onzuTIBJsAEmAATYAJMgAkwASZQdQRYiFQdez4yE2ACTIAJMAEmwASYABOoswRYiNTZS88nzgSYABNgAkyACTABJsAEqo6AJETaBwWGnKu6bvCRmQATYAJMgAkwASbABJgAE6hLBMIjQttTjggLkbp01flcmQATYAJMgAkwASbABJhAFROQhEiHoMCQs1XcFz48E2ACTIAJMAEmwASYABNgAnWEAAuROnKh+TSZABNgAkyACTABJsAEmEB1IhAeEdqBQrPYI1Kdrgr3hQkwASbABJgAE2ACTIAJ1HIC4RGhHUmIdAwKDDlTy8+VT48JMAEmwASYABNgAkyACTCBakKAhUg1uRDcDSbABJgAE2ACTIAJMAEmUJcIsBCpS1ebz5UJMAEmwASYABNgAkyACVQTApIQ6RQUGHK6mvSJu8EEmAATYAJMgAkwASbABJhALScQHhHaiXJEWIjU8gvNp8cEmAATYAJMgAkwASbABKoTARYi1elqcF+YABNgAkyACTABJsAEmEAdIcBCpI5caD5NJsAEmAATYAJMgAkwASZQnQiER4R2ptCszkGBIaeqU8e4L0yACTABJsAEmAATYAJMgAnUXgIsRGrvteUzYwJMgAkwASbABJgAE2AC1ZYAC5Fqe2m4Y0yACTABJsAEmAATYAJMoPYSYCFSe68tnxkTYAJMgAkwASbABJgAE6i2BMIjQrtQjkiXoMCQk9W2l9wxJsAEmAATYAJMgAkwASbABGoVARYitepy8skwASbABJgAE2ACTIAJMIGaQYCFSM24TtxLJsAEmAATYAJMgAkwASZQqwiwEKlVl5NPhgkwASbABJgAE2ACTIAJ1AwC4RGhXSlHpGtQYMiJmtFl7iUTYAJMgAkwASbABJgAE2ACNZ0AC5GafgW5/0yACTABJsAEmAATYAJMoAYSkIRIt6DAkOM1sP/cZSbABJgAE2ACTIAJMAEmwARqIIHwiNBuFJrFQqQGXjzuMhNgAkyACTABJsAEmAATqKkEWIjU1CvH/WYCTIAJMAEmwASYABNgAjWYQHhEaHf2iNTgC8hdZwJMgAkwASbABJgAE2ACNZGAJES6BwWGHKuJJ8B9ZgJMgAkwASbABJgAE2ACTKDmEWAhUvOuGfeYCTABJsAEmAATYAJMgAnUeAIsRGr8JeQTYAJMgAkwASbABJgAE2ACNY8AC5Gad824x0yACTABJsAEmAATYAJMoMYTCI8I7UHJ6pwjUuMvJZ8AE2ACTIAJMAEmwASYABOoOQQkIdIjKDDkaM3pNveUCTABJsAEmAATYAJMgAkwgZpMgIVITb563HcmUE0J2Nrawt+/ATw83ODq5oKI8CiEht6opr01XbcaNw6Cg4M9EhOTkZiYhMzMLNM1zi0xAQ0EzM1lCAz0h7u7K9zd3ZCVlY1Dh2p/EUweazwcmEDtIMBCpHZcxwo7C5mZGXp4N9XYflR6Au6mJ1TYsSu8YTPAt1s9yMzNEHc5GbmpeSY5pLWLFeq1chVtmbJd5c65BDvC0ccO8gI57p+IN0m/TdGITCbD668/j4mTRsPR0aG4ycV/rMCCBT+Z4hDVuo3vf/gCAwf2Ke4jia/ffl2Kffv+qbR+12/vDkt7C2Ql5CDxemqlHVfXgTxDXGHjaoXUqEyk3c3QtblJvq+u48QkJwdg3LgReO75p9CggU/JPXflOiZPnm2qQ1TbdqrDWCsvHBtXa3iGuGhsJu5KMnJTTPNMKm8/eX8mUJEEap0QaeRSH128GqsxKyyS42FWCu6lJ+JeRiJyCvMrkmuFtd3Q0QNJORnIyM+psGMoN2xjbomr0xdqPNaPl3bhvxe3V0o/KuIgPl09MfpvxUvj+Z9v4PSCUJMcpkGPehi5rLdoa/PUQ3hwWrdYc2rogJykXORl6Hdf9vqkHVpODxbiaUm7LSbptykamTx5DD76+N+iqeTkFJw5cxHJSck4cvQkDuw/UuYhnBx80DxwOFwcG4L+nZObiuT0u4h+eBpRMSf06p6ttSv8vDvBt147uDkHIi7pJmLiLiD64Rnk5WdWeBtz5sxEp87t4enpDpqxNTMzQ2FhIcaOmYmwsAi9jl/ejabsHgzXxk6I2H0fu5/Tj1t5j6lrfzOZGebcGg/6/8Pzidg08aCuXUzyfUWNE0PHq0lORqWR4OBAbNr8F8zNzZGfn48TJ84iLi4eERF3sWTx3zoPaWvjCh/Ptqjv0RJe7i1hYW6FtMwHiIm7iDt3DyArJ6nMNnis6USsc4OGfetj+OKeGrfbOu0w7p+I09kGb6AgQM9z12Ano3DIC+W4vqpyfp+N6mAt3yk8IrQnJavXmhyRqU26Y363x8q8bNkFefjz+iH8FroPaXnZNeISBzh54p2O49GvQUsM2vQpItMqZxbcUmaOH/uWzK6ZwQwD/EIEs5ouRMgbMmqFQjBc+N8NnPqq8oWIc4ADur/bBg371ceqgbuRGqnfTHFFvWCVdzCsXbcYLVs2Q0JCIoYNnaJnaJIZerZ/GR1bzIS5uZXGLtx9cAq7j3+AtIwYrV10d2mEyYMXwc7WXW2bxJQ7WLvnGWRmly0KTdGGdPA2bVpixd+/grxEq1dtxMcff11evHrtX12FyL/uTBD9j72QhI0TDuh1LuXdyNTjxNjxWt7z0LT/m/NewlNPKZ515AEJvXJd78MENeiNEb2/gpWlvcZ9YhOvYvm2qTzW9CZq3IbkJezwcvPinW3crEEeTTIWIoYx7fNFBzSfEmjYTo+2LsgpxKIWG43al3cqPwFJiPQMCgwpe7qy/MeqlBaUhUhCdjoyCxSeA5mZDN52LrCQmRf3Iy47DSO2fCE8DNXdxgV3xoKeM0Q3+2/4BFHplSNEVLmQELnzxPfi45ouRFwbOWHU8t4wMzfD6W9CTTYjYohHpMl4f/Rf0EnwXNlvF1Kj9LsXTf2CZar7/9jxHXB1dcGG9dvw3nuf69Vsp5Cn0LvDa2Jb8oJcub0eyWl3YWfjiuCG/eDt0Vp8F5t4DSt3TEehXN1r5OnaBJOGLALN0hYU5iIy5jhiE67Cr34n8Z+ZmQzJaVFYs3sWMrI0zzKaog3VE1656neQIDl69BTmPPOqXjzKu1F1FCIwAybvGgxbN2vcPfQQB988U97T1Gt/U48TY8erXp01cKP/fjsfQ4b0Q3R0DIYMnqj33h1azESfjq+LMQEUibH2MCEUOXlpcHFogAb1OyApNRLLt03R2KYpxokp2qgOY01v6Hpu6NvNE6NWKLz0LET0hPZos+7vtkbjsf5qO1HoNYVLk5HgyM8sUNumMLcQy3vuMOyAvLXJCNRqIfL6kb+wKbzkgWduJkNHr2B82HkimroqYmp3R13C84cWmQxoRTXEQqSiyJq+3boqRKysLHHxkiIX4vffl+G/C3/RCdfe1gNzJu6FTGYhQkGWbhmPrOxEpf3MMLTnp2gZPEZ8dvD0lzh/fblau5MGL0JD7y7ixWrTgbkIiy4J/WnffBr6dX5L7HP51jrsPfGxxn6Zog3VhqU4dgrLGjVymk4eptigWgoRU5yYEW3UZiHy98rf0LZtCC5duorHpj6jFx0KwZo+cpXYlsbZhv0vgLwfymZhbg1/n24Iiz5UYeOktow1vaAbsBELEQNg6bmpR0sXTNw6UGwduiwMRz+8oOeevFllEahTQkSC6mHriN1j3oOLtZ34aMDGTyot1MnYC8tCxFhylb9fXRUidna2OHtuvwD+88+L8eMPugU+hYiMG6BIYj96/nucuvK72gVzsvfGMxP3iM9vROzA9sOKHBTJKJ/kmQm7AJhpFRrSi09efgZ+Wd1XeE1M3YamO+2rrz/CyJGDDZ61Ls9dy0KkhF5tFiJSGOTZsxcxc8bzet0yw3t9ieZBw4X3Y/nWyUjNuK/XfjzWDMJk9MYsRIxGp3VHFiKmZ2rqFmu0EKFE6mEB7XAk5jooDItMOTRL1SOiDI+8IjObK1ygzx78HXvvXtbI1tPWCR3rBaG5WwP42LsiIi0O15Pu42xcmF75JT19msHWwgo3kmMQ/ajCVId6QejfIES0l5KbiZspD7Aj8nyp9vwdPdHE1bu4T93qN8ETj/r7wck1iMsuXQ0nKz8Xxx7c1HgOFE5FHiA6Dx8HV3jZuaCoqEgwOx17B0cf3EBeobq7UlNjlR2a5dXeHXYe1shJzsODM7qTvqU+O/rZw6O5s/gz6sBDUV2KzN7LFvXaKCpaKVtKRAaSb6cZNL7qtXaFVwcPcRza/8HpeMReTIJvV0+tyerO/g5wa1qSUOfTtR5aPdlIHPfI+xeQFV86Z4ncyPeOqYcSqb5gURKwewtn+HT2hHtzF5FrEnMqHg/P6s/MoJPXsLExQqRDixno22meaG3zwbkiSVaTvTztNCwtbMXsrWrserc2z6J72xfEbuv2PIOoByfVmmjTdDIGdn1ffL7jyNu4Hr6t1DamaENTv6uDELGwMYdXO3f4dPGAvbcdEm+k4u7BB3rnI7k1dYZnK1dxn1vYWYhKXPGhyYg9r+y5Uj97maUM/v3qq32Rk5KnVwEH5R3t69uKcVWvrRssqQ8303B7YxSyk3Lh1tgJth42yIrPQfKd0mO4vOPEVOO1vGNL0/6GChEHu3pC0MvMzHHu2l84dMbwnCVTjBNTtFFdxhr1g+5zyuvwbO0qni92njYiBCgjJgvRR2J1jhPlczFEiJj62Uj9cPC2g083T9B9b+9lAwtbC1FEhSp40W8GPYc1GYU5uwQpqiRGH41DQVbZ7xP+/b0hszATY5ZyxjQZFYQIHOwDBx87wZTCp9LvZYpnLFWKpL/1sXIJETOIa+vRwkU8VwvzCpFwLRUJoclIuJai9fD0G9WgZz3x/b2jccjPKgDlA3l39oB7M2ck30lH7MVExTtNkXozvX1bIDU3E5cSovQ5xRq/TXhEaC9KVq9ROSLNXH0xpUl3jA3qBCcrW5G8HZ6qeFnTV4jMbNYbH3aZJPb5z7lN+D1UMZOrbMP82+I/PabBwdJG7bvYrFTMPbwEZ2LDyrwJDk34CH4O7vjm/Fb8fGUPvu45HeODKYSktMVnp6HrmneLP3wmZADe6jBW7xuMckYod0TVSID83v9f8HVw09rWvYwkvHP8b61CRnnHyhYi3d9rg9azGiM7MRdLO23Vm0fxfkm5WNqxZL/g4Q0w6Meuau0YkqxOMafdP2iLkBnBau3c2hiF25vuYsRTNLHvAAAgAElEQVTSXuI71apZbec0Rde3Wul9HpQzQrkjqqb8gkXnN+TX7qAfd1W78MsNnPraNEn4ujptb2+HM2f3ic309Yg09h+E0X0VVdl2HXsPV+9sVjsMJbDPnXZGxLTfvrsfWw6+Umqbx0esEHkk+QU5+GlVDxQW5sHNOQhDenyC9XufBXlBnB0b4OnxO8V+18O3Y8cRRaiWZKZoQxOfqhYiRz64gHHr+oGEubLRg/HA62dEZS1tRiWAe37YFk0nBmjcJGz7PfzzzjnkpWuu9Eb5IE+cHaW2r6HJ6n69vDDop66wcrAs1Ra96G2ceFDkWPl2r4dbG6Jw4I3SuSflHSemGq+6xo4x3xsqREpysYqweOMokTNlqJlinJiijeoy1pqM80fPj9rCyrH0vancP3rZpPsyPVp31T5DhIgpn42UJzl+Q38x4aDN6DfjzMKruLz4ttomyoVf6DehrApUNIE3ftMA0cbx+Zdx+Y9bpdqTWcjQ+/P2aDrOX+RvajKqLvlXl20oyNYtRowVIpRXQr8tmp6r4jmyKgJHP76oURA5Bzrisf1DRNc3TToIqo7W/oWSogTSOdFvKN0bqqLqrY5j8UzLAbiRfB+rbx0XKQY1pbCSob8ptL0kRHoFBYYcNqaBytrHzsIaowI7CAHSxqMkIUleVCRCq6T1LPQVIq+2HYEX2wwV3Z93bDnW3zlV6lRmteiHdzuNF5+l5mXhyP3rwhvS3M0XPX2ag7wxVBL4xUOLsefuJa0YJCGy5NpB0UcSP/nyQoSlPkR0eiK87V1BJYdlMEPz5SXJrFQda1Rgx+J2Gzq6o52noiLEvugryMwvHVqSkJOGz8+oV32gNUD+GvwiilCEa4n3EJ4Wh6i0eFHJJ9CpHgb5tRIJ/OQReXLvTzgVe6fMS1rZQiRoqC8G/9xN9GlFn516/ZjTtmPX9RMzGaolTL3auaHVkyXlnRuN9KOIHoOqZg39tTsCBilyjGgGlmY8yCgki8qmJoSmwONRbXhVIeLfzxuNRvsVM3byswfNbJFF7otRS6TLTsgRP9aqVvyClZaPyD330XicP+4fjxNeHZpBChjgLWbqyCor6dGrfj0cPLhJHJPyQyhPRJfZWrtg9vidsLZywO2ovdhySJG0rmyNGw7A6H7fio92H3sfoXcUx5CMZnkpfCsu6TqWbZ0sPu7Zfi66tHoa2/55EzcjFULupcdPiipBVIFr7Z6nTd6GpnOd//m7Yq2H9PQMdOk8WBcOk3wvhWZR6U9ap8DB21bMINKLO83sUZlLMvK2Leu+XaOQcPS1E0mzTg0VAoZK7sZdSERhvlzM7DXo6SU+p/t/7Yh9kOcrPI7KRsKh9/z2xR/RSxZ5LgwRIjRehvzWXaz1Q7Osdw/HIvlWKlybOIsXhLSoDPESSB6TMoWIkePEVOPVJBdWpZHdu9fCr6Gv3oUQhvf6As2DRopiDb+uVbwIkoCv594c5jJLJKTcRnzSLWTnJmvtLo+10mg6v95SvGDSi2TcpWSkRqYj/V4WrJ0t4dHStXis0dhbP2a/mFArywwRIqZ8NtL4mnNbUdWO1vhJvJEmziU/qxD0WxA4yKc44ZuqS9LEXSkzAx4/OBTkxSBPKU0QaLOeH7cTk3j0m7Gs23bh1VQ2SWDRZ8J7e+ih4GZpZy68nw37ewuv6B+tNmlMPFc9rjFCxNrJEhO3DxLnThZ3MUl4L8xtzIVnlp7z4vNLSeJciwpLuzWUhQjxoGc8cSUPGYkn3671it8RqF16T1D2jLzefhSeb1XyvKDlJnZGXsCqW8dFNE5ts2ovRFq5NxReDhIh9kqeCfIAkHjYEHYaDzJLfjj1ESK0SN+64a8XC5px2xfgspILjLwshyd8DEcrWxFONXPvT6UW7mvnGYBFA54TOSYkToZsmi9EiSaThMjN5BgEO3vhwL1QvHXsbyFuJHOzccBzrQZj/pkNWu8vY3NE2tcLFIJm+Y3DCEuNVWufxMimkW8Kr09oYjTGbPuqzHu8soUIvbg8cXqk6NO+uadwZ2u0zjFIMyqzr4yBubU5Tnx+GZcWlZ5xUW7gX7cniFkXfT0iJG5I5JCRcNjzwsnilzBqZ8DCzmg0qkRobHnsHxEipc2MrcIjCRFql2aqds05LoSIZNTPMWv6inUbovY/wM5nSlZabtW6BV56sfSLuE6ojzZ4/4P/IPah5qpT7Tu0wfLligT199/7AuvX6+fBat1kIgZ1+0DkeFCOyOkrf4g1P8gDEtSgj/iOktppLRASEEUqY+2V6edE2V9lgTFl6J9o4NUBF2+sxP5TiupdlBTvaF8fCSl3sHTzuFKnbIo2NDF8/Y3nMXv2dPHVgP7j8OCB+hjUl72+20lChLZPCUvH9iePIP1+ye9Nu2ebocs8RQluTTOS9DmJf3rRoZDGg2+exe3Nd0sdnkImBv/UTYyd459d0jhLqtpfqlBHngu9hQhV2to5GG5NnMTCbtufOioe/JKRp4Q8gRR6RlaWEDFmnGjibeh4raixZmFhIbyP1tZW2LplN/79b80FGJTPgZLUKVmdwhtX7XwCYwf8CH/v0t5heVEhTl3+DScv/Qr6t6qZYpyYoo3qMtZaTgsWQvj66gjkJKuLjOCRfhj0vSICgp5D9DwqywwRIqZ8NpIQoUiB0L/CNK5dQpMKI5f1Qr02bijMUwgI1fNt91wzdHlT8btCpehTwhXh8spGk2NPnBopRE34znvi+als9MyeHTpWTDyQt2DvS+phttSXZpMDcO3vcBECp8uMESId57YA/Ud27vtrOPPtteLDUN/6ftkR9FtAduC107i1qfTvo7IQoW3o2bxzzvGSkDUzoM/8Dmg+VTG5TM9nek5LRu9ZXeo3wsRGXTHUv60I75fsTupD4SWhd18K7a8NVi2FCAmA0YEdhQBp4dagmHNmfg52RF7EujsntapCXUKEKme93n4k/hUySLQbm5UiQpqUFzh8uc0wzG07XHw/58Cv2B+tHtqi7DF57chSbA4/q/F+kIQIfXno3lXM3v8/o+4bY4WIPgdT9g51XPU2knO1l5CtbCFC/X/s4FARs0ouYXrp0WU0Yzthi2LGb8P4A2I2Q5sZKkSG/tYdAQN9hPj4q+s2tZhZmqmZeXqkmLEhqwwhcuF/N3HqqytqpzhsUQ8xa0xelaWdS3Ii+vTpjl/+t0AXRo3fjxg+VSyYpmrkYVv4388weHBf8ZW27bQdlEK0erZ7SSxCSEYVfaytncRMLYVWXbm9AUfOfyfCrpSNPCkvPqZYtO921D5sOaTwKj4zYbdYFDHi/lFs2Pec+Gzm6PWgsqE04/vzKsX6MWSmaEPbeQ0dNgALF34qvv7nn+N48YV/iwUOK9KUhQi9vEf/87DU4cytZJhxYqRY5TxsWzT2vlzaG6z8MnTuh+s489/SVZWkxvp8rniQUtw4jQVNXhHlAxsqRGic0Xgj0zahIM2u0ja6hIih40TTNTJUiFTEWKN+TZ8xCe+8o7jXP/rwS6xZox7SqNr/2eO3i8VCw+/9I8IYmwYMEYKfPIkymaUYG5SHRUZ5VpRvxWOt/CN1zOq+8O7kgaTbaVgzRFF0Q5sZIkSojYp8Nqr2UTn8igQECQlls6tng+nHRggRoW2sKXtxNP02UWjYhM2KZzctxlpW6Ki+V8ZQIULCcvrR4UJgUnTDutGKcGNlI0E18+QI4XFOjUjHqkF7UCQv8YooCxH6fEWvnch4UDIZRG0p2lD8DlMu56bJmqvU2VtaY3hAO0wI7opOXiXh4BTFQtE4q24fx8kHt0XUS021aiVEaPZ+auMeArqkAAnuqYd3hPjYFXURtBhhWaYsRHZEXsC1JMVgIS8IrUresV4waHFAyZ7a+zMOx5ReCIq8JeT1oDyQXus+0OjtcLG2x6nJ80VY08aw03jjqOYwFEmI0HmM3vpVcX8MvWEqUoiQ4v7p0aKF5BEhz4g2qwoh0u+rjiJOXdXlS7kjLR4LErO9NOsrGbl96QWFXKCL22wuTlTXdE6GCBHyLjxzYxzI4xKxJwa7nz2uEZPUX/qyMoTIqkG7xcy3qnV6rSU6vNhc/ED+3mxjMYemTRth2nT91x1Qbvf7734XixXSiuFPzXoc5jIZPD090LlLezRpoviRXLFiHeZ/psj70NdIgJBnpG3TqWqLGtJLEXk27twld3/pH1tXJ3/MGqcQWaG3N4pFD8lefOw4rK0c8TDhClZsf1x8NmXoUjTwolChIiz8q22xZ8UUbWg7Typp/Neyn9G6dUuxycOHsdi6dQ/u34tBcnIq9u7V/PDRl5um7SQhQomgFEetycau6Yv6HT00PgBptq/ZpADIC4vE+NGWeEoeCSkXSts9qHxsQ4UIhXXR+KZ+/NWZRL/6jDPN0I7f2F8cRpcQMXScaOJmqBAxxVijfowYMQgU+ujm6oJmzRuje/fOontUunf2rJeRlaV7Yd5nJx8UnsX8gmwhOEjc7z81v1jc29m4YVTfb9DASxESvPWf13ErsuTF2RTjxBRtVKexps84pRySkJmNhOf6j5DSYaWq+xsqRCry2ajaN3phfvLcaPGxtomBIf/rLhLMM2OzxbocqiFL0uQYvZTTy7nyyzu1697cGZO2KyaJT355BRd/1VyARx/u0jaGChG/3l4Y8acix/Pw++dxbUW4xsPRuiWtZzcR3/3ddyfS7pZ4J5SFCBWb2TZDc+aDcmTDkrabkZumOd9O6gAVMZrQqAvofZCKHUlGEUKrb53A+rCTxYWbDGFU1dtWGyHSx7cFFg9UzFySRWckitCrjWGnQMnU+po+K6tTWw+zUrDg/FYhIlTtxOT5qGfrhMP3r+GpfdrXQjg4/kMhbihhfeouRQy7qklChERN97Xv6XsaatuVV4iQJ4jyTigUi/JSqIQxiQoyd1tHdPFSVG56bNd3opKWNqsKIdJsciD6/qeDiMP9o1WJsBi3vj8o54NseY8dxTMO/b/pBEoijDkZjy2PK9a10GaGCBGqiDLjxAjR1Nnvron/NBkJJIpzJasMIfJ7840aE+bo4UcPQTJypdPDwVRmbi7DldCjpZrLz8/H559/K1YRN8SaBgzFsJ7zhQBJTb+H0LBNSEmLhr2tO/x9uiPQt6dojkr37jr2fimviHJpX6qERRWxyJ6dfAD2tp54kHAZf29XrN/x+PAV8PZsLRZE/HZZSe6CKdoo63xtbGzw/AuzMHv2NCHgJMvOzkaH9orZP1OaJETKCoGSQq+outrK/qWLIYxd2w/1O7gr4p8nHBQ5VJIV/9PMTMRP04ws2c6njyHqQElogabzMVSIkMghsUMvLTS+NRlV8Xo6VFHUQ5cQMcU4MVSImOq6UsgjhT4q27p1W/DZp98gL6/slxdpn39N2g+qnEWmyKeiBQtLC3sSKuRNpLGYlBqOJZsU6/eQmWKcmKKN6jTWpL5QToH/AEWFJ8rJkhbQo+8ptJCqShHq/wWvK/OWMFSIVMSzUVSJauUqzoNyr2jijYx+uoKGKSJUKFSJQpZUjXKqhv3RQ3y8Y9ZRkd8hGYWS0fOTPCaq4U7SNhSaNeM4eRqsxETi5cW3RIhW0q00NdGi79gyVIjQ5IeU21ZWREWTsQ3Rf6FiQkA1D1NZiJQVktfi8SD0/kzxLFozbC+SbpauhqrtHGlinSqpTmjUFUP824icZTKK8Om+VlEdsiZZeERob3q2VHmyOr0kLxrwrGBHK53/9+J2bIs4Z3ClAGUhQmJGiqGjHI7YzFQhcChRnEKpcgvVf8CtzC1wbfpC8ZJOQogS2bXZ6mGvCA9LTGay8JxoMkmInIsLx+Sd/zX63iiPECEF/XKb4WhQRuUsqWMz9/xYZvWsqhAiLsGOmLpXUYGCEv7iryTD2tkKT54dJV7A6WVEuVIHVaugH4JzP14XVT7KMkOECIkeEj9kVGr36grNSWOUIzLwO0VccEULEapYRLPWmqzFtCD0/lTxI0ezU5QwaSqjF+rnnnsKMnMZ6tXzQOfO7dGwoeIh9csvS/DD9+rrgWg6Ns2QPjV2i8gHoRyPTQdeFGEjyqa8IOGJS//D8YuKdUfI6IWJYs7JKORk4/4Xxb+nj1wNL/cWiLh3BBv2K9ZYeGrsVrg5ByA98yF+W6eYdTNVG2VxfeWVf+HpZ2aIAhFkN2/cxr37D5AQn4iPPza8hKquaygJkci9Mdj1L81eO4pbp/h1quRDRSCU7clzo0TIgSF27JOLuPJn2YUuDBUiU/cNgUuQoxBEG8ZpLutMfaSYcgqFLEuImGqcVJUQoYIHPj714ermgubNm6BdO0XlvWPHTuPFF+YhN7fsSAHadsaoNajnpqjco61CHX1HVewoVJLenL9b3ql4zR0ea+ojgl7SyfNMXniqMqfLfmu8Xnj4tJmhQsSUz0YSIN3eaV1cPKWsczn/03Wc/kb92Uo5Y9OPDBcCRjUHhLwH5EUgQSYKz9zTnN9Av0sDFnYqFkDUD/IUxF9WlO0N33EPVE1SXzNUiFCeC+W7kK3otaNUfp3yMSnfjX7TyA7NO4sb6yKLv1YWIie+uIxLv2vOUw0c4oshvyiK8eycfQxRB8uezFE9Z6qKSss6TGmsCGFVrb6qL6Oq3k4SIr2DAkPKnjqu4J5Sedl3Oo7DwEdVnMTNV5gvKkStu3MKx2JuaE0IV+6arhwRXadBnoJTkxXJrX9eP4RPT6/XussfA55F3wYtkVWQi1Yr3tC4nSREKEzspX8W6zq81u+NFSIU5vZDn1mi3ZTcLGwJP4PbqQ+F+67wUTIilUN+rZ0iIfyJvT/haIxKRQylXlWFEKHDSy9HtCoqrY4qleGl+HVKKqNQqT3PnxAC5anzo8UsLoVrRR8uOznYECHi16c+RixRzM7vf/W0WgKvhEl5VqiihUhuah6WtNui8b7RJkRovQ9vb/X1HfS5Oe/evQfyfKgaJc/SKuJ9+/YQa9QMHjQR9+/r/lEd0uNThDRSzGjT7CvNwmoySVhQTPsvq/uUWpBQCsO6H3cBq3bOFLtLC7edv74CB0//R3z23ORDsLN117gWiSna0NTvNm1aYuUqhSgjHi+/9DauX9dePEGfa6BrG30WNNQmRET1nFsTxPihnA9KTNXHaBxqKuupvK+hQoRmT8kLqcuzSSWCqVSwrvK9ho4TTedtqBCpiLFG/ZozZyZeeVUxcffO259h0ybNHiPlcxg/8Jdi7yKFK1LYoibr3eFVdApRPDNUx6Qpxokp2qguY005R4m8i3e23BUvrpQ3Rb+DZE3GNBSin+y3JhvKDBU2VIhQm6Z4NlIOJuVVUl4EjfvwXfcReyERWXE5KHi0XgeFJlPFSLLzP9/A6QWay8J3erUlOrzUXC2PctKOQWINjbJClaTrSiFaVI2MwqRUy3ZTuBf93lAf9DFDhQhN3tGzU9z/ZYRLKZchVg1VUxYih989j2srNT/XlMUMlVOn8v+6zNXaAaODOmBCcBe0dC8pjENRNytuHsFPl3fraqLafV9thEjxDWjjKGLgSOEp53IQ5M3hZ7A+7BTupJROvlSmWl4hQi6v69P/K3I/tkacwyuH/9R60TaOeAOtPfzFGia0lokmk4TI9sjzePmfJUbfAMYIEUuZOc4/9iWo9DEtwkjhYxn5pWebqUMjAzvgu95Pir5VVyEilcylgUoDlkK1yC1NMxbkfaByen+23wLfHvVEfCfFni5puwVUb7wsM0SI0MJuk3cqZtLLqhRE+SwUu0tWHYVIRSXQklfkz6U/ivN+99352Lhhu877XUogp5Wef1qpcOlrsgFd3kHbZo+Jr5ZuGY+E5JJa9pKng9ZFWLxRIagVlbg+xPp9zyHy/lGxiNvL08+I5Hdlz4l0LFO0oanfL770NJ5/XvFSN2P6czh3TnexBZ3QdGxQHiFCTVOiJoWYUCUYqghjKjNUiEihl5T/RPkdmoxmYOfcHC+qw1VHIVJRY42qZZ06vReUg7R58068/Zbm548ys6E9PkPLRopQq9/XD0FaRoxGpiXrjQBrds8S1epMOU5qy1ijkqy0Rg/ZjbWROPTWWc2L033WHhSCQ1YRQsQUz0Z6ZtJLPz0vN08+JMrmqhotKjjzlOL3tSwhQiGbj/8zTIxJWmcjdOkdKIsBfatf0nHI4+TRwhneXTwRONhXhIxKphr6pe13ylAhQiKKxBTZygG7RTK6JqO1QYYvVkxMqp6TshAhzxF5kDSZclU1yiPRtHgx7Ufvo319W2Jioy4ixJ7+JqNIn8P3r2PVrWM4eO+qXpP1pvo9N2U71U6ISCcnlS+b2qQHhjRsAwqZkoxK7VLpsq0RZ8Usv7KVV4hQW5J4OPXwNh7f/b1W3scmfYr6di44EnNDrMGhyapSiFDFsa2j/i26pa36F31H9aqpbjUZnQedT1l2e+b3IvmfFmikhRorw9o80wTd3m4tVoOmmPbpx4YjP6MAq4fsETMnVM+dqk7QDEOnV1qIVU/XjVSvdqHaV3qJoeoVF3+7iZP/0TxDKO1Ds0WzLike5GWV+233bFN0macInahLQsTb2wv7DyjyQxZ+8zMWLdIe1igxfX7qYdhau4rckEUbhmm9lbq3fR7d2ihyyNbv/RciY0pCjsYN+FGU+SWj9RFonQQLc2u0ajIBF2+sEknpvvXaY+qwpWIbZS+JdEBTtKGp8x99/G9MnjxGeJHat+tf4RWzqA/lFSIj/+ol1gnRFRJl6LiXcj7iLidjw1j1BWRV26MJBgpzpPVOKPxQNbGVtqcQEIopJ6tLQoTOd8/edWjQwAdHj5zEnDnq6++o8lQeQyt3zkBM3EWNl7BPxzfQseUT4rs/NgxHSnpJ8RJTjBNTtFEdxlpxLmARxP2pbdJLGk/U59+abiizuhytvD1mlaLy4LaZR3DvqO5y36Z4NtJzjZ5vtLigpnWrqD/Kpet1LZQrjfWEqylYN2oferzfBq2eaizKcFOFPX09rarXmV7cB37bWYicsB33sPdF9fK+qvsYKkSUvZ5lPb+l/Bw6Hq0lQsV0JFMWIqF/3cHRjzSPtVZPNkKPDxR5nPReQ+83ykbvcDQxT1VkaZkHySgdYM3tE1h7+4TId67pJgmRPkGBIaYv32IiOlShijwCUxt3F4v/SUYLA+6PvoJ3T6wsFiSmECLLB7+Ebt5NRIWubmvfQ3qeepIv9WP3GMVK6CtvHcN7J1ZpPFtTCZGBfq3xa39FOUVdla2kjowIaI/v+zwl/hy2+XPcStEcKrNm2KvoUE8xY1OWYJHaPTLxE1GxYfXt43jn+EoTXeWymynOzygCNk05BKr6I4kH6YeGZh1oESmaqaDwLQrj0mWPH1IswnRzfRQOvll6VWZN+0pu8LJe0pQfPLqECC2MKLm714/ej/hQ7YuJKfdHecVoQ0NOHBzs4dtAfRV2Xazo+4jwKK3JscasrC6tskxrFny/vJNIJNdk0mJs9B0JFhIukjULHI4Rvb8Uf2qLfe/R9kV0bfMvsQ0lr1MSu7KZog1N/ZZWVqewrEEDFQuGVbSVV4hIC4pRjf6V/XaZrMiB5MWk0BXyZOqy9s83Q+c3FOsSaCr1SZ+3nB4MGgtklSFEDB2vFTXW6HzXrV+CFi2a4uzZi5g5Q5EHVZa5OQfhqbGKfLK9Jz7B5VtrNW4uCQUak98t61BqPRFTjBNTtFEdxpoUwkNhWH920BweS0nr0w4PKw4v0rUIn6OfPab9o5iQKSv8V/n8y/tsVF6PhF6Y6cVZk0mLN9J3ZQkW+p6S2gf/pFijhvI6hy/pKcInryy5jWOfls8rTKuyU1iUvhMlhgoRKrVMJZfJtOXC0HeDfuiK4BGKvEiqTkhVCiVTFiK0yDBNmGoyyg+hPBHKG6KKatIK6xTy/2b7UaCwecnI+0Hvu7So4ZGY66DFvGuL1QghogybXphJbAwPaF9cKYDCoig8iswUQmRMUEcs7KWYEfrszAbQquiq9lGXSZjRTJGoNHHHN7gQX5KopLytqYSIsnfjzaPLsSGsdO1/TTdkW48ArB/xuvjq1SNLsUXDWifKRQJou9eP/IVN4WW/kP895GV0qd8YVDJu4MZPK2VAkIt21uUxYvEyyvsgNzJVxKL4cTKKJ6cfAkdfe1FxQ1/3ryQaKHHu73671MoNqnIlTwd5PMg0VbkgUUMrzEqVhnQJEVrpeuK2gaI9EkIkiPSx8ggRfdo3ZhuKhz97TjHT/fPPi/HjD4t0NkPhUxRGRbb/5HxcvKku6KmSz6xxW2Fl6SDWPfjhb0ruK/kRJu/Hs5MPifVAqBrQyh0zSuWQ0OrtM0avg6OdFxJTwvDnZkVOirKZog1NJysJkejoGAwZbFzJZJ0QVTYorxCh0Iope4eIsUYLiNJYKssoZEP5IaxtW0lYkGdjFYU86Eg4pYT56UeGiWIUlKS6/YkjpeLrqX/0UkJVicgqQ4gYO14NvYb6bL923WK0bNlMbyFCbT42fDl8PNuAwhiXbBqttjios2MDzB63XRSPiIm/hJU7FItxSmaKcWKKNqrDWFP2fC/rvh2ZD9UnLMmLTx4LybRtJ31POVpP3xgvKkuJcK9/a16fTPn8y/tsJO/C7CtjYWFrjuurIkThF1UjsUKTdtL6WDfWRODQW+rbFZ+HhQwzTo4Q4oNexKWVyNcM3SMqYGkzik4oaz0i6iuFfdFv1O0td7H/Fd2ho4YKETrGlD2DRaEMypGh0ryqCyeSJ5YEI/WX3keUlw+gc1Nd0HDzlENiZXZlo99Niuyg60cLxpLwlOytjmPxTEtFRcW76Qli0peKJ1Eyem20GidEpItAix6ODeokcklePrzYpEKESt3uHvuuKHVbIC8UlbO2hJ8TC8bQd3NCBuKNR6FMZYVlUV9NJUTsLKxwbNJnoFXfqfLXm0eX4WJ8JMgrpM1on1NTPhc5IrT6/Kx9vxR7RSj0jQTXZ92mQl4kL161nkKtKOSqLKPVPr/soSiJSslRv1zZi4RHAwugYE0AACAASURBVIReD4lZRdjolX3g00WxBgy5wf9sv7X4xUSabdX3B1/aTrkEH/0IU6Wt4peqIqglFopFm44MFz9ANLNL7nMphpREyMi/egoPi2S6hAi9ZFFoCZV/pApGB944g9iLSToXh6stQoSq+JBXRLFwYSYOnfkKV25TeJdCaNAs7rCen6G+hyLUjVZ9PnrhB7Xbq1/nt0DVtciuhW3BobMLkJ2TLBY1HNztI/j7KCqTHDj9BS5c/1vj7WmKNlQbrolChM6hw8stRIgjWeS+GBFaoFx1jUQALXDWckYwXIMd1SpvaQLs1NAeVAmLHry0yCi98NDqy9LEHq3irroml+SdofaoFCiVzE66lSqSXru82Uqs9ExGL1GVIUSMHa8V8XtojBChwhBUIIIsLPoQdh97H9m5itAOqmA3ut+38HBRlHJfvetJ3ItVf9k0xTgxRRtVPdaUw6gohGrf3NPFa93Q84GqL7V5uokILZQqam2aeBAPlUJ4NN0X/Rd0Eqt203igHAuqEpWXUSA2JRGvujYHfV7eZ+OoFX1AifI0M7/vpZMiWV0yWmRw8I9dQd4aWguFxAidLz37yjJVEaaPB4M8DK2faoyrK8LF7w5Vu5OMSiC3eqqRWFuIrKwkcOV+GSpEaF/l9wISEHueO4HsJMU6RvR8H7GkhxAbZKphWfSZqhChRYW3zzoqFkgkoyIc5CWi3zH6zVszvHTpXgqV93f0EN6PEw9u1ejFCvX57QuPCO1D5XurdWiWrhOhl2ppVUlTeEToeF3rN8bP/Z6Gs5WdOHxaXrbwADRyrl+82OL9jCSxUvptLSFPtJ+phAi1pbyau/hRQhGyCxQDNTo9AcO3fKGGanLjbviiu2JBN3LthaXGIi0vS7j8HCxtxGdP7/8Vn3ebKtYX0SepnsTY2uGvoY2Hv9rxEnPS0Xn1O7oumVHfK7uG6YeSqmRJplwGT9/QD9qXZj/G0OJu7UuS4KQ2tVWkonAQWp+D9iUTQsTMDM4BCgFCL0T0ICHTJURoG+V1R8RORUBBtuLBkxadKTwvqlYdhQgl0F64qIjw/O23v/Dtf/+n13Xu0GIG+naaV7xtfkEWktPuwtbGVXgxJKMZ2tU7nygVKiJ9R0JmZJ8FaNRQUV6Z8kLSMh/A2aHEtX3u2l84dEZ7uVxTtKF6wrSqOq2uHhUVjWFDad2GirfyekSoh1TPn+rbN51QMsazE3ORFpUh8jIcvO2KvX4kUKg8tD7WZV4I2j2rKI2pamuH71VLkiXBQ7X6aUVmNSsCdj9/Aj0+aCP6oym8siLGiTHjVR82hm5D1dioKtvFi6F4/LE5eu+uXBWLfmxorNG9T6Jdssu31mHviY81tmmKcWKKNqrDWKN7k15ayWjdC1o9XSYzg1tTJzFZRTPq+145hdF/K3LYylogTzofmu2fsGWg8OyrGq2psfcl9byI8j4b3Ro7YcLWgTC3UpQYp0mx9JgsuAQ6gibfyGiSjvpGa3SVtViq1GfyKNDEg2RSxcuyblQSIhTyREaiiwpVZCXkCO8EvbxLRmVudz1zXK+1RYwRIlQEg/pR/LtTBCTfSRO/izShIpm2NUKUhcjNdZGiahr9ltG7CS0QK9aVebQo07kfrosqYMqm/E6r98CuwRvWCiGizN9UQoTapDyIBb1morNXcPHif/Q5vbzvu3sFbx//G6l5Za/NYEohQsfu3yAEz4QMEN4a5UUJyX3Xb4PmB8f44C54u+PYUslO1BatOk+5LZcSooSHgzwdVNa329p3dYZbWZtbihhGCpHzsnMuvgQVKUSUq1SQy5pc15LRjBOV7aUff1U3p67xKc1eNRrpJ16yJCurNC6tHksvauSyLt4+JQ/nf7khhMgTZxTJ//oIEdrOv7832s5pCudAB9hRm49+pNLuZuDvvqUXnKPtK+IFSxcnfb4/cXIXnJ2dsH79Vrz/nrow1tYGrXhOSbKS50N5u+zcZJy89Csu3lwNuVwh0DQZVcYa0PU90AKJFKYlWVZ2ogj5ojVIdJkp2lA+xpIlP6BL1w4Ghc/o6qOu700hRKRjUCnq7u+3KRbZysemeOaYUwm4sTZCLDqmrzWbGIB2zzWFk79DsZinfTUJEdGmGdDuX80QOMQHFBpFoRsPziXi1vooEZ7xxOmRYhxqij+vqHFi6HjVl40h2333/ecYNKgvou/ex5AhkwzZVSSjt28+HY72pct401g7cOo/YvHQsswU48QUbVT1WKOXS6qyRJ4Peo5IRl4LmtE/8uEFIUYojIc8CvomWNNziO5digCgJHLJtAkRUzwbqQoY5b1Q6Vxlo4VwT30dWjzBRh4bMsp7oLCrsmz8hv6o19ZNrZSvtn0ohKvz6yHw7e6pVraX9slJzsWl32/jytLbQvjpY8YIEaldWh+m85shan0hD8fh9y8gYneJ50i5L8pC5OC8s8iKy8agH7uWaoc8Zcc+vlhq/RF9zqc2blPrhEhFXCQKbWrm5gNfezeEp8WJ8sGaFkOsiGOX1SaV55WqiVHN8qwC7Yta0cqbwS71hYDJlxcgLCUWd1K1l0E25FwoXMzWQrEAGs1Ex9XgOEb60Zfc6DQjQw+RsozctJ4hLiLEJJFWRTVB/hg90KSZKQpboRmUmmIbNi5Fs2aN8eBBLIYNnaz3qs/S+ZEXhEJEyJNBoVXJ6XdFmVG6r/Q1im+n8BI350DEJd0Q8fCGminaoERlqiLm6OiAbVt3Y948zRMFhvatKranWv6uTZyEIKGKNzRjSqsAq8ZOG9I3ml1UnvXNTsgtc40Fapv2oZc8Ecb1qLznMzfGlSoVakgfTLFtVY3Xt96ei5kzp4j1KsaMno47dyIMPh3KvyLxX1RUiISUO0jLoIIm+v+ImWKcmKKNqh5rlJROs9xOfvagCSwqOqLr2aHvxbJ1ty4WOTTeqPJURRl5AsgL4hLkIMYazeBTGKWminW6+kD7zzwxQqwyrxrBoGtf6gfxdPa3h5WTlWBKvzkpERnFCd262jDZ92YQ19W9uYs4NpU21pQPpHw8VSFCXhEK66REeBtnKyTeSEHynXSjuJrsvKpRQ+ERoX1p7rVvUGCIekZ2Neood4UJMIHqT2DGzMl4++1XREdJjBw/fhqJick4c/q8WAW6tlvXrh0RENgQnp7uGDZsAAICFGEbr7zyLvbs5p9YU19/5bV9jFmZ2NT9qcz2qGLWmrV/QCaTISsrGwcOHEFcbDzuRt/HmtWbKrMrVXIsHmtVgl3vg1JYZ7+vFd4TbVXv9G6shm2oSYjUsFOo1O6yEKlU3HwwJlC7CZibm+Ojj+dh1KihYrE1yRb/sQILFmhea6c2EaHV5QcOVMSDkxUWyrF50w68997ntek0K+1cKAldnl/iAVE9cP9vOomYdcpfoeo2FO5Ql2z6jEl49tmn4ObmUnzaoVeuY/Lk2bUeA4+16nuJyRsyedcg0IrtVB2P1sgwwNFWfU9Mz56xENET1KPNWIgYxou3ZgJMQA8C9GLUpEkjeHi4wc3NFdev38KZM7rXddGj6Wq9yaRJoxEQ6I+kxGQkJibh9OnziIkxTQhktT7xCuocxa3TegS3Nt7FvSMPRWgGhWlQ+AgtkCYl0x95/wKurgiroF5U72apSESrVi3g7uEGdzdXpGdkYOsWzSvRV+8zMax3PNYM41XRW1MSN72AUyhZ8ymBIgyJ7NC8s3UuD4KFiGF3GwsRw3jx1kyACTABJlBJBEiIjFvXT/vRiiAWYDv+2SVRepSNCTCBqiHQ/oXmoOpdyqbPOkRV09uKPSoLEcP4shAxjBdvzQSYABNgApVEwNrZSqwbQGs20MKFdl62ogIPFYeg0p7kBXlwuvRCYZXUNT4ME2ACSgRonIbMDEZhvhzxl5Jx73gcwnfdq1MhWRIOxwb2GPZ7d/Hn6YVXEbk3hu+VMgiwEOHbgwkwASbABJgAE2ACTIAJMIFKJ8BCpNKR8wGZABNgAkyACTABJsAEmAATYCHC9wATYAJMgAkwASbABJgAE2AClU6AhUilI+cDMgEmwASYABNgAkyACTABJhAeEdqPFzTk+4AJMAEmwASYABNgAkyACTCBSiUgCZF+QYEhByr1yHwwJsAEmAATYAJMgAkwASbABOosARYidfbS84kzASbABJgAE2ACTIAJMIGqI8BCpOrY85GZABNgAkyACTABJsAEmECdJcBCpM5eej5xJsAEmAATYAJMgAkwASZQdQRYiFQdez4yE2ACTIAJMAEmwASYABOoswRYiNTZS2/8ifs5eiDA0QMpuVm4knjX+IYM2NPV2gEh7g007kF9oL6wMYGaTqBjRw/Y2pojLi4HN2+m1vTT4f4zASbABJgAEyiTAAuRWnyDBDnXQ7f6TYvPsAhFeJiZgvC0WESnJ6KwSG7U2f89dC66eDUCtdd82avIlxca1Y4hO/XxbYHFA5/TuMv0PT/gxINbhjTH2zIBjQSCghzRrVs98d2KFWHi/46Olhg9uqH495499xEfn1Nh9A4eGoqGDR2wbWs05s49VWHHqYqGLSxkCApywK1baQYdvqqviT6dpYmS4QHtxKanYm/jTspDfXbjbZgAE2ACdZ4AC5FafAtMaNQFX/WYrvEMC+SFiEyLxw+Xd2FbxDmDKKwa+go6eQWLfZovfxV5hQUG7W/MxiHufnipzbDiXd2sHdC+XqD4m4WIMUR5H00EJkwMwFdfdRRfBQetE//393fAgYNDxb+nTD6Es2cTKgxebRUis2Y1xtPPNMGpU/F49ZXTBvGr6muiT2dfbz8Kz7caLH4L+6z/EHHZhoktfY7B2zABJsAEaiMBFiK18ao+OidlIZKYk47M/FzUs3OGjbllqbPee/cy3j+5GvF6Pjw/7/4YBvq1QnJuJoZv/sJoz0p50Het3xgrhrzMQqQ8EHlfNQJV/dJbW4XIoX+Gwc/PHps338Vrr9YuIWJvaY2jEz+Fk5UtVt8+jneOr+SRxQSYABNgAnoSYCGiJ6iauJmyEHn3xEqsunUcZjCDl50zmrj6YF770Wju5itOLSo9HoM2flYlosIYtixEjKHG++giwEJEFyHjvq/NQuSZkAF4q8NYyIuKMHjTZ4hIizMOEu/FBJgAE6iDBFiI1OKLrkmIKJ+uhcwcH3SegGlNe4mP3z2xCqtuHasRRFiI1IjLVOM6yUKkYi5ZbRUiVuYW+GfCx6hn64RdURfxwqE/KgYgt8oEmAATqKUEWIjUkgtLno7u3k2QVZCLC/GR4qx0CRHaxsHSBicmfwY7C2s8zEpB/w2fILcwX41KN+8mYltV2x99RcwE6mOWMnO09wxEaw9/4ZXxtHVCdkE+YjKTcCTmBi7ER+jTjNimvEKEjt2xXhCauzWAj72rmMW8nnQfZ+PCkJaXrVc/vOxc0K1+Y7TxDIC9hTVuJsdgY/hpJOVkoLGLNzxsHRGflYY7qaZPXHVv5gynhvbIis9B7IUkmMnM4N7CGT6dPeHe3AWpkRmIORWPhzryGWSWMtRv7w7P1q6w97KFnacNCnIKkRGThegjsYg9n6iRhY2rNbw7uSMvvQD3T8QheKQffLt5Ii0qE2E77iH9XqZoL2h4A7g3d0bitRTcWBOJ/Kyy84ncmjrDs5UrPJo7w8LOAonXUxEfmqy1H3pdKAM2Kq8QMTMDmjZ1BlW/8vGxg1d9WxQVFSEhPgenTyfg6NFY5OVpLxKhGppVv76tSJ7v2NEdKal5uHgxCSeOxyMjQ32Mqp4m9aV9e3e0aOGCZs1dkJdXiOvXUhEamoxr11K0UrG0lKF7D0XC/p3babh/X3NFOuqXlbUMDx9kq1X46t/fG+YWZsXHmD+/A9zdrQWDxYvVC0tcuZyMhw81j7vyXhMDLr/Bm05p3B0Uqko2bvsCXE6IKtUG/Q74O3ri4L3QGuNtNhgC78AEmAATKAeB8IjQ/vS06BcUGHKgHO3wrlVEgGbiJjbqislNusPPwR3vnViFlY+8GvoIEer2R10mYUaz3uIMXvpnMXZEXlA7m91j3kUjl/pqn+ubrD4uuDM+7DwRjla2WkmdiQ3Dm0eXITpD88uv8o7lESLD/NviPz2maRRWsVmpmHt4CagvZVkvn2b4se9stTZiMpMxacdCfN1zOrp7N8XGsNN44+gyk98dvT5ph5bTg/HwfCK2TDmEIb92h39/b7XjXPjlBk59Harx+E3G+aPnR21h5Vg6Z0h54wdnEnDgjTNIj84s1YZvt3oYtaI38tLzcXV5GNo916z4+/T7Wdgy9RBG/NkLLsGOxZ/HnIzH1hmHUVSoLlwt7S3Q88O2aDoxQGNfw7bfwz/vnBPHq0grz0svCZDfF/WAr6+d1i7eu5eJd94+h2PHNIfvKAuRtWsjRXtWVrJS7UVGZuCZp48hPDxd63FcXKzw9YJOIEGgyVatisAnH19Ebq56xTs3N2ucOTtK7PbJJxex9M87Gts4dXokPDxssG5dJP4972ypbUKvjhNliPU1yhuh/BFNVp5rou/xjdlOZmaGvWPfR4CTp6jaR0UzVK1fg5ZYNOBZkby+7s5JrLl1XK/fN2P6w/swASbABGoiARYiNfCq0QOwt28LTG3cHf39QmBuVvKiMu/Ycqy/oyj7qa8QoRdzeqkm++rcFvwauleNytsdx6G+nbP4nGb5mrr6iH/rK0ReazcSL7QeIrwtlxKiRMWuexmJcLa2Q4ibH7rUbyzaoxf5sdu+BiXXl2XGCpFZLfrh3U7jRdOpeVk4cv+68IZQrkxPn+YikZ/KGr94aDH23L2ksQv0cvFr/zmCe1ZBHg7fv4bbKQ8El/4NQnA3PQGOVjYgj0lFCxHyXNw/HofG4/zF/5Nvp8HBxw4BA7xB3g6yrdMOC6+FqnV+vSXav9AchbmFiLuUjNTIdKTfy4K1syU8WrrCp6un2IWOsX7MfmQn5hY3IQkR+iAnORdXl4eL4zad4C+2Ic9HXlo+rq2KgFsTJwQPV6wBs3HiQTXvhqOvHUat6CM8PGQkruIuJKIwXw7PEFc06OklPk++k4a1I/ZBnm9c2ekyb6hHX5bnpbdHj3r4a1lvkIPw2tUUhEekIyoyAzJzMwQGOmDQIB9QCVvyiDz5xBFRQUrVJCFy504afH3tkZ8vx+F/HiIqKgMhIa7o2csL5uZmSEvLx/hxBxARoT5OnJwssW37oGJBRF6UM2cSYGNjjm5dPdGosZM47KVLSZg08SAKVYShKYTIf77sWEpA0bnb2VmAhNi5c+oTDSuWh2n8nPpZnmuizzU3dhvl380n9v6EozE31Jrq6dMMSwe9UPw5lTw/FnNTJLVTkZDKKH1u7PnxfkyACTCByiDAQqQyKJvoGN72rpjcuBsmNeoK+rdktJjf1oizYsYtNDG6+HN9hUhnr0ZYOXSu2O/vm0dFBa2yjAQFCQsyfYUI5aHQy/nqWyeQnJuh1vyIgPb4vs9T4vNFVw/gi7Mby+yDMUKEqtocnvCx8MpEpydg5t6fhGiQrJ1nABYNeA4u1nZCnAzZNF8tnIJC4HaMeRtNXLzFIoqz9v0shJVk5Cn5X/85xZXJKlqI0HHppX/XnONCiEhG4VZj1vQVIVtR+x9g5zPquT8tpwULb8j11RFCTKgahVsN+r6L+PjSols48fnl4k2UhQh5TG5tUDAYsaQn/PooPGfbnzyC6MOx4t+Tdw4ChV2d+fYazn1/rdShBv/cDUFDfSEvkOPgm2dxW2VmPHCwDwb/1A1m5mY4/tklXF58u3j/d955FQEBfmXeK5q+PH36PBYtWq72lbOzFby8FCGI0noXFKpEQoIsOjoT2dma182hMKhRo/2wfFkYwsLUBUJgoCM2be4PBwdLER41ZvR+teNLQoS+iI3NxswZR0CiRLKRo/ywcGFnIUY0eSJou7lzW+DluS3ELj98fw3fflvCm/b78suOGDdeIRhff+00Nm0q7YkwhRBRPbHy5IiU55oYfGMYsMOmkW+ilXtDXE2MxuhtX2nds5FzfTEpNDa4s8glkYxCONeHncLqW8c5wd0A7rwpE2ACtYsAC5Fqfj1p1p28HuT9IC8IeUPIaNaeZvNJfOyLvqJxZk1fIUILH1KIAdk/969h1r5fyqRijBDRB7O0Pgl5F4Zu/rzMXYwRIi+3GYa5bYeLducc+BX7o9VDlpQ9Jq8dWYrN4aVDTqhsMXlDyEgskWhSNeVQt8oQIhf+dxOnvrqi1o9hi3qIcK3shBws7bxNn0ugts2Y1X3h3ckDSbfTsGbInuLvlYXIygG7kfpoZl7yshTJi/BHq00oePTS3v+bTqBQsBvrInFIKYyH8krIG0J27ofrOPPfqxr72efzDmg+NRA5yXn4q+u2Yq/ImrWLERJSEham70nu2LEPb7z+gb6bm2y7V19tiRdfai7a69hhK5JVBKCyEHnr32dB4Vmq9uNPXTFsWAPhLenTZydilXIraPHFI0eHi0UYr4amYPTofWr7k7A6cXIEXF2thUdl8KA9kMtLwuWqmxAxGXwTNkRhl8sGvyhafPmfJdgeeV5n6/Rb3su3OSYEdxHlzynRXbJTsXew+tYx7Iq6pDFHT2fjvAETYAJMoIYSYCFSTS+cn6MHpjTuhgmNupaaRaPEZxIfm8PO6Fw0S18hQh6Ac1O/FCT0EQEVJUQ+7DIJM5v1Fgn3rVa8UeaVMUaIrBv+OsjrQXkgvdZ9oDF51MXaHqcmzwdVFNMkIuZ3m4qpTXqIfbusflejd6eNhz82jFD0vzKEyKpBu5GiYQa+02st0eHF5iBR8HuzjcLjYKhRDknIzEbC6/JHyKbi3ZWFyJK2m5GbpsjdaD2rMbq/10Zt+x7vt0GrpxojfNd97Hn+RHE7fb/siGaTAiAvLMLiNptRoCWZ3a+XF0YsVVR3Uz7fZ597Ej4+6rlLus4z9Mp1rFmzWddmJv9+6FBf/PRzN9EueUTIM6JskhAhr0vnTluRpYEH5X1Q7gjZG2+cwcZH3ij6u3dvLyz5U8Hp/ffP4+8V4RrP4Z13W2P27Cbiu759dyL6bkkOEAsR3Zf9r8Evood3U6PLntNv7qjAjsJTQl4VycjLuin8tCi1Tr/FbEyACTCB2k6AhUg1vMJ2Fla4PG2BWPODjKo40ernJECUw4B0dV1fIUIVrI5P+kw0R+2P376gzKbLI0QoPGqAXytRqYrCy5ytShJ7m7h6g8IYKI660VLFYoXazBghcmLyfCHqKKfjqTK8PgfHf4iGjh4iYX3qrm9LdeHPQS+Awq8eZCaj5zrNM+p0/a5M+0bsVxlC5PfmG0Weh6qRgCAhQbas23ZkxmquSmTtZAn/AT4ix8PB2xbWLlbFTVF+h2sjJ6AI+F+wYqVxMmUhsqjFRlFpiyxkRjB6ftwO2Um5WNpxa/H2Xd9qhbZzmuLesThsm3G4+POxa/uhfgd3xF1KwsYJB/HolhffF9dcMjMD5ZE89mh1851PH0PUger7kkbhT/36eYtwLm9vO3h4WIsQOTKqHNWliyL35rGph0QVKWWThAiFhQ0bWuKBUt6GqnGR14Ns4cKr+OnH68VfT30sCPPntxd/Txh/QFTZ0mRjxzbENws7i6+mTzuME0o5RCxENCIr/jDE3Q+bR84TfysXByl7L+3fUpgnTTiNDeokKu1JNmDjJyKXjo0JMAEmUJsJsBCphldX+UWWZt5/D92PlbeO4l6G5pcKbaegrxBp4dYAW0f9WzRDFbOoclZZZowQIQ/Da+1GYHrTXrDXUAZY9XhN/ppbZrlLQ4UIhUFcm75QiDtK5qekfm22+v/tnQlYVGXbx29xVxBxwQ0FBgVUXNgUF0TclxITXMq0/NK0NDW3NDVTW6xMe618y1czs9xQ3EVTUwEV3A0KFBjcF9xYFXDhu+5nPOMAM8yAoxxm/vf1Xtcbc855zvP8ngHP/9xb74nkZeskEufZc6JpHMLGoWz6BFv00IWiJPKLFiJcRYo9Cdqs2VAFdZqveij9veMukXSuaRblLIi9JiweuGqVPlvWZJPwXLBpCpFlLiHqUCnpnpk3HtDq9jvVQ7ad5kbuY1zpxsk7tGXgAfXnb598lbgUcFHs8LwzFK2jklNRxnkR53Ji9fjxTcnOTpV4X5gNHxZWoHqWJES4qhYf12ZcRSs2TlVwgatfzfz4pPq0KVPd6L2nFcw6+e7SWXq3fXtbWv27qlIeV7zifBPJIEQK37fv/f6P+ji4060HaeS36VOjhFLxCxIWI/y3tXI51YuA7lvmkzIVzRH1/R7hOAiAQOkmACEiw/3jWOJZ3gMowMlb7TFgL8Gxm4m0KSGSQi+cEeFL+sxQIcK5Jyu7vSeG+98/+2nBiWchONruURwhopk3wW/5OLn+auZdupeVKTwgbAEKb+KkdTaX1RPp0RPtScF8vKhChN80Rg1S5Z38GnuQ5h/bpBPfiq5jqLNdc60hYuw5Yg9S1I14emPPEp1jHB/8JdWoZPnChUh2ag6tdN+mdR76hAh7LliEsHHfkYRtl4hL73IeBve+YHMOaCR6hLAtcw5Rh3flESIanxdFiHA1qXfPBwrXB1fCelxIfw3NBXIeiZSwbmdXnypWLJqQ4bEyMjLo5k3jvm3u08eOvv/BR0w1JSWHtm29RPEJaXT7djY9fhoWx/08Jk1qLs55a3i46CuiaZIQ2bPnKr3/3rMQtvwbHHduAHGuR2joFRo3NlJ9eP58D3pjqEL87N56q6iupc1atrShzVu6ikNffvE3LV/+rLcHhIjOX2tRqpdfRnCu3jenttFP0QUrDOq+Ou8RfjnSvWFLGuDURuSOSNUPuRLfzqRT9PmJEEo3sKeRoffEeSAAAiAgNwIQInLbEY35cCnZ3g7uxE2zvOuoHhjZ+B+qPRfPiIorkdfj1Q/y+ZdiqBAZ4tyePm+nasr1aVQwrY7T/iZWGr+oQsS9tiNt7DNJXB4cH0kzjqzROufP2g2h151Vse/GFiL84BD75mKR+7E90e2kIgAAIABJREFU6SRNDPtV585v7jtFNF3kt5H8VlLTpDyTxNSb1GOLKpwtv/EDRdyw78TDyov2iBRXiNTxqEmvbfQXU48LvkAHp58Q4Vf5rdNnHtTsDdWDrbGFCI/5ZkQfERJ2fssl+mvSMZ17ouuAXJLVWRScOt1PlKiNjU2lIYMPam06yFWv/vMfVSWywoQIl9vlMbRZ1arl6O/o/uLQryvjaf78Z2WmORGeE+LZunXdo7W8Lx/r3LkurfilozhvwoQo2rH9WbU9Q4UIr5crWumq3qU59+epmlXkL8ULvEDKEct4mCVCM4sjFFrXchC5Ia84ehKHqkrG1bfWxR+hbcoTxOPDQAAEQMAcCECIlJJddrKuQ4OatKfAxm3IpqKqlCjb1Yy7tEV5XIQbXUzP+4bXUCGyofeH5Gmretjk/BB9eSjvtehBUzxUDc/c/phMDx7lFEpRqkTFno/Wa6bp/EeW6+1z3X0219UTC62xr1lyWFcN//yTOhj4qWj6qM+bcXjgfKpbpbro9v723h/zDPOfTm+LB4jMh1nUeu00rV3luX/IkYEqASNXISIllbP44NCuHB2dul/5zVfdx0MzBMsYHhHmI43POSIhrxW9p6pchEiz5tVp+/ZuYs/fHXWY9u/XnsPy/vuuNHmKmziPe4mEh2v3iHDTwq5ddmv9vbK3t6S/nubLfPH537RixTNvBpflXbjQW1z3xuuHtPYq4WODBjnSlws8xXlBQQfo9KlnvT1YTEXHqITOV19F07KfzxWYBzcr5KaFbOYiRDh86lDgXFHtalnMPvrqpOHFDvjvSX8nbwp08hGhnZKx4GDhwQKEhQgMBEAABMyNAIRIKdvx8hZlqUejVsRejHb1nNUJ7byMk8lKEXIUfUfVF8AQIaKZeGlI6V4el5Mqv/UdLu7ht2mO3tyV+T6D6Q2XjpSSnUme66ZrJc5VZPgfecun+SMt10yhzIe6w89YULCwYNNWZlfbTX7v8YFgxsKpXfAsrW8zuXs8d5Fn4w71nIyqae+36EGTn4owTnjnxPf8xnkwc30GiY/lKkQ4d4TDqDgM61dP7aFdnLQ+NKw3VbBUdV7ncrwPMx+J/zaWEOEKWyyKONl9rf9unQn1un5NHRwaUcVKz5LrDf11Tk/LoGvXbhh6ut7z+r7SkJY87bnCSeZSD5L8F24I9idPz5riY22CRQrN4nK6nf1CteZ4aCakjx59hPbtvaa+jbd3LVq3vrP4+ccfY2nRt9rLIS/53of69lU1mfRpu4Nu3cr7Bp49Lux5ye9xkW6kGdpliBDZvqMbNWtWnf7667roCl8a7SPPAHrXrRvlPH4k/u5xt3R9Zm9Vm+b5DCIu9yuVXudrTt+6QOvjD4sQLPZww0AABEDAXAlAiJTinefKThy2xYKj9tNGWZpVXPQJES4/uaDDUFHBir0V/bZ/Tf/evaKXiIetIwX3VoVaTT/yhwi3KsxGu3WnaZ79xCntg2fTzfspBU6f7tWfRjVXxayzdQieTTe0nCcd5/Cn2GGLRVw135/noc8CFF60yPctcdpnx0No5b/PkqalazVzWYJ2fSseGDSNvVFhQXOJCwpE3ogn9sZo5rJwON3mV6aKhodschUi7mNcqO20FmKOnFTOyeX5rd2MltRqlKrEa/7zjCVEuBrW4L09qVylspSw/TLtmxBV6DZWqV2J7ud7aNa37y/jeOvWNWhTSBdxqw8nHqNt2/I2CeTPuZLW8hWq0EM2bc0ENfuIaBMS3EaI79OqVQ3R8NCvU6joJyKZhUUZ2vNnD1IorCg5OYv8O4dS1tOKZtI5depWpkOHeosck7CwmzTi7fACiP7c25OcnKwoIT6NevX6U3SL17RFi9tQQICq7KwhQuTnn9tTt+71RZngLl125+lb8jL253nvwU1QI4LmiRclXFp35tG1Bg3pb9eclncdI85Nzbkvyq6z9+PcvWfi0aCBcBIIgAAImCgBCBET2Fh+GOeSuOwl2XPxLK2PPyJWpSlE+KGbPR51q1YnBytbcrGpT53tmqk9KoYkqUuo+H67A2aKEIPbD9JpasRqOpGspIdPVG/LudLXE40nF80wqohrcTQxbJW6/wZ7eKZ49KORzbuIcCepotbA0EV0Kjmp0N1Z2HEYvebURgiBucc2iopfPAYb35/noWk87z39Z5JjNVtxDVfO2qY8KUQYH+O3nVLImbawLGmsmd4DiMPN2A5e+YeWnA2l8ynXydWmPk316CfyS9i4+o1chUi9NrUoYJ3qzfmViJu0b8IxdXd1i/IW1HaqG7Ua6Sw8IFJFrS1BB+jG0xAeYwkRvr/n+GbkPVHVCfzCvmsU8emZPBW+WKTw/ZoPcyIbJyv6wy9Udr+1HM4UdewVkSNy/fp9+r8REWqvCIsHfmj/7HNP8QDOnga2bxfG0NKlcXnWoilE+NyZH5+i4OAkIQRYOMyb7y7CqtgWLIim/y0rGDalWZqXc0046f3uXZV3sVEjS/plZQfiLu9s+cOypMlMn96CRr3rIn7k8sDcnZ3nwxW7OA9l9GgX9ZwMESJjxzalSZNVuSucGM/hXnfu6C+4IZeNHtOiu/jd5r8rnDdmaFldFiL8d4W7p4dePGOUCltyYYJ5gAAIgIAxCECIGIOijMbg8rRSFSpNIaJrilyi9uMja0Q+RFGsi50b/dRllLrSi+a1845tpFWxh/IMx6FcHNLFxqFR3KyLH/6dbeoTixEOc+AE8jU9Vf1DZkeupzXnIgqdUgPLGrTtlWnETQjzG3c65o7H+Y2rbS31H6muRsY9Wji3hvuXSGUzOe/mnf0/6Wwoxl4PXk8ve1WPDk1j9mMPrqDZ3oGiT0pIYhRNjdBdKrgozDXP9Z3nTs3fdKLiJqvzWF0WtSHn/qq32twBnbun8xv1Gi7ViMXI/eQs2jcxivqtUXU+D5t9iv592iDPmEKkbMWyxEnxLoEqASe+I3eyKe1iBlWtW5ks61VRNxXhEsRciliOppl38fhxLiUmplNaWg65ulqTpWV54s9GjjxMX3zhIfqL7NxxmcaPz+sBkoTI3j+vkaPCkho3riYqX126lEHOztZCCLBFHr1Fo0Yd1trwkPuYcOgVN09kYxGTmJBGFSuWpYaNnv2usCDgilnarG7dynTgYG/1/bix4vXrD8jeviqVK2dBU6cep1GjXMjZuZpBHhEWaPv296Q6dZ4lZ+fkPKFHT6uJTZ9+UvCQo1UsW57CAueKHh8sJsYdXGHwNDX/Hht8EU4EARAAATMiIAmRLgpHt/1mtG6zWGp+IcIPydxVnCs+KVNviv/nB+XCcjEKA8XVX2a3DaSmNg2I/7GWTJsQ4Yf3ca160cjmXYXwkIy9FvsvR9OcyA1CjEgJ5Yb0M+ExODGcY7Db1mlMHD4hmS4hwsc5FG2h73BqU8cpT44Nz2XfpWhR1YvDKAozfsAY3aKbyNfhPiwPnzwWOTrMk5NPuVQwP7joKxVc3C+iMYQIexo8P2gqPB8sPCTLfZwrPBPhc04LMTL0UG+yaliVEnddob3jVGF4xhQi0n3t/etR+9mtyNrhWTEG9fck+zFdi7pNccFJlLhTf/hgcbk+73UDAu1pxoyWxJWnNO3ff1Jo1qxTdPbsXfrqay8KCnKg27ezqJ3PzjxhSpIQ+ebrGAoJuUC/rvIlFxdr9VD84B4ScpFmzzqtfojXNedhw5yI+4qwCNI0vu8ns08TlwguzNw9atLSpe3I1raS+jTOJfnvf+No1a8JtHJlR+rkV9cgIcIDMJOxY13FNSzEOOFdMm1has+7F8a6nvPbOM+Nrf+Ob9Q5eMYaH+OAAAiAgDkTgEfEnHffSGtnz4aqI7CqezSXtNTV54ST0htb16OGVjUpNfs+xdy5ZFDSpyFTrVnJSpTnZct+nEMp2YWLCW446FqjPjWoWoOUacmUkHKjWKETLMJYxEi5IjwHLhXMyakcMvZbPu+QIWt5medwUjp3T6/WsKrwsNyKuScESEkZJ8fbOFcTgoR7i6RfzqS751LV3dtLal6G3rdSpbLk1NhKhD89zHkiPCMJCfoTm7WNz2Fdrd1rUqOGVenKlUyKiUmh7Gzd/XXyj8HX2zWsSk2bVqec7McUG5dKN7XkA+laG3tgmjhXIwcHK4qLTRFrMZaxl4TnJ35fs595R4w1vjHG4b9t+16bTZyPd+T6ORr25w/GGBZjgAAIgAAIPCUAIYKvAggYmQDn3+zqN0OMOnL/T3TgivbKRUa+LYYDARAwMgFusLrEb4QY1dAy4UaeAoYDARAAAZMmACFi0tuLxb0IApxLwqFYujq/S0n0d7LSyT9kbrFD317E3DEmCICA4QSGN/UTFfDScu7T1ye1l7k2fDScCQIgAAIgkJ8AhAi+EyBQRALcKf7Hzu/QFuUxCrsaS0lpt8SDClfjGtGsMw1wUnXO/iRyA/1xrmBp1CLeDqeDAAiAAAiAAAiAgEkSgBAxyW3Fol4kARYiG/uo+qhoMy4KsDo2TPQqyV9C+EXOC2ODAAiAAAiAAAiAQGkiACFSmnYLc5UFAesKVeh1lw7kbeskyg/XqWItQrWkSmRcdvjYzQRZzBWTAAEQAAEQAAEQAAG5EoAQkevOYF4gAAIgAAIgAAIgAAIgYMIEIERMeHOxNBAAARAAARAAARAAARCQKwEIEbnuDOYFAiAAAiAAAiAAAiAAAiZMAELEhDcXSwMBEAABEAABEAABEAABuRKAEJHrzmBeIAACIAACIAACIAACIGDCBJRJMf5liMhf4ej2lwmvE0sDARAAARAAARAAARAAARCQEQEIERltBqYCAiAAAiAAAiAAAiAAAuZCAELEXHYa6wQBEAABEAABEAABEAABGRGAEJHRZpjqVCzKlKEO9Vy0Lu9i+m26lH7bVJeOdYEACIAACIAACIAACOggYLZCxK9BM7KzrEn3H2XT5sRjefDwQ7NDNdsCyLIfP6SrmXfpSvodupZ5jx7nPimVX6xGVrXoblYGZTzMeinzr1S2PP3z5iKt9/rh7G5afGbnS5kHbgICIAACIAACIAACICAfAmYpRKpXrELhQfOoSrmK9FvsIZp7bGOeHVns+xb1U3gVuks37qfQkjOhtDEhstQIEodqteljrwHkb9ecum+ZTxfSbr2Ub2J5i7L0Q+d31PcqQ2Woa0M38TOEyEvZAtwEBEAABEAABEAABGRHwCyFyLhWvejD1n2FgPAPmUtXM+7qFCJXMu7S49zH4ji/2betYk38IC1ZxLU4envvUsqlXNltbv4JvebUhhZ2HCY+7hIyjy6mvxwhkn8ezC/hrSUQIrL/xmCCIAACIAACIAACIPDiCJidEKlcrgKFB80lm4qWtEV5nCaH/1aArqZHpEPwbGLvh2QsRl5x9KTpXgFiDDb2qLBnRe4GISL3HcL8QAAEQAAEQAAEQMB8CJidEBne1I/mtAkSHoy+2xbQuXvXiiREpJM71nelVd3Hih9v3k+l9sGzZP+tgRCR/RZhgiAAAiAAAiAAAiBgNgRKtRBh70RvB3cKvxZLtx+k6920smUs6MCAOdTAsgYduPIPjdz/k9ZrCvOIaF6wq98McrGpLz5yXzuN0nIeaB2vduVq5GWroKY17Kh+VRtKSkum2LtX6URyos5rpIF4jb4Nmoofj14/LxLMeR297FuTe20HqlnJSnhszt6+SHsv/Z0nX8XeqjY529RTz6ldXWd6q6mf+PmTyA2U/CA1z3zvP8ymw9fPaV0D53l41HaklrXsqU4Va+I1PXj0kK5l3qXwa3F0+laSXv7SCUUNzerUoBmlZmeKNcJAAARAAARAAARAAARMg0CpFCKuNg1osHN76q/wpmoVKovEa2Vqst4d4fO/9R0uzhuy+zs6fjPxuYTIj53fEYKA7bWdC+lvLQ/Kve1b04IOQ8myfKUC92JPyoSwlTrnwRewcOHEeraBoYuEBye49yS1ANIcdEfSSZoQ9qv6o1FuXWm6Z3+9XKQTOGeEc0fyG3tS2ItkVaGyzrGY5dSI1XQ5447e+xVViEz36k+jmneluHtXaf35IyKkTpfo03tznAACIAACIAACIAACICALApIQ6axwdDsgixnpmARXuHrV0VMIkFa17NVnPcnNpa6b5+ntRcEPv7sCZpBz9Xp0KjlJPNTrMkM9Iut6TSTvOk5iGL9Nc4gT2zXt/5r500zvAeKj1Jz7FH41VnhDmtZoQB3rNxXJ75wwP+7gL/TnpbNap6MpRMYc+J8QXyx+Mh9m0fmU63QnK4O4GpaiWh2KuB5HI/YuVY/D1bFedXxW/auRVU1yr+0oju+7HE2ZD7Pz3PN2Vhp9cXxzgXlMcn+FxrbsSVy+mL0SXG3rSsYdsq5YhdxqNKS2dZuIa7ikcf8d39CdrMK9U0UVIpM9XqX3W/RQzyvr8UMKvXCa1p0/IrxKMBAAARAAARAAARAAgdJHQPZCpEXNRjTEub0QIVU1vAr89n5TQhSFJB6j65n39JLnh/LlXceI80b/tUw8iD+PEKlV2UqEebFAuv8oh1r+MSVP5Sz21IQFzhVehMvpt2n43h/ziCUOq1re9T3iUsIsTnpu+VxrGWBNIRJz57IQMT/+vUeUvdXsY8ICq7Ndc1oWs0/nuoqbIzLUxZesKlSi9eeP0r3sjALj93XwoCV+I8Tny//5i748UVDMaF5UVCHC57et25iCGvsIEcYFByRLSL0hvCT8PUjJztT7PcAJIAACIAACIAACIAAC8iAgSyHCD+/9HL2EAGlWw05Nir0Auy6cEb07ivomfH3vieRl60TxKdep99YvCy23q88jUr1iVfqu09vkW99VzI29Ge8dWJ5nR8e36k0TWvcRn73718+0/3JMgR3X9JhMCl9FW5UnCpyjKUT44IKTW+h/MfuL9e0prhAx5GaSd4j59tr6RaGXFFWIaA5WtXxF6uPgToFOPmpvFB/PefxI7MO6+CMUeT2+VJRTNoQrzgEBEAABEAABEAABUyUgKyHiYetIQ5p0EA+a0ltvrm4VdSNBiI/dF8/Qg0c5Rd4LT1sFbej9obhuasTvFJIYVegYmkLk55i9lJ6j6kDOoVSO1rbUoZ6r8GSw8Vv43lu/oOQHaXnG3Nhnskgm5zwQ342faPV2sKCJGvQ5lbMoK7q7T4lYXagQ4Xv4b/qUODSpOPYihcictgNpuGsn0am+xR9TXpgQ0RyYk/EDG7clXhcLNsnYW8bem02JkQYVMSgOS1wDAiAAAiAAAiAAAiDwfASUSTGduTtfieeI+DVoRr90e0+9Gk565tCrzYlRBXIvirrkZV1Gi07eHMLVOWQuPXqialCoywzprM7Xcr7EvKiNdOb2hQJDHR30OdlWrkZhV/+lEfv+q/NeHN7VyKqWSFjnBPr8pukR2aY8QR+Gryrq8tXnP68Q4XCzrg1biIf+elVtyLqCSoyxcXWuxtZ1hSei8arxhc7xeTwi2ga2KFOGuCJYYGMf6mnfSghGtpv3U6h98Oxi88KFIAACIAACIAACIAACL46AbISIZg7H3awMWnxmJ3EVqOetjtSkej0KDZghuqF/djyEVv6rPydfU4hwpaaHT4ULh/9wQjonap+9fUFruBVvVYWy5ejfNxeJe7KYmnb4d507KIWMcaI3e04KEyKcG7Lo9I5ifxuKK0TYYzPJvS+96eKbJ09H10Scf5ug1QMknW9sISKNy6WUuTzx4CbtxUe3HqSRz4aZxeaFC0EABEAABEAABEAABF4cAdkIEe7t8bHXa9StYQsRqsTGVZo4qXxjQhQdvhZX6MOtLkQLOw4ToTscQsUP+pxYrs/05Yjou54T2aMGqfIkfo09SPOPbdJ5yYquY0SSua6QJk2PyJzIDfT7uXB9t9d5vLhC5NO2A2mYaycxLlfM2p50gq5m3qV7WZnqXIwAhTdx0jqby+qJhXqdjClEuLt9P4UnBTq1peY1G6rXziFxf5wLF4n9MBAAARAAARAAARAAAfkRkI0QkdBwgz6O++e32lyWVjJ+sNyqPE6bEqMoIeWGQST5If5g4KeiAeD3Z0PpuzO7DLrueYUIhwrFvrlYCKrtSSdpokZvj/wT2Nx3imgSyH1QuB9KftMUIrMj19OacxEGrUHbScURIlzud2OfSWK44PhImnFkjdZE8M/aDaHXnTu8FCHCXDs3aE5BjdsSe9Ik4cpVxMKuxtK684dFw0rNqmLFhoYLQQAEQAAEQAAEQAAEXggB2QkRaZVSydYhzh2oZ6NWItxJMm4cyOVa+c18SvZ9nWA+aRMkQnU4wd134xytpWe1Xfy8QoTHZAHU0LImRd2Ipzf2LNE5x8MD51PdKtVFd/K39/4oOyEiVfbi3I/Wa6aJzu7abFX3sdTxaRUx19UT1eFsuhYeP3wJsWBbGv0nfXtqu0Ffbq6gxiKVK6rVqGSpvobD2jbEH6Xg+KOiyzwMBEAABEAABEAABEBA/gQkIeKncHQ7KNfpcnUpfps/pEl7aly9rnqanLux/3I0zTy6toAg4ZCd8KC5ovrWb7GHaO6xjQYvzxhC5PceH1C7es5CBLULnkXpOQ8K3J/XsidAlcOw9vxhmnV03QsVIt0atqSfu4wS9wjY8TVxXxJ9Nt9nML3h0lGEtnmum671dK4gdihwrrp7fMs1Uwo0S8x/IXeLZ2/P+vgj9PGRtYVOg0PXpnq8Sq42DdTnsbeD956bGoZfiyVubAkDARAAARAAARAAARAoPQRKhRDRxMmleLm/SB8HD3V1JA5p4tAmTeMeHtzLgx9Y/UPm0tV8Xc8L2yJjCJEAhRct8n1L3EZXkrxm7kXQrm/p9K2C1beMGZrFHoXtr34k5mRIGWM+b7Rbd5rm2U9cwxWouBJVfpvu1Z9GNe+q/rhD8Gy9nok1PceLjuxcarfb5vmFCgnN8S+l3xbihYsAcDI6DARAAARAAARAAARAoHQSKHVCRMLMTQ/7K7xFLsn4sF/yCJEq5SpQeNB80etji/I4TQ7/rUi7Ywwhwnkpe/rPJMdqtiJxmytnbVOeFPkVfOxdt240xeNVMS9dYVl8zJhChLkcHvgZcRleLo88NWI1nbl1odAwqjZ1GtPaXhPEPCOuxdHEsFXqELfyFmVpikc/Gtm8C3GzSanz/cDQRXQqOalQ5twl/asOQ8U5nFT+3+i9dPupsGDfhmaJ5cker5K9VS3h/Th6/TyaFRbp24yTQQAEQAAEQAAEQECeBEqtENHEyfkk/IAv2Yhm/jTLe4D4rM/WL+l8yvUi0TeGEOEb+tRtQkv9R6r7bXApYvYAcL8NqWEje2re2f+T6PiuzYwpRHh8zW7u/DMzevBI1SDxcvpt6rPtywLT+NZ3uBB9bBxqxnNlMeVsU59YjHCjRU7IZy8HmyFJ9Xx9cJ9J1KqWfYH73clKpzbrP1Z/nn9/i7SZOBkEQAAEQAAEQAAEQECWBExCiGiS5QpKBwfMEQ33uHLSyP0/FRm8sYQI35iFxELf4dSmjpPoKyIZh4ztuxQtqlCl5uhOuDe2EOH7d7Fzo1FuXYW3hksNS/PisCcOY8tv3CBwXKteNLJ5VyE8NNfAeRpcVpjFiJSgv+vCafrg0C96uVcsW17kfnCYXZ0q1urz8wsRvQPhBBAAARAAARAAARAAgVJHQJkU48dPx7JOVi8K1QFObembjm+KSwaHfkcnkhOLcvkLO7dKuYrkWqM+Nahag5RpyaIEMfdJKWljYSFVJMvNzS20zwqHujW2rkcNrWpSavZ9irlzSQgQYxiHi1UuV1EMlZv7xGjjGmNuGAMEQAAEQAAEQAAEQMD4BExKiPCb/d0BH4vKWieTlTQodLHxiWFEEAABEAABEAABEAABEACB5yZgUkLEzrIGjWnRQ0DZknhcNt6Q594lDAACIAACIAACIAACIAACJkZAmRTTiUOzOikc3Q6Z2NqwHBAAARAAARAAARAAARAAAZkSgBCR6cZgWiAAAiAAAiAAAiAAAiBgygQgREx5d7E2EAABEAABEAABEAABEJApAQgRmW4MpgUCIAACIAACIAACIAACpkxAEiK+Cke3MFNeKNYGAiAAAiAAAiAAAiAAAiAgHwIQIvLZC8wEBEAABEAABEAABEAABMyGgDIpxperZsEjYjZbjoWCAAiAAAiAAAiAAAiAQMkTgBAp+T3ADEAABEAABEAABEAABEDA7AhAiJjdlmPBIAACIAACIAACIAACIFDyBCBESn4PMAMQAAEQAAEQAAEQAAEQMDsCkhDpqHB0Cze71WPBIAACIAACIAACIAACIAACJUIAQqREsOOmIAACIAACIAACIAACIGDeBCBEzHv/sXoQAAEQAAEQAAEQAAEQKBECyqSYjly+F6FZJYIfNwUBEAABEAABEAABEAAB8yQAIWKe+45VgwAIgAAIgAAIgAAIgECJEpCESAeFo1tEic4ENwcBEAABEAABEAABEAABEDAbAhAiZrPVWCgIgAAIgAAIgAAIgAAIyIeAMimmA+eIwCMinz3BTEAABEAABEAABEAABEDA5AlAiJj8FmOBIAACIAACIAACIAACICA/AhAi8tsTzAgEQAAEQAAEQAAEQAAETJ6AJETaKxzdDpv8arFAEAABEAABEAABEAABEAABWRCAEJHFNmASIAACIAACIAACIAACIGBeBJRJMe05WR0eEfPad6wWBEAABEAABEAABEAABEqUAIRIieLHzUEABEAABEAABEAABEDAPAlAiJjnvmPVIAACIAACIAACIAACIFCiBCQh0k7h6HakRGeCm4MACIAACIAACIAACIAACJgNAWVSTDvOEYEQMZstx0JBAARAAARAAARAAARAoOQJQIiU/B5gBiAAAiAAAiAAAiAAAiBgdgQgRMxuy7FgEAABEAABEAABEAABECh5AsqkGB8OzfJROLodLfnpYAYgAAIgAAIgAAIgAAIgAALmQABCxBx2GWsEARAAARAAARAAARAAAZkRkIR9HXkJAAAC6klEQVRIW4WjW6TM5obpgAAIgAAIgAAIgAAIgAAImCgBCBET3VgsCwRAAARAAARAAARAAATkTECZFNOWc0TgEZHzLmFuIAACIAACIAACIAACIGBiBCQh0kbh6BZlYmvDckAABEAABEAABEAABEAABGRKAEJEphuDaYEACIAACIAACIAACICAKROAEDHl3cXaQAAEQAAEQAAEQAAEQECmBJRJMW04RwShWTLdIEwLBEAABEAABEAABEAABEyRgCREvBWObsdMcYFYEwiAAAiAAAiAAAiAAAiAgPwIQIjIb08wIxAAARAAARAAARAAARAweQLKpBhvDs2CR8TktxoLBAEQAAEQAAEQAAEQAAH5EJCEiFdjp5bHnzx5Ip+ZYSYgAAIgAAIgAAIgAAIgAAImScDCwoISEv8WHhEvDw/f4yn37pnkQrEoEAABEAABEAABEAABEAAB+RCobmNDp06Fq4RI336vH4+NjpbP7DATEAABEAABEAABEAABEAABkyTQtEUL2rltrZcQIu9/OPP47i1bTXKhWBQIgAAIgAAIgAAIgAAIgIB8CPTqH0BLF38uhIjngu+Xn9iwchUhPEs+G4SZgAAIgAAIgAAIgAAIgICpEeCwrMEj3qKPPhipEiJffb/8xEVlEsErYmpbjfWAAAiAAAiAAAiAAAiAgHwIsDfEXuGYV4jkEtGpo1F04uhR+cwUMwEBEAABEAABEAABEAABEDAJAl7t2pFnu7ZEZYg+GjfSkz0iHl/9sPwk5RL/D2LEJLYZiwABEAABEAABEAABEAAB+RDQFCGsRD4a944HCxH3r35YfkoSIpSbS5eUFygyLAw5I/LZO8wEBEAABEAABEAABEAABEodAc4J8fHrRI0UjuwIEd6QfEJkxSnhD3nqFWExwsaC5IJSSTeuXKG01FRC08NSt/eYMAiAAAiAAAiAAAiAAAi8NALcrLCatTXVtbMjB4WCGikciMqUySNCWItMG/eOx/8DKkBJZFUxFO0AAAAASUVORK5CYII=;sketch=1;" parent="1" vertex="1">
          <mxGeometry x="-330" y="144.89" width="340" height="110.22" as="geometry" />
        </mxCell>
        <mxCell id="QFdLaQrW43IuTwmzVqsT-28" style="edgeStyle=orthogonalEdgeStyle;rounded=0;orthogonalLoop=1;jettySize=auto;html=1;entryX=0;entryY=0.5;entryDx=0;entryDy=0;curved=1;sketch=1;" parent="1" source="QFdLaQrW43IuTwmzVqsT-25" target="QFdLaQrW43IuTwmzVqsT-7" edge="1">
          <mxGeometry relative="1" as="geometry" />
        </mxCell>
        <mxCell id="QFdLaQrW43IuTwmzVqsT-25" value="ipc center" style="pointerEvents=1;shadow=0;dashed=0;html=1;strokeColor=none;fillColor=#434445;aspect=fixed;labelPosition=center;verticalLabelPosition=bottom;verticalAlign=top;align=center;outlineConnect=0;shape=mxgraph.vvd.cpu;sketch=0;" parent="1" vertex="1">
          <mxGeometry x="-340" y="347.5" width="65" height="65" as="geometry" />
        </mxCell>
      </root>
    </mxGraphModel>
  </diagram>
  <diagram id="aFkQ9Ogqz9pac8ClJh_f" name="第 3 页">
    <mxGraphModel dx="1986" dy="687" grid="0" gridSize="10" guides="1" tooltips="1" connect="1" arrows="1" fold="1" page="0" pageScale="1" pageWidth="1169" pageHeight="827" math="0" shadow="1">
      <root>
        <mxCell id="0" />
        <mxCell id="1" parent="0" />
        <mxCell id="9pyQvYcp3gdVm6sKwQHQ-2" style="edgeStyle=orthogonalEdgeStyle;rounded=1;orthogonalLoop=1;jettySize=auto;html=1;exitX=1;exitY=0.5;exitDx=0;exitDy=0;curved=1;sketch=1;" parent="1" source="9ww5LgjJ48JTmi9PZZNC-1" target="9pyQvYcp3gdVm6sKwQHQ-1" edge="1">
          <mxGeometry relative="1" as="geometry" />
        </mxCell>
        <mxCell id="9pyQvYcp3gdVm6sKwQHQ-3" value="IPC" style="edgeLabel;html=1;align=center;verticalAlign=bottom;resizable=0;points=[];sketch=1;rounded=1;fontStyle=1;fontColor=#FF38A2;" parent="9pyQvYcp3gdVm6sKwQHQ-2" vertex="1" connectable="0">
          <mxGeometry x="-0.1708" y="1" relative="1" as="geometry">
            <mxPoint as="offset" />
          </mxGeometry>
        </mxCell>
        <mxCell id="9ww5LgjJ48JTmi9PZZNC-1" value="renderer process" style="shape=image;html=1;verticalAlign=top;verticalLabelPosition=bottom;labelBackgroundColor=#ffffff;imageAspect=0;aspect=fixed;image=https://cdn1.iconfinder.com/data/icons/ionicons-fill-vol-2/512/logo-react-128.png;sketch=1;rounded=1;" parent="1" vertex="1">
          <mxGeometry x="-700" y="200" width="68" height="68" as="geometry" />
        </mxCell>
        <mxCell id="gGTcPk_35DTFvmGAnGa5-1" value="/dialog" style="dashed=0;outlineConnect=0;html=1;align=center;labelPosition=center;verticalLabelPosition=bottom;verticalAlign=top;shape=mxgraph.webicons.html5;gradientColor=#DFDEDE;sketch=1;rounded=1;" parent="1" vertex="1">
          <mxGeometry x="-110" y="109" width="40" height="40" as="geometry" />
        </mxCell>
        <mxCell id="gGTcPk_35DTFvmGAnGa5-2" value="/toast" style="dashed=0;outlineConnect=0;html=1;align=center;labelPosition=center;verticalLabelPosition=bottom;verticalAlign=top;shape=mxgraph.webicons.html5;gradientColor=#DFDEDE;sketch=1;rounded=1;" parent="1" vertex="1">
          <mxGeometry x="-110" y="213" width="40" height="40" as="geometry" />
        </mxCell>
        <mxCell id="gGTcPk_35DTFvmGAnGa5-3" value="/about" style="dashed=0;outlineConnect=0;html=1;align=center;labelPosition=center;verticalLabelPosition=bottom;verticalAlign=top;shape=mxgraph.webicons.html5;gradientColor=#DFDEDE;sketch=1;rounded=1;" parent="1" vertex="1">
          <mxGeometry x="-110" y="319" width="40" height="40" as="geometry" />
        </mxCell>
        <mxCell id="9pyQvYcp3gdVm6sKwQHQ-5" style="edgeStyle=orthogonalEdgeStyle;rounded=1;orthogonalLoop=1;jettySize=auto;html=1;entryX=0;entryY=0.5;entryDx=0;entryDy=0;entryPerimeter=0;curved=1;sketch=1;" parent="1" source="9pyQvYcp3gdVm6sKwQHQ-1" target="9pyQvYcp3gdVm6sKwQHQ-4" edge="1">
          <mxGeometry relative="1" as="geometry" />
        </mxCell>
        <mxCell id="9pyQvYcp3gdVm6sKwQHQ-10" value="reactRouterPath" style="edgeLabel;html=1;align=center;verticalAlign=bottom;resizable=0;points=[];sketch=1;rounded=1;" parent="9pyQvYcp3gdVm6sKwQHQ-5" vertex="1" connectable="0">
          <mxGeometry x="0.0229" relative="1" as="geometry">
            <mxPoint as="offset" />
          </mxGeometry>
        </mxCell>
        <mxCell id="9pyQvYcp3gdVm6sKwQHQ-1" value="BrowserWindow" style="html=1;verticalLabelPosition=bottom;align=center;labelBackgroundColor=#ffffff;verticalAlign=top;strokeWidth=2;strokeColor=#000000;shadow=0;dashed=0;shape=mxgraph.ios7.icons.window;sketch=1;rounded=1;" parent="1" vertex="1">
          <mxGeometry x="-540" y="179" width="90" height="110" as="geometry" />
        </mxCell>
        <mxCell id="9pyQvYcp3gdVm6sKwQHQ-16" style="edgeStyle=orthogonalEdgeStyle;rounded=1;orthogonalLoop=1;jettySize=auto;html=1;curved=1;sketch=1;" parent="1" source="9pyQvYcp3gdVm6sKwQHQ-4" target="gGTcPk_35DTFvmGAnGa5-2" edge="1">
          <mxGeometry relative="1" as="geometry" />
        </mxCell>
        <mxCell id="9pyQvYcp3gdVm6sKwQHQ-18" style="edgeStyle=orthogonalEdgeStyle;curved=1;rounded=1;orthogonalLoop=1;jettySize=auto;html=1;sketch=1;" parent="1" source="9pyQvYcp3gdVm6sKwQHQ-4" target="gGTcPk_35DTFvmGAnGa5-1" edge="1">
          <mxGeometry relative="1" as="geometry">
            <Array as="points">
              <mxPoint x="-210" y="234" />
              <mxPoint x="-210" y="129" />
            </Array>
          </mxGeometry>
        </mxCell>
        <mxCell id="9pyQvYcp3gdVm6sKwQHQ-19" style="edgeStyle=orthogonalEdgeStyle;curved=1;rounded=1;orthogonalLoop=1;jettySize=auto;html=1;sketch=1;" parent="1" source="9pyQvYcp3gdVm6sKwQHQ-4" target="gGTcPk_35DTFvmGAnGa5-3" edge="1">
          <mxGeometry relative="1" as="geometry">
            <Array as="points">
              <mxPoint x="-210" y="234" />
              <mxPoint x="-210" y="339" />
            </Array>
          </mxGeometry>
        </mxCell>
        <mxCell id="9pyQvYcp3gdVm6sKwQHQ-4" value="LoadURL" style="html=1;verticalLabelPosition=bottom;align=center;labelBackgroundColor=#ffffff;verticalAlign=top;strokeWidth=2;strokeColor=#000000;shadow=0;dashed=0;shape=mxgraph.ios7.icons.window;sketch=1;rounded=1;" parent="1" vertex="1">
          <mxGeometry x="-310" y="179" width="90" height="110" as="geometry" />
        </mxCell>
        <mxCell id="9pyQvYcp3gdVm6sKwQHQ-7" style="edgeStyle=orthogonalEdgeStyle;rounded=1;orthogonalLoop=1;jettySize=auto;html=1;entryX=0.005;entryY=0.192;entryDx=0;entryDy=0;entryPerimeter=0;curved=1;sketch=1;" parent="1" target="9pyQvYcp3gdVm6sKwQHQ-4" edge="1">
          <mxGeometry relative="1" as="geometry">
            <mxPoint x="-450" y="200" as="sourcePoint" />
            <mxPoint x="-350" y="200" as="targetPoint" />
          </mxGeometry>
        </mxCell>
        <mxCell id="9pyQvYcp3gdVm6sKwQHQ-9" value="indexPath" style="edgeLabel;html=1;align=center;verticalAlign=bottom;resizable=0;points=[];sketch=1;rounded=1;" parent="9pyQvYcp3gdVm6sKwQHQ-7" vertex="1" connectable="0">
          <mxGeometry x="-0.2343" y="-1" relative="1" as="geometry">
            <mxPoint as="offset" />
          </mxGeometry>
        </mxCell>
        <mxCell id="9pyQvYcp3gdVm6sKwQHQ-13" style="edgeStyle=orthogonalEdgeStyle;rounded=1;orthogonalLoop=1;jettySize=auto;html=1;entryX=-0.035;entryY=0.808;entryDx=0;entryDy=0;entryPerimeter=0;curved=1;sketch=1;" parent="1" target="9pyQvYcp3gdVm6sKwQHQ-4" edge="1">
          <mxGeometry relative="1" as="geometry">
            <mxPoint x="-450" y="268" as="sourcePoint" />
            <mxPoint x="-290" y="268" as="targetPoint" />
          </mxGeometry>
        </mxCell>
        <mxCell id="9pyQvYcp3gdVm6sKwQHQ-14" value="reactRouterParams" style="edgeLabel;html=1;align=center;verticalAlign=bottom;resizable=0;points=[];sketch=1;rounded=1;" parent="9pyQvYcp3gdVm6sKwQHQ-13" vertex="1" connectable="0">
          <mxGeometry x="0.0229" relative="1" as="geometry">
            <mxPoint as="offset" />
          </mxGeometry>
        </mxCell>
      </root>
    </mxGraphModel>
  </diagram>
  <diagram id="oK4eYdAPbMo5HH7K4UXk" name="第 4 页">
    <mxGraphModel dx="1586" dy="1087" grid="0" gridSize="10" guides="1" tooltips="1" connect="1" arrows="1" fold="1" page="0" pageScale="1" pageWidth="1169" pageHeight="827" math="0" shadow="1">
      <root>
        <mxCell id="0" />
        <mxCell id="1" parent="0" />
        <mxCell id="12fQmjYq8aK6i10ER9Vp-36" value="Protocol" style="edgeStyle=orthogonalEdgeStyle;orthogonalLoop=1;jettySize=auto;html=1;sketch=1;curved=1;" parent="1" source="12fQmjYq8aK6i10ER9Vp-1" edge="1">
          <mxGeometry relative="1" as="geometry">
            <mxPoint x="-103" y="40" as="targetPoint" />
          </mxGeometry>
        </mxCell>
        <mxCell id="12fQmjYq8aK6i10ER9Vp-1" value="stomp websocket" style="rounded=1;whiteSpace=wrap;html=1;sketch=1;fillColor=#d5e8d4;strokeColor=#82b366;" parent="1" vertex="1">
          <mxGeometry x="-163" y="-60" width="120" height="40" as="geometry" />
        </mxCell>
        <mxCell id="12fQmjYq8aK6i10ER9Vp-38" style="edgeStyle=orthogonalEdgeStyle;orthogonalLoop=1;jettySize=auto;html=1;sketch=1;curved=1;" parent="1" source="12fQmjYq8aK6i10ER9Vp-2" edge="1">
          <mxGeometry relative="1" as="geometry">
            <mxPoint x="230" y="40" as="targetPoint" />
          </mxGeometry>
        </mxCell>
        <mxCell id="12fQmjYq8aK6i10ER9Vp-39" value="Protocol" style="edgeLabel;html=1;align=center;verticalAlign=middle;resizable=0;points=[];sketch=1;rounded=1;" parent="12fQmjYq8aK6i10ER9Vp-38" vertex="1" connectable="0">
          <mxGeometry x="-0.3647" y="-1" relative="1" as="geometry">
            <mxPoint x="1" y="11" as="offset" />
          </mxGeometry>
        </mxCell>
        <mxCell id="12fQmjYq8aK6i10ER9Vp-2" value="RTM" style="rounded=1;whiteSpace=wrap;html=1;sketch=1;fillColor=#d5e8d4;strokeColor=#82b366;" parent="1" vertex="1">
          <mxGeometry x="170" y="-60" width="120" height="40" as="geometry" />
        </mxCell>
        <mxCell id="12fQmjYq8aK6i10ER9Vp-9" style="edgeStyle=orthogonalEdgeStyle;orthogonalLoop=1;jettySize=auto;html=1;exitX=1;exitY=0.5;exitDx=0;exitDy=0;entryX=0;entryY=0.5;entryDx=0;entryDy=0;endArrow=none;endFill=0;dashed=1;rounded=1;sketch=1;curved=1;" parent="1" source="12fQmjYq8aK6i10ER9Vp-4" target="12fQmjYq8aK6i10ER9Vp-5" edge="1">
          <mxGeometry relative="1" as="geometry" />
        </mxCell>
        <mxCell id="12fQmjYq8aK6i10ER9Vp-4" value="Client Event" style="rounded=1;whiteSpace=wrap;html=1;sketch=1;" parent="1" vertex="1">
          <mxGeometry x="-25" y="40" width="120" height="40" as="geometry" />
        </mxCell>
        <mxCell id="12fQmjYq8aK6i10ER9Vp-10" style="edgeStyle=orthogonalEdgeStyle;orthogonalLoop=1;jettySize=auto;html=1;exitX=1;exitY=0.5;exitDx=0;exitDy=0;entryX=0;entryY=0.5;entryDx=0;entryDy=0;dashed=1;endArrow=none;endFill=0;rounded=1;sketch=1;curved=1;" parent="1" source="12fQmjYq8aK6i10ER9Vp-5" target="12fQmjYq8aK6i10ER9Vp-6" edge="1">
          <mxGeometry relative="1" as="geometry" />
        </mxCell>
        <mxCell id="12fQmjYq8aK6i10ER9Vp-5" value="Channel Event" style="rounded=1;whiteSpace=wrap;html=1;sketch=1;" parent="1" vertex="1">
          <mxGeometry x="105" y="40" width="120" height="40" as="geometry" />
        </mxCell>
        <mxCell id="12fQmjYq8aK6i10ER9Vp-11" style="edgeStyle=orthogonalEdgeStyle;orthogonalLoop=1;jettySize=auto;html=1;exitX=1;exitY=0.5;exitDx=0;exitDy=0;entryX=0;entryY=0.5;entryDx=0;entryDy=0;dashed=1;endArrow=none;endFill=0;rounded=1;sketch=1;curved=1;" parent="1" source="12fQmjYq8aK6i10ER9Vp-6" target="12fQmjYq8aK6i10ER9Vp-7" edge="1">
          <mxGeometry relative="1" as="geometry">
            <mxPoint x="395" y="60" as="targetPoint" />
          </mxGeometry>
        </mxCell>
        <mxCell id="12fQmjYq8aK6i10ER9Vp-6" value="Channel Message" style="rounded=1;whiteSpace=wrap;html=1;sketch=1;" parent="1" vertex="1">
          <mxGeometry x="235" y="40" width="120" height="40" as="geometry" />
        </mxCell>
        <mxCell id="12fQmjYq8aK6i10ER9Vp-7" value="Peer Message" style="rounded=1;whiteSpace=wrap;html=1;sketch=1;" parent="1" vertex="1">
          <mxGeometry x="365" y="40" width="120" height="40" as="geometry" />
        </mxCell>
        <mxCell id="12fQmjYq8aK6i10ER9Vp-12" value="Notification" style="rounded=1;whiteSpace=wrap;html=1;sketch=1;" parent="1" vertex="1">
          <mxGeometry x="-163" y="40" width="120" height="40" as="geometry" />
        </mxCell>
        <mxCell id="12fQmjYq8aK6i10ER9Vp-41" style="edgeStyle=orthogonalEdgeStyle;orthogonalLoop=1;jettySize=auto;html=1;entryX=0.5;entryY=0;entryDx=0;entryDy=0;sketch=1;curved=1;" parent="1" source="12fQmjYq8aK6i10ER9Vp-16" target="12fQmjYq8aK6i10ER9Vp-18" edge="1">
          <mxGeometry relative="1" as="geometry" />
        </mxCell>
        <mxCell id="12fQmjYq8aK6i10ER9Vp-42" value="Interval" style="edgeLabel;html=1;align=center;verticalAlign=middle;resizable=0;points=[];sketch=1;rounded=1;" parent="12fQmjYq8aK6i10ER9Vp-41" vertex="1" connectable="0">
          <mxGeometry x="-0.1294" y="-2" relative="1" as="geometry">
            <mxPoint x="2" y="4" as="offset" />
          </mxGeometry>
        </mxCell>
        <mxCell id="12fQmjYq8aK6i10ER9Vp-16" value="Loop Config Center" style="rounded=1;whiteSpace=wrap;html=1;sketch=1;fillColor=#d5e8d4;strokeColor=#82b366;" parent="1" vertex="1">
          <mxGeometry x="510" y="-60" width="120" height="40" as="geometry" />
        </mxCell>
        <mxCell id="12fQmjYq8aK6i10ER9Vp-48" style="edgeStyle=orthogonalEdgeStyle;orthogonalLoop=1;jettySize=auto;html=1;exitX=0.5;exitY=1;exitDx=0;exitDy=0;endArrow=classic;endFill=1;sketch=1;curved=1;" parent="1" source="12fQmjYq8aK6i10ER9Vp-18" edge="1">
          <mxGeometry relative="1" as="geometry">
            <mxPoint x="570.5294117647059" y="140" as="targetPoint" />
          </mxGeometry>
        </mxCell>
        <mxCell id="12fQmjYq8aK6i10ER9Vp-49" value="requestAnimationFrame" style="edgeLabel;html=1;align=center;verticalAlign=middle;resizable=0;points=[];sketch=1;rounded=1;" parent="12fQmjYq8aK6i10ER9Vp-48" vertex="1" connectable="0">
          <mxGeometry x="-0.2531" y="-2" relative="1" as="geometry">
            <mxPoint x="2" y="8" as="offset" />
          </mxGeometry>
        </mxCell>
        <mxCell id="12fQmjYq8aK6i10ER9Vp-18" value="useCountTimer" style="rounded=1;whiteSpace=wrap;html=1;sketch=1;" parent="1" vertex="1">
          <mxGeometry x="510" y="40" width="120" height="40" as="geometry" />
        </mxCell>
        <mxCell id="12fQmjYq8aK6i10ER9Vp-51" style="edgeStyle=orthogonalEdgeStyle;orthogonalLoop=1;jettySize=auto;html=1;exitX=0.5;exitY=1;exitDx=0;exitDy=0;entryX=0.5;entryY=0;entryDx=0;entryDy=0;endArrow=classic;endFill=1;sketch=1;curved=1;" parent="1" source="12fQmjYq8aK6i10ER9Vp-29" target="12fQmjYq8aK6i10ER9Vp-50" edge="1">
          <mxGeometry relative="1" as="geometry" />
        </mxCell>
        <mxCell id="12fQmjYq8aK6i10ER9Vp-29" value="RTK" style="rounded=1;whiteSpace=wrap;html=1;sketch=1;fillColor=#ffe6cc;strokeColor=#d79b00;" parent="1" vertex="1">
          <mxGeometry x="170" y="230" width="120" height="40" as="geometry" />
        </mxCell>
        <mxCell id="12fQmjYq8aK6i10ER9Vp-44" style="edgeStyle=orthogonalEdgeStyle;orthogonalLoop=1;jettySize=auto;html=1;exitX=1;exitY=0.5;exitDx=0;exitDy=0;entryX=0;entryY=0.5;entryDx=0;entryDy=0;dashed=1;endArrow=none;endFill=0;sketch=1;curved=1;" parent="1" source="12fQmjYq8aK6i10ER9Vp-21" target="12fQmjYq8aK6i10ER9Vp-22" edge="1">
          <mxGeometry relative="1" as="geometry" />
        </mxCell>
        <mxCell id="12fQmjYq8aK6i10ER9Vp-21" value="Start" style="rounded=1;whiteSpace=wrap;html=1;sketch=1;" parent="1" vertex="1">
          <mxGeometry x="315" y="140" width="120" height="40" as="geometry" />
        </mxCell>
        <mxCell id="12fQmjYq8aK6i10ER9Vp-45" style="edgeStyle=orthogonalEdgeStyle;orthogonalLoop=1;jettySize=auto;html=1;exitX=1;exitY=0.5;exitDx=0;exitDy=0;entryX=0;entryY=0.5;entryDx=0;entryDy=0;dashed=1;endArrow=none;endFill=0;sketch=1;curved=1;" parent="1" source="12fQmjYq8aK6i10ER9Vp-22" target="12fQmjYq8aK6i10ER9Vp-23" edge="1">
          <mxGeometry relative="1" as="geometry" />
        </mxCell>
        <mxCell id="12fQmjYq8aK6i10ER9Vp-22" value="Pause" style="rounded=1;whiteSpace=wrap;html=1;sketch=1;" parent="1" vertex="1">
          <mxGeometry x="445" y="140" width="120" height="40" as="geometry" />
        </mxCell>
        <mxCell id="12fQmjYq8aK6i10ER9Vp-46" style="edgeStyle=orthogonalEdgeStyle;orthogonalLoop=1;jettySize=auto;html=1;exitX=1;exitY=0.5;exitDx=0;exitDy=0;entryX=0;entryY=0.5;entryDx=0;entryDy=0;dashed=1;endArrow=none;endFill=0;sketch=1;curved=1;" parent="1" source="12fQmjYq8aK6i10ER9Vp-23" target="12fQmjYq8aK6i10ER9Vp-24" edge="1">
          <mxGeometry relative="1" as="geometry" />
        </mxCell>
        <mxCell id="12fQmjYq8aK6i10ER9Vp-23" value="Resume" style="rounded=1;whiteSpace=wrap;html=1;sketch=1;" parent="1" vertex="1">
          <mxGeometry x="575" y="140" width="120" height="40" as="geometry" />
        </mxCell>
        <mxCell id="12fQmjYq8aK6i10ER9Vp-24" value="Stop" style="rounded=1;whiteSpace=wrap;html=1;sketch=1;" parent="1" vertex="1">
          <mxGeometry x="705" y="140" width="120" height="40" as="geometry" />
        </mxCell>
        <mxCell id="12fQmjYq8aK6i10ER9Vp-40" style="edgeStyle=orthogonalEdgeStyle;orthogonalLoop=1;jettySize=auto;html=1;exitX=0.5;exitY=1;exitDx=0;exitDy=0;sketch=1;curved=1;" parent="1" source="12fQmjYq8aK6i10ER9Vp-18" target="12fQmjYq8aK6i10ER9Vp-18" edge="1">
          <mxGeometry relative="1" as="geometry" />
        </mxCell>
        <mxCell id="12fQmjYq8aK6i10ER9Vp-50" value="HTTP" style="rounded=1;whiteSpace=wrap;html=1;sketch=1;" parent="1" vertex="1">
          <mxGeometry x="170" y="310" width="120" height="40" as="geometry" />
        </mxCell>
        <mxCell id="12fQmjYq8aK6i10ER9Vp-54" value="" style="endArrow=classic;html=1;sketch=1;curved=1;" parent="1" edge="1">
          <mxGeometry width="50" height="50" relative="1" as="geometry">
            <mxPoint x="230" y="90" as="sourcePoint" />
            <mxPoint x="230" y="230" as="targetPoint" />
          </mxGeometry>
        </mxCell>
        <mxCell id="12fQmjYq8aK6i10ER9Vp-55" value="" style="endArrow=classic;html=1;sketch=1;curved=1;" parent="1" edge="1">
          <mxGeometry width="50" height="50" relative="1" as="geometry">
            <mxPoint x="570" y="180" as="sourcePoint" />
            <mxPoint x="239" y="226" as="targetPoint" />
          </mxGeometry>
        </mxCell>
        <mxCell id="12fQmjYq8aK6i10ER9Vp-58" value="" style="endArrow=classic;html=1;rounded=1;sketch=1;hachureGap=4;jiggle=2;fontFamily=Architects Daughter;fontSource=https%3A%2F%2Ffonts.googleapis.com%2Fcss%3Ffamily%3DArchitects%2BDaughter;fontSize=16;curved=1;exitX=0.5;exitY=1;exitDx=0;exitDy=0;entryX=0.417;entryY=-0.075;entryDx=0;entryDy=0;entryPerimeter=0;" parent="1" source="12fQmjYq8aK6i10ER9Vp-12" target="12fQmjYq8aK6i10ER9Vp-29" edge="1">
          <mxGeometry width="50" height="50" relative="1" as="geometry">
            <mxPoint x="113" y="140" as="sourcePoint" />
            <mxPoint x="163" y="90" as="targetPoint" />
          </mxGeometry>
        </mxCell>
      </root>
    </mxGraphModel>
  </diagram>
</mxfile>
